<?xml version="1.0" encoding="UTF-8" standalone="no"?>
<svg
   xmlns:dc="http://purl.org/dc/elements/1.1/"
   xmlns:cc="http://creativecommons.org/ns#"
   xmlns:rdf="http://www.w3.org/1999/02/22-rdf-syntax-ns#"
   xmlns:svg="http://www.w3.org/2000/svg"
   xmlns="http://www.w3.org/2000/svg"
   xmlns:sodipodi="http://sodipodi.sourceforge.net/DTD/sodipodi-0.dtd"
   xmlns:inkscape="http://www.inkscape.org/namespaces/inkscape"
   version="1.1"
   width="720.1999999999999"
   height="770"
   id="svg2"
   inkscape:version="0.48.4 r9939"
   sodipodi:docname="tracing.svg">
  <metadata
     id="metadata774">
    <rdf:RDF>
      <cc:Work
         rdf:about="">
        <dc:format>image/svg+xml</dc:format>
        <dc:type
           rdf:resource="http://purl.org/dc/dcmitype/StillImage" />
      </cc:Work>
    </rdf:RDF>
  </metadata>
  <sodipodi:namedview
     pagecolor="#ffffff"
     bordercolor="#666666"
     borderopacity="1"
     objecttolerance="10"
     gridtolerance="10"
     guidetolerance="10"
     inkscape:pageopacity="0"
     inkscape:pageshadow="2"
     inkscape:window-width="1280"
     inkscape:window-height="751"
     id="namedview772"
     showgrid="false"
     inkscape:zoom="0.5"
     inkscape:cx="403.83563"
     inkscape:cy="257.33113"
     inkscape:window-x="0"
     inkscape:window-y="0"
     inkscape:window-maximized="1"
     inkscape:current-layer="g8" />
  <style
     id="style4" />
  <defs
     id="defs6" />
  <g
     transform="scale(2.0283749,2.0127119)"
     id="g8">
    <g
       id="g10"
       transform="matrix(0.46332086,0,0,0.47089544,16.762192,15.898944)">
      <rect
         x="0"
         y="0"
         width="720.20001"
         height="770"
         id="rect12"
         style="fill:#ffffff;stroke:none" />
    </g>
    <g
       transform="matrix(0.52925928,0,0,0.48591782,26.611809,38.197917)"
       id="g14">
      <g
         id="g16">
        <g
           transform="scale(4.7,1.5)"
           id="g18">
          <g
             id="g20">
            <path
               d="m 0,0 100,0 q 0,0 0,0 l 0,100 q 0,0 0,0 L 0,100 q 0,0 0,0 L 0,0 q 0,0 0,0 z"
               id="path22"
               inkscape:connector-curvature="0"
               style="opacity:0.1;fill:#a61c00;stroke:none" />
            <g
               transform="scale(0.21276596,0.66666667)"
               id="g24">
              <path
                 d="m 0,0 470,0 q 0,0 0,0 l 0,150 q 0,0 0,0 L 0,150 q 0,0 0,0 L 0,0 q 0,0 0,0 z"
                 id="path26"
                 inkscape:connector-curvature="0"
                 style="fill:none;stroke:none" />
              <path
                 d="m 0,0 m 0,0 470,0 q 0,0 0,0 l 0,150 q 0,0 0,0 L 0,150 q 0,0 0,0 L 0,0 q 0,0 0,0 z"
                 stroke-miterlimit="10"
                 id="path28"
                 inkscape:connector-curvature="0"
                 style="opacity:0.1;fill:none;stroke:#674ea7;stroke-width:4;stroke-miterlimit:10" />
            </g>
          </g>
        </g>
      </g>
    </g>
    <g
       transform="matrix(0.52925928,0,0,0.60224071,31.904406,65.698596)"
       id="g30">
      <g
         id="g32">
        <g
           id="g34">
          <rect
             x="0"
             y="0"
             width="452"
             height="2"
             id="rect36"
             style="fill:#000000;fill-opacity:0;stroke:none" />
        </g>
      </g>
      <g
         id="g38">
        <g
           id="g40" />
      </g>
      <g
         id="g42">
        <g
           id="g44" />
      </g>
      <g
         id="g46">
        <g
           id="g48" />
      </g>
      <g
         id="g50">
        <g
           id="g52" />
      </g>
    </g>
    <g
       transform="matrix(0.52925928,0,0,0.38818593,26.611809,146.35637)"
       id="g54">
      <g
         id="g56">
        <g
           transform="scale(4.7,2.4)"
           id="g58">
          <g
             id="g60">
            <path
               d="m 0,0 100,0 q 0,0 0,0 l 0,100 q 0,0 0,0 L 0,100 q 0,0 0,0 L 0,0 q 0,0 0,0 z"
               id="path62"
               inkscape:connector-curvature="0"
               style="opacity:0.1;fill:#3c78d8;stroke:none" />
            <g
               transform="scale(0.21276596,0.41666667)"
               id="g64">
              <path
                 d="m 0,0 470,0 q 0,0 0,0 l 0,240 q 0,0 0,0 L 0,240 q 0,0 0,0 L 0,0 q 0,0 0,0 z"
                 id="path66"
                 inkscape:connector-curvature="0"
                 style="fill:none;stroke:none" />
              <path
                 d="m 0,0 m 0,0 470,0 q 0,0 0,0 l 0,240 q 0,0 0,0 L 0,240 q 0,0 0,0 L 0,0 q 0,0 0,0 z"
                 stroke-miterlimit="10"
                 id="path68"
                 inkscape:connector-curvature="0"
                 style="opacity:0.1;fill:none;stroke:#8e7cc3;stroke-width:6;stroke-miterlimit:10" />
            </g>
          </g>
        </g>
      </g>
    </g>
    <g
       transform="matrix(0.52925928,0,0,0.60224071,169.51179,74.732209)"
       id="g70">
      <g
         id="g72">
        <g
           transform="scale(2,0.6)"
           id="g74">
          <g
             id="g76">
            <path
               d="m 0,0 100,0 q 0,0 0,0 l 0,100 q 0,0 0,0 L 0,100 q 0,0 0,0 L 0,0 q 0,0 0,0 z"
               id="path78"
               inkscape:connector-curvature="0"
               style="opacity:0.1;fill:#a61c00;stroke:none" />
            <g
               transform="scale(0.5,1.6666667)"
               id="g80">
              <path
                 d="m 0,0 200,0 q 0,0 0,0 l 0,60 q 0,0 0,0 L 0,60 q 0,0 0,0 L 0,0 q 0,0 0,0 z"
                 id="path82"
                 inkscape:connector-curvature="0"
                 style="fill:none;stroke:none" />
              <path
                 d="m 0,0 m 0,0 200,0 q 0,0 0,0 l 0,60 q 0,0 0,0 L 0,60 q 0,0 0,0 L 0,0 q 0,0 0,0 z"
                 stroke-miterlimit="10"
                 id="path84"
                 inkscape:connector-curvature="0"
                 style="opacity:0.1;fill:none;stroke:#674ea7;stroke-width:4;stroke-miterlimit:10" />
            </g>
          </g>
        </g>
      </g>
    </g>
    <g
       transform="matrix(0.52925928,0,0,0.60224071,124.52475,50.793077)"
       id="g86">
      <g
         id="g88">
        <g
           id="g90">
          <rect
             x="0"
             y="0"
             width="233"
             height="41"
             id="rect92"
             style="fill:#000000;fill-opacity:0;stroke:none" />
        </g>
      </g>
      <g
         id="g94">
        <g
           id="g96">
          <rect
             x="0"
             y="0"
             width="233"
             height="26"
             id="rect98"
             style="fill:#000000;fill-opacity:0;stroke:none" />
        </g>
      </g>
      <g
         id="g100">
        <g
           id="g102">
          <rect
             x="50"
             y="-2"
             width="132"
             height="27"
             id="rect104"
             style="fill:#000000;fill-opacity:0;stroke:none" />
        </g>
        <text
           font-size="24.024023056030273px"
           font-style="normal"
           font-weight="normal"
           text-decoration=""
           line-height="27px"
           x="50"
           y="20"
           id="text106"
           style="font-size:24.02402306px;font-style:normal;font-weight:normal;line-height:27px;fill:#000000;stroke:none;font-family:Arial">Applications</text>
      </g>
    </g>
    <g
       transform="matrix(0.52925928,0,0,0.60224071,125.0466,172.49293)"
       id="g130">
      <g
         id="g132">
        <g
           id="g134">
          <rect
             x="0"
             y="0"
             width="233"
             height="26"
             id="rect136"
             style="fill:#000000;fill-opacity:0;stroke:none" />
        </g>
      </g>
      <g
         id="g138">
        <g
           id="g140">
          <rect
             x="0"
             y="0"
             width="233"
             height="26"
             id="rect142"
             style="fill:#000000;fill-opacity:0;stroke:none" />
        </g>
      </g>
      <g
         id="g144">
        <g
           id="g146">
          <rect
             x="30"
             y="-2"
             width="174"
             height="27"
             id="rect148"
             style="fill:#000000;fill-opacity:0;stroke:none" />
        </g>
        <text
           font-size="24.024023056030273px"
           font-style="normal"
           font-weight="normal"
           text-decoration=""
           line-height="27px"
           x="30"
           y="20"
           id="text150"
           style="font-size:24.02402306px;font-style:normal;font-weight:normal;line-height:27px;fill:#000000;stroke:none;font-family:Arial">Kernel</text>
        <text
           font-size="24.024023056030273px"
           font-style="normal"
           font-weight="normal"
           text-decoration=""
           line-height="27px"
           x="107"
           y="20"
           id="text152"
           style="font-size:24.02402306px;font-style:normal;font-weight:normal;line-height:27px;fill:#000000;stroke:none;font-family:Arial">functions</text>
      </g>
    </g>
    <g
       transform="matrix(0.52925928,0,0,0.60224071,125.56847,208.68823)"
       id="g154">
      <g
         id="g156">
        <g
           id="g158">
          <rect
             x="0"
             y="0"
             width="233"
             height="26"
             id="rect160"
             style="fill:#000000;fill-opacity:0;stroke:none" />
        </g>
      </g>
      <g
         id="g162">
        <g
           id="g164">
          <rect
             x="0"
             y="0"
             width="233"
             height="26"
             id="rect166"
             style="fill:#000000;fill-opacity:0;stroke:none" />
        </g>
      </g>
      <g
         id="g168">
        <g
           id="g170">
          <rect
             x="54"
             y="-2"
             width="123"
             height="27"
             id="rect172"
             style="fill:#000000;fill-opacity:0;stroke:none" />
        </g>
        <text
           font-size="24.024023056030273px"
           font-style="normal"
           font-weight="normal"
           text-decoration=""
           line-height="27px"
           x="54"
           y="20"
           id="text174"
           style="font-size:24.02402306px;font-style:normal;font-weight:normal;line-height:27px;fill:#000000;stroke:none;font-family:Arial">Code</text>
        <text
           font-size="24.024023056030273px"
           font-style="normal"
           font-weight="normal"
           text-decoration=""
           line-height="27px"
           x="119"
           y="20"
           id="text176"
           style="font-size:24.02402306px;font-style:normal;font-weight:normal;line-height:27px;fill:#000000;stroke:none;font-family:Arial">Lines</text>
      </g>
    </g>
    <g
       transform="matrix(0.52925928,0,0,0.53900859,26.611809,241.67691)"
       id="g178">
      <g
         id="g180">
        <g
           transform="scale(4.7,2.4)"
           id="g182">
          <g
             id="g184">
            <path
               d="m 0,0 100,0 q 0,0 0,0 l 0,100 q 0,0 0,0 L 0,100 q 0,0 0,0 L 0,0 q 0,0 0,0 z"
               id="path186"
               inkscape:connector-curvature="0"
               style="opacity:0.1;fill:#6aa84f;stroke:none" />
            <g
               transform="scale(0.21276596,0.41666667)"
               id="g188">
              <path
                 d="m 0,0 470,0 q 0,0 0,0 l 0,240 q 0,0 0,0 L 0,240 q 0,0 0,0 L 0,0 q 0,0 0,0 z"
                 id="path190"
                 inkscape:connector-curvature="0"
                 style="fill:none;stroke:none" />
              <path
                 d="m 0,0 m 0,0 470,0 q 0,0 0,0 l 0,240 q 0,0 0,0 L 0,240 q 0,0 0,0 L 0,0 q 0,0 0,0 z"
                 stroke-miterlimit="10"
                 id="path192"
                 inkscape:connector-curvature="0"
                 style="opacity:0.1;fill:none;stroke:#8e7cc3;stroke-width:6;stroke-miterlimit:10" />
            </g>
          </g>
        </g>
      </g>
    </g>
    <g
       transform="matrix(0.52925928,0,0,0.60224071,26.611809,110.8666)"
       id="g194">
      <g
         id="g196">
        <g
           transform="scale(4.7,0.6)"
           id="g198">
          <g
             id="g200">
            <path
               d="m 0,0 100,0 q 0,0 0,0 l 0,100 q 0,0 0,0 L 0,100 q 0,0 0,0 L 0,0 q 0,0 0,0 z"
               id="path202"
               inkscape:connector-curvature="0"
               style="opacity:0.1;fill:#bf9000;stroke:none" />
            <g
               transform="scale(0.21276596,1.6666667)"
               id="g204">
              <path
                 d="m 0,0 470,0 q 0,0 0,0 l 0,60 q 0,0 0,0 L 0,60 q 0,0 0,0 L 0,0 q 0,0 0,0 z"
                 id="path206"
                 inkscape:connector-curvature="0"
                 style="fill:none;stroke:none" />
              <path
                 d="m 0,0 m 0,0 470,0 q 0,0 0,0 l 0,60 q 0,0 0,0 L 0,60 q 0,0 0,0 L 0,0 q 0,0 0,0 z"
                 stroke-miterlimit="10"
                 id="path208"
                 inkscape:connector-curvature="0"
                 style="opacity:0.1;fill:none;stroke:#674ea7;stroke-width:4;stroke-miterlimit:10" />
            </g>
          </g>
        </g>
      </g>
    </g>
    <g
       transform="matrix(0.52925928,0,0,0.60224071,109.7055,122.30917)"
       id="g210">
      <g
         id="g212">
        <g
           id="g214">
          <rect
             x="0"
             y="0"
             width="276"
             height="56"
             id="rect216"
             style="fill:#000000;fill-opacity:0;stroke:none" />
        </g>
      </g>
      <g
         id="g218">
        <g
           id="g220">
          <rect
             x="0"
             y="0"
             width="276"
             height="26"
             id="rect222"
             style="fill:#000000;fill-opacity:0;stroke:none" />
        </g>
      </g>
      <g
         id="g224">
        <g
           id="g226">
          <rect
             x="30"
             y="-2"
             width="216"
             height="27"
             id="rect228"
             style="fill:#000000;fill-opacity:0;stroke:none" />
        </g>
        <text
           font-size="24.024023056030273px"
           font-style="normal"
           font-weight="normal"
           text-decoration=""
           line-height="27px"
           x="30"
           y="20"
           id="text230"
           style="font-size:24.02402306px;font-style:normal;font-weight:normal;line-height:27px;fill:#000000;stroke:none;font-family:Arial">system</text>
        <text
           font-size="24.024023056030273px"
           font-style="normal"
           font-weight="normal"
           text-decoration=""
           line-height="27px"
           x="111"
           y="20"
           id="text232"
           style="font-size:24.02402306px;font-style:normal;font-weight:normal;line-height:27px;fill:#000000;stroke:none;font-family:Arial">call</text>
        <text
           font-size="24.024023056030273px"
           font-style="normal"
           font-weight="normal"
           text-decoration=""
           line-height="27px"
           x="155"
           y="20"
           id="text234"
           style="font-size:24.02402306px;font-style:normal;font-weight:normal;line-height:27px;fill:#000000;stroke:none;font-family:Arial">interface</text>
      </g>
    </g>
    <g
       transform="matrix(0.52925928,0,0,0.60224071,25.02403,65.09636)"
       id="g236">
      <g
         id="g238">
        <g
           id="g240">
          <rect
             x="0"
             y="0"
             width="147"
             height="26"
             id="rect242"
             style="fill:#000000;fill-opacity:0;stroke:none" />
        </g>
      </g>
      <g
         id="g244">
        <g
           id="g246">
          <rect
             x="0"
             y="0"
             width="147"
             height="26"
             id="rect248"
             style="fill:#000000;fill-opacity:0;stroke:none" />
        </g>
      </g>
      <g
         id="g250">
        <g
           id="g252">
          <rect
             x="38"
             y="-2"
             width="71"
             height="27"
             id="rect254"
             style="fill:#000000;fill-opacity:0;stroke:none" />
        </g>
      </g>
      <g
         id="g256">
        <g
           id="g258">
          <rect
             x="38"
             y="-2"
             width="71"
             height="27"
             id="rect260"
             style="fill:#000000;fill-opacity:0;stroke:none" />
        </g>
        <text
           font-size="24.024023056030273px"
           font-style="normal"
           font-weight="normal"
           text-decoration=""
           line-height="27px"
           x="38"
           y="20"
           id="text262"
           style="font-size:24.02402306px;font-style:normal;font-weight:normal;line-height:27px;fill:#312101;stroke:none;font-family:Arial">用</text>
        <text
           font-size="24.024023056030273px"
           font-style="normal"
           font-weight="normal"
           text-decoration=""
           line-height="27px"
           x="60"
           y="20"
           id="text264"
           style="font-size:24.02402306px;font-style:normal;font-weight:normal;line-height:27px;fill:#312101;stroke:none;font-family:Arial">户</text>
        <text
           font-size="24.024023056030273px"
           font-style="normal"
           font-weight="normal"
           text-decoration=""
           line-height="27px"
           x="84"
           y="20"
           id="text266"
           style="font-size:24.02402306px;font-style:normal;font-weight:normal;line-height:27px;fill:#312101;stroke:none;font-family:Arial">态</text>
      </g>
    </g>
    <g
       transform="matrix(0.52925928,0,0,0.60224071,25.02403,186.91638)"
       id="g268">
      <g
         id="g270">
        <g
           id="g272">
          <rect
             x="0"
             y="0"
             width="147"
             height="26"
             id="rect274"
             style="fill:#000000;fill-opacity:0;stroke:none" />
        </g>
      </g>
      <g
         id="g276">
        <g
           id="g278">
          <rect
             x="0"
             y="0"
             width="147"
             height="26"
             id="rect280"
             style="fill:#000000;fill-opacity:0;stroke:none" />
        </g>
      </g>
      <g
         id="g282">
        <g
           id="g284">
          <rect
             x="38"
             y="-2"
             width="71"
             height="27"
             id="rect286"
             style="fill:#000000;fill-opacity:0;stroke:none" />
        </g>
      </g>
      <g
         id="g288">
        <g
           id="g290">
          <rect
             x="38"
             y="-2"
             width="71"
             height="27"
             id="rect292"
             style="fill:#000000;fill-opacity:0;stroke:none" />
        </g>
        <text
           font-size="24.024023056030273px"
           font-style="normal"
           font-weight="normal"
           text-decoration=""
           line-height="27px"
           x="38"
           y="20"
           id="text294"
           style="font-size:24.02402306px;font-style:normal;font-weight:normal;line-height:27px;fill:#312101;stroke:none;font-family:Arial">内</text>
        <text
           font-size="24.024023056030273px"
           font-style="normal"
           font-weight="normal"
           text-decoration=""
           line-height="27px"
           x="62"
           y="20"
           id="text296"
           style="font-size:24.02402306px;font-style:normal;font-weight:normal;line-height:27px;fill:#312101;stroke:none;font-family:Arial">核</text>
        <text
           font-size="24.024023056030273px"
           font-style="normal"
           font-weight="normal"
           text-decoration=""
           line-height="27px"
           x="84"
           y="20"
           id="text298"
           style="font-size:24.02402306px;font-style:normal;font-weight:normal;line-height:27px;fill:#312101;stroke:none;font-family:Arial">态</text>
      </g>
    </g>
    <g
       transform="matrix(0.52925928,0,0,0.60224071,25.02403,306.91073)"
       id="g300">
      <g
         id="g302">
        <g
           id="g304">
          <rect
             x="0"
             y="0"
             width="147"
             height="26"
             id="rect306"
             style="fill:#000000;fill-opacity:0;stroke:none" />
        </g>
      </g>
      <g
         id="g308">
        <g
           id="g310">
          <rect
             x="0"
             y="0"
             width="147"
             height="26"
             id="rect312"
             style="fill:#000000;fill-opacity:0;stroke:none" />
        </g>
      </g>
      <g
         id="g314">
        <g
           id="g316">
          <rect
             x="51"
             y="-2"
             width="47"
             height="27"
             id="rect318"
             style="fill:#000000;fill-opacity:0;stroke:none" />
        </g>
      </g>
      <g
         id="g320">
        <g
           id="g322">
          <rect
             x="51"
             y="-2"
             width="47"
             height="27"
             id="rect324"
             style="fill:#000000;fill-opacity:0;stroke:none" />
        </g>
        <text
           font-size="24.024023056030273px"
           font-style="normal"
           font-weight="normal"
           text-decoration=""
           line-height="27px"
           x="51"
           y="20"
           id="text326"
           style="font-size:24.02402306px;font-style:normal;font-weight:normal;line-height:27px;fill:#312101;stroke:none;font-family:Arial">硬</text>
        <text
           font-size="24.024023056030273px"
           font-style="normal"
           font-weight="normal"
           text-decoration=""
           line-height="27px"
           x="74"
           y="20"
           id="text328"
           style="font-size:24.02402306px;font-style:normal;font-weight:normal;line-height:27px;fill:#312101;stroke:none;font-family:Arial">件</text>
      </g>
    </g>
    <g
       transform="matrix(0.52925928,0,0,0.60224071,124.52475,246.72473)"
       id="g330">
      <g
         id="g332">
        <g
           id="g334">
          <rect
             x="0"
             y="0"
             width="233"
             height="204"
             id="rect336"
             style="fill:#000000;fill-opacity:0;stroke:none" />
        </g>
      </g>
      <g
         id="g338">
        <g
           id="g340">
          <rect
             x="0"
             y="0"
             width="233"
             height="26"
             id="rect342"
             style="fill:#000000;fill-opacity:0;stroke:none" />
        </g>
      </g>
      <g
         id="g344">
        <g
           id="g346">
          <rect
             x="83"
             y="-2"
             width="69"
             height="27"
             id="rect348"
             style="fill:#000000;fill-opacity:0;stroke:none" />
        </g>
        <text
           font-size="24.024023056030273px"
           font-style="normal"
           font-weight="normal"
           text-decoration=""
           line-height="27px"
           x="83"
           y="20"
           id="text350"
           style="font-size:24.02402306px;font-style:normal;font-weight:normal;line-height:27px;fill:#000000;stroke:none;font-family:Arial">cycles</text>
      </g>
      <g
         id="g352">
        <g
           id="g354">
          <rect
             x="0"
             y="26"
             width="233"
             height="26"
             id="rect356"
             style="fill:#000000;fill-opacity:0;stroke:none" />
        </g>
      </g>
      <g
         id="g358">
        <g
           id="g360">
          <rect
             x="56"
             y="24"
             width="123"
             height="27"
             id="rect362"
             style="fill:#000000;fill-opacity:0;stroke:none" />
        </g>
        <text
           font-size="24.024023056030273px"
           font-style="normal"
           font-weight="normal"
           text-decoration=""
           line-height="27px"
           x="56"
           y="46"
           id="text364"
           style="font-size:24.02402306px;font-style:normal;font-weight:normal;line-height:27px;fill:#000000;stroke:none;font-family:Arial">instructions</text>
      </g>
      <g
         id="g366">
        <g
           id="g368">
          <rect
             x="0"
             y="51"
             width="233"
             height="26"
             id="rect370"
             style="fill:#000000;fill-opacity:0;stroke:none" />
        </g>
      </g>
      <g
         id="g372">
        <g
           id="g374">
          <rect
             x="56"
             y="50"
             width="123"
             height="27"
             id="rect376"
             style="fill:#000000;fill-opacity:0;stroke:none" />
        </g>
        <text
           font-size="24.024023056030273px"
           font-style="normal"
           font-weight="normal"
           text-decoration=""
           line-height="27px"
           x="56"
           y="72"
           id="text378"
           style="font-size:24.02402306px;font-style:normal;font-weight:normal;line-height:27px;fill:#000000;stroke:none;font-family:Arial">cache</text>
        <text
           font-size="24.024023056030273px"
           font-style="normal"
           font-weight="normal"
           text-decoration=""
           line-height="27px"
           x="120"
           y="72"
           id="text380"
           style="font-size:24.02402306px;font-style:normal;font-weight:normal;line-height:27px;fill:#000000;stroke:none;font-family:Arial">-</text>
        <text
           font-size="24.024023056030273px"
           font-style="normal"
           font-weight="normal"
           text-decoration=""
           line-height="27px"
           x="128"
           y="72"
           id="text382"
           style="font-size:24.02402306px;font-style:normal;font-weight:normal;line-height:27px;fill:#000000;stroke:none;font-family:Arial">miss</text>
      </g>
      <g
         id="g384">
        <g
           id="g386">
          <rect
             x="0"
             y="77"
             width="233"
             height="26"
             id="rect388"
             style="fill:#000000;fill-opacity:0;stroke:none" />
        </g>
      </g>
      <g
         id="g390">
        <g
           id="g392">
          <rect
             x="51"
             y="75"
             width="132"
             height="27"
             id="rect394"
             style="fill:#000000;fill-opacity:0;stroke:none" />
        </g>
        <text
           font-size="24.024023056030273px"
           font-style="normal"
           font-weight="normal"
           text-decoration=""
           line-height="27px"
           x="51"
           y="97"
           id="text396"
           style="font-size:24.02402306px;font-style:normal;font-weight:normal;line-height:27px;fill:#000000;stroke:none;font-family:Arial">branch</text>
        <text
           font-size="24.024023056030273px"
           font-style="normal"
           font-weight="normal"
           text-decoration=""
           line-height="27px"
           x="125"
           y="97"
           id="text398"
           style="font-size:24.02402306px;font-style:normal;font-weight:normal;line-height:27px;fill:#000000;stroke:none;font-family:Arial">-</text>
        <text
           font-size="24.024023056030273px"
           font-style="normal"
           font-weight="normal"
           text-decoration=""
           line-height="27px"
           x="132"
           y="97"
           id="text400"
           style="font-size:24.02402306px;font-style:normal;font-weight:normal;line-height:27px;fill:#000000;stroke:none;font-family:Arial">miss</text>
      </g>
      <g
         id="g402">
        <g
           id="g404">
          <rect
             x="0"
             y="102"
             width="233"
             height="26"
             id="rect406"
             style="fill:#000000;fill-opacity:0;stroke:none" />
        </g>
      </g>
      <g
         id="g408">
        <g
           id="g410">
          <rect
             x="95"
             y="101"
             width="45"
             height="27"
             id="rect412"
             style="fill:#000000;fill-opacity:0;stroke:none" />
        </g>
        <text
           font-size="24.024023056030273px"
           font-style="normal"
           font-weight="normal"
           text-decoration=""
           line-height="27px"
           x="95"
           y="123"
           id="text414"
           style="font-size:24.02402306px;font-style:normal;font-weight:normal;line-height:27px;fill:#000000;stroke:none;font-family:Arial">L1</text>
        <text
           font-size="24.024023056030273px"
           font-style="normal"
           font-weight="normal"
           text-decoration=""
           line-height="27px"
           x="122"
           y="123"
           id="text416"
           style="font-size:24.02402306px;font-style:normal;font-weight:normal;line-height:27px;fill:#000000;stroke:none;font-family:Arial">-*</text>
      </g>
      <g
         id="g418">
        <g
           id="g420">
          <rect
             x="0"
             y="128"
             width="233"
             height="26"
             id="rect422"
             style="fill:#000000;fill-opacity:0;stroke:none" />
        </g>
      </g>
      <g
         id="g424">
        <g
           id="g426">
          <rect
             x="86"
             y="126"
             width="63"
             height="27"
             id="rect428"
             style="fill:#000000;fill-opacity:0;stroke:none" />
        </g>
        <text
           font-size="24.024023056030273px"
           font-style="normal"
           font-weight="normal"
           text-decoration=""
           line-height="27px"
           x="86"
           y="148"
           id="text430"
           style="font-size:24.02402306px;font-style:normal;font-weight:normal;line-height:27px;fill:#000000;stroke:none;font-family:Arial">LLC</text>
        <text
           font-size="24.024023056030273px"
           font-style="normal"
           font-weight="normal"
           text-decoration=""
           line-height="27px"
           x="131"
           y="148"
           id="text432"
           style="font-size:24.02402306px;font-style:normal;font-weight:normal;line-height:27px;fill:#000000;stroke:none;font-family:Arial">-*</text>
      </g>
      <g
         id="g434">
        <g
           id="g436">
          <rect
             x="0"
             y="153"
             width="233"
             height="26"
             id="rect438"
             style="fill:#000000;fill-opacity:0;stroke:none" />
        </g>
      </g>
      <g
         id="g440">
        <g
           id="g442">
          <rect
             x="86"
             y="152"
             width="63"
             height="27"
             id="rect444"
             style="fill:#000000;fill-opacity:0;stroke:none" />
        </g>
        <text
           font-size="24.024023056030273px"
           font-style="normal"
           font-weight="normal"
           text-decoration=""
           line-height="27px"
           x="86"
           y="174"
           id="text446"
           style="font-size:24.02402306px;font-style:normal;font-weight:normal;line-height:27px;fill:#000000;stroke:none;font-family:Arial">TLB</text>
        <text
           font-size="24.024023056030273px"
           font-style="normal"
           font-weight="normal"
           text-decoration=""
           line-height="27px"
           x="131"
           y="174"
           id="text448"
           style="font-size:24.02402306px;font-style:normal;font-weight:normal;line-height:27px;fill:#000000;stroke:none;font-family:Arial">-*</text>
      </g>
      <g
         id="g450">
        <g
           id="g452">
          <rect
             x="0"
             y="179"
             width="233"
             height="26"
             id="rect454"
             style="fill:#000000;fill-opacity:0;stroke:none" />
        </g>
      </g>
      <g
         id="g456">
        <g
           id="g458">
          <rect
             x="98"
             y="177"
             width="36"
             height="27"
             id="rect460"
             style="fill:#000000;fill-opacity:0;stroke:none" />
        </g>
        <text
           font-size="24.024023056030273px"
           font-style="normal"
           font-weight="normal"
           text-decoration=""
           line-height="27px"
           x="98"
           y="199"
           id="text462"
           style="font-size:24.02402306px;font-style:normal;font-weight:normal;line-height:27px;fill:#000000;stroke:none;font-family:Arial">......</text>
      </g>
    </g>
    <g
       transform="matrix(0.52925928,0,0,0.60224071,275.36365,81.206301)"
       id="g464">
      <g
         id="g466">
        <g
           transform="scale(1.4,0.37)"
           id="g468">
          <g
             id="g470">
            <path
               d="m 0,0 100,0 q 0,0 0,0 l 0,100 q 0,0 0,0 L 0,100 q 0,0 0,0 L 0,0 q 0,0 0,0 z"
               id="path472"
               inkscape:connector-curvature="0"
               style="fill:#fcd186;stroke:none" />
            <g
               transform="scale(0.71428571,2.7027027)"
               id="g474">
              <path
                 d="m 0,0 140,0 q 0,0 0,0 l 0,37 q 0,0 0,0 L 0,37 q 0,0 0,0 L 0,0 q 0,0 0,0 z"
                 id="path476"
                 inkscape:connector-curvature="0"
                 style="fill:none;stroke:none" />
              <path
                 d="m 0,0 m 0,0 140,0 q 0,0 0,0 l 0,37 q 0,0 0,0 L 0,37 q 0,0 0,0 L 0,0 q 0,0 0,0 z"
                 stroke-miterlimit="10"
                 id="path478"
                 inkscape:connector-curvature="0"
                 style="fill:none;stroke:#da8707;stroke-width:2;stroke-miterlimit:10" />
            </g>
          </g>
        </g>
      </g>
    </g>
    <g
       transform="matrix(0.52925928,0,0,0.60224071,281.18549,84.368056)"
       id="g480">
      <g
         id="g482">
        <g
           id="g484">
          <rect
             x="0"
             y="0"
             width="120"
             height="26"
             id="rect486"
             style="fill:#000000;fill-opacity:0;stroke:none" />
        </g>
      </g>
      <g
         id="g488">
        <g
           id="g490">
          <rect
             x="0"
             y="0"
             width="120"
             height="26"
             id="rect492"
             style="fill:#000000;fill-opacity:0;stroke:none" />
        </g>
      </g>
      <g
         id="g494">
        <g
           id="g496">
          <rect
             x="30"
             y="-2"
             width="59"
             height="27"
             id="rect498"
             style="fill:#000000;fill-opacity:0;stroke:none" />
        </g>
      </g>
      <g
         id="g500">
        <g
           id="g502">
          <rect
             x="30"
             y="-2"
             width="59"
             height="27"
             id="rect504"
             style="fill:#000000;fill-opacity:0;stroke:none" />
        </g>
        <text
           font-size="24.024023056030273px"
           font-style="normal"
           font-weight="normal"
           text-decoration=""
           line-height="27px"
           x="30"
           y="20"
           id="text506"
           style="font-size:24.02402306px;font-style:normal;font-weight:normal;line-height:27px;fill:#312101;stroke:none;font-family:Arial">ltrace</text>
      </g>
    </g>
    <g
       transform="matrix(0.52925928,0,0,0.60224071,275.36365,119.44853)"
       id="g552">
      <g
         id="g554">
        <g
           transform="scale(1.4,0.37)"
           id="g556">
          <g
             id="g558">
            <path
               d="m 0,0 100,0 q 0,0 0,0 l 0,100 q 0,0 0,0 L 0,100 q 0,0 0,0 L 0,0 q 0,0 0,0 z"
               id="path560"
               inkscape:connector-curvature="0"
               style="fill:#fcd186;stroke:none" />
            <g
               transform="scale(0.71428571,2.7027027)"
               id="g562">
              <path
                 d="m 0,0 140,0 q 0,0 0,0 l 0,37 q 0,0 0,0 L 0,37 q 0,0 0,0 L 0,0 q 0,0 0,0 z"
                 id="path564"
                 inkscape:connector-curvature="0"
                 style="fill:none;stroke:none" />
              <path
                 d="m 0,0 m 0,0 140,0 q 0,0 0,0 l 0,37 q 0,0 0,0 L 0,37 q 0,0 0,0 L 0,0 q 0,0 0,0 z"
                 stroke-miterlimit="10"
                 id="path566"
                 inkscape:connector-curvature="0"
                 style="fill:none;stroke:#da8707;stroke-width:2;stroke-miterlimit:10" />
            </g>
          </g>
        </g>
      </g>
    </g>
    <g
       transform="matrix(0.52925928,0,0,0.60224071,281.18549,122.9114)"
       id="g568">
      <g
         id="g570">
        <g
           id="g572">
          <rect
             x="0"
             y="0"
             width="120"
             height="26"
             id="rect574"
             style="fill:#000000;fill-opacity:0;stroke:none" />
        </g>
      </g>
      <g
         id="g576">
        <g
           id="g578">
          <rect
             x="0"
             y="0"
             width="120"
             height="26"
             id="rect580"
             style="fill:#000000;fill-opacity:0;stroke:none" />
        </g>
      </g>
      <g
         id="g582">
        <g
           id="g584">
          <rect
             x="27"
             y="-2"
             width="65"
             height="27"
             id="rect586"
             style="fill:#000000;fill-opacity:0;stroke:none" />
        </g>
      </g>
      <g
         id="g588">
        <g
           id="g590">
          <rect
             x="27"
             y="-2"
             width="65"
             height="27"
             id="rect592"
             style="fill:#000000;fill-opacity:0;stroke:none" />
        </g>
        <text
           font-size="24.024023056030273px"
           font-style="normal"
           font-weight="normal"
           text-decoration=""
           line-height="27px"
           x="27"
           y="20"
           id="text594"
           style="font-size:24.02402306px;font-style:normal;font-weight:normal;line-height:27px;fill:#312101;stroke:none;font-family:Arial">strace</text>
      </g>
    </g>
    <g
       transform="matrix(0.52925928,0,0,0.60224071,275.36365,165.51994)"
       id="g596">
      <g
         id="g598">
        <g
           transform="scale(1.4,0.37)"
           id="g600">
          <g
             id="g602">
            <path
               d="m 0,0 100,0 q 0,0 0,0 l 0,100 q 0,0 0,0 L 0,100 q 0,0 0,0 L 0,0 q 0,0 0,0 z"
               id="path604"
               inkscape:connector-curvature="0"
               style="fill:#fcd186;stroke:none" />
            <g
               transform="scale(0.71428571,2.7027027)"
               id="g606">
              <path
                 d="m 0,0 140,0 q 0,0 0,0 l 0,37 q 0,0 0,0 L 0,37 q 0,0 0,0 L 0,0 q 0,0 0,0 z"
                 id="path608"
                 inkscape:connector-curvature="0"
                 style="fill:none;stroke:none" />
              <path
                 d="m 0,0 m 0,0 140,0 q 0,0 0,0 l 0,37 q 0,0 0,0 L 0,37 q 0,0 0,0 L 0,0 q 0,0 0,0 z"
                 stroke-miterlimit="10"
                 id="path610"
                 inkscape:connector-curvature="0"
                 style="fill:none;stroke:#da8707;stroke-width:2;stroke-miterlimit:10" />
            </g>
          </g>
        </g>
      </g>
    </g>
    <g
       transform="matrix(0.52925928,0,0,0.60224071,281.18549,168.68169)"
       id="g612">
      <g
         id="g614">
        <g
           id="g616">
          <rect
             x="0"
             y="0"
             width="120"
             height="26"
             id="rect618"
             style="fill:#000000;fill-opacity:0;stroke:none" />
        </g>
      </g>
      <g
         id="g620">
        <g
           id="g622">
          <rect
             x="0"
             y="0"
             width="120"
             height="26"
             id="rect624"
             style="fill:#000000;fill-opacity:0;stroke:none" />
        </g>
      </g>
      <g
         id="g626">
        <g
           id="g628">
          <rect
             x="26"
             y="-2"
             width="68"
             height="27"
             id="rect630"
             style="fill:#000000;fill-opacity:0;stroke:none" />
        </g>
      </g>
      <g
         id="g632">
        <g
           id="g634">
          <rect
             x="26"
             y="-2"
             width="68"
             height="27"
             id="rect636"
             style="fill:#000000;fill-opacity:0;stroke:none" />
        </g>
        <text
           font-size="24.024023056030273px"
           font-style="normal"
           font-weight="normal"
           text-decoration=""
           line-height="27px"
           x="26"
           y="20"
           id="text638"
           style="font-size:24.02402306px;font-style:normal;font-weight:normal;line-height:27px;fill:#312101;stroke:none;font-family:Arial">Ftrace</text>
      </g>
    </g>
    <g
       transform="matrix(0.52925928,0,0,0.60224071,275.36365,205.13585)"
       id="g684">
      <g
         id="g686">
        <g
           transform="scale(1.4,0.37)"
           id="g688">
          <g
             id="g690">
            <path
               d="m 0,0 100,0 q 0,0 0,0 l 0,100 q 0,0 0,0 L 0,100 q 0,0 0,0 L 0,0 q 0,0 0,0 z"
               id="path692"
               inkscape:connector-curvature="0"
               style="fill:#fcd186;stroke:none" />
            <g
               transform="scale(0.71428571,2.7027027)"
               id="g694">
              <path
                 d="m 0,0 140,0 q 0,0 0,0 l 0,37 q 0,0 0,0 L 0,37 q 0,0 0,0 L 0,0 q 0,0 0,0 z"
                 id="path696"
                 inkscape:connector-curvature="0"
                 style="fill:none;stroke:none" />
              <path
                 d="m 0,0 m 0,0 140,0 q 0,0 0,0 l 0,37 q 0,0 0,0 L 0,37 q 0,0 0,0 L 0,0 q 0,0 0,0 z"
                 stroke-miterlimit="10"
                 id="path698"
                 inkscape:connector-curvature="0"
                 style="fill:none;stroke:#da8707;stroke-width:2;stroke-miterlimit:10" />
            </g>
          </g>
        </g>
      </g>
    </g>
    <g
       transform="matrix(0.52925928,0,0,0.60224071,281.18549,208.7493)"
       id="g700">
      <g
         id="g702">
        <g
           id="g704">
          <rect
             x="0"
             y="0"
             width="120"
             height="26"
             id="rect706"
             style="fill:#000000;fill-opacity:0;stroke:none" />
        </g>
      </g>
      <g
         id="g708">
        <g
           id="g710">
          <rect
             x="0"
             y="0"
             width="120"
             height="26"
             id="rect712"
             style="fill:#000000;fill-opacity:0;stroke:none" />
        </g>
      </g>
      <g
         id="g714">
        <g
           id="g716">
          <rect
             x="21"
             y="-2"
             width="80"
             height="27"
             id="rect718"
             style="fill:#000000;fill-opacity:0;stroke:none" />
        </g>
      </g>
      <g
         id="g720">
        <g
           id="g722">
          <rect
             x="21"
             y="-2"
             width="80"
             height="27"
             id="rect724"
             style="fill:#000000;fill-opacity:0;stroke:none" />
        </g>
        <text
           font-size="24.024023056030273px"
           font-style="normal"
           font-weight="normal"
           text-decoration=""
           line-height="27px"
           x="21"
           y="20"
           id="text726"
           style="font-size:24.02402306px;font-style:normal;font-weight:normal;line-height:27px;fill:#312101;stroke:none;font-family:Arial">Kprobe</text>
      </g>
    </g>
    <g
       transform="matrix(0.52925928,0,0,0.60224071,275.36365,293.87289)"
       id="g728">
      <g
         id="g730">
        <g
           transform="scale(1.4,0.37)"
           id="g732">
          <g
             id="g734">
            <path
               d="m 0,0 100,0 q 0,0 0,0 l 0,100 q 0,0 0,0 L 0,100 q 0,0 0,0 L 0,0 q 0,0 0,0 z"
               id="path736"
               inkscape:connector-curvature="0"
               style="fill:#fcd186;stroke:none" />
            <g
               transform="scale(0.71428571,2.7027027)"
               id="g738">
              <path
                 d="m 0,0 140,0 q 0,0 0,0 l 0,37 q 0,0 0,0 L 0,37 q 0,0 0,0 L 0,0 q 0,0 0,0 z"
                 id="path740"
                 inkscape:connector-curvature="0"
                 style="fill:none;stroke:none" />
              <path
                 d="m 0,0 m 0,0 140,0 q 0,0 0,0 l 0,37 q 0,0 0,0 L 0,37 q 0,0 0,0 L 0,0 q 0,0 0,0 z"
                 stroke-miterlimit="10"
                 id="path742"
                 inkscape:connector-curvature="0"
                 style="fill:none;stroke:#da8707;stroke-width:2;stroke-miterlimit:10" />
            </g>
          </g>
        </g>
      </g>
    </g>
    <g
       transform="matrix(0.52925928,0,0,0.60224071,281.18549,297.33578)"
       id="g744">
      <g
         id="g746">
        <g
           id="g748">
          <rect
             x="0"
             y="0"
             width="120"
             height="26"
             id="rect750"
             style="fill:#000000;fill-opacity:0;stroke:none" />
        </g>
      </g>
      <g
         id="g752">
        <g
           id="g754">
          <rect
             x="0"
             y="0"
             width="120"
             height="26"
             id="rect756"
             style="fill:#000000;fill-opacity:0;stroke:none" />
        </g>
      </g>
      <g
         id="g758">
        <g
           id="g760">
          <rect
             x="38"
             y="-2"
             width="44"
             height="27"
             id="rect762"
             style="fill:#000000;fill-opacity:0;stroke:none" />
        </g>
      </g>
      <g
         id="g764">
        <g
           id="g766">
          <rect
             x="38"
             y="-2"
             width="44"
             height="27"
             id="rect768"
             style="fill:#000000;fill-opacity:0;stroke:none" />
        </g>
        <text
           font-size="24.024023056030273px"
           font-style="normal"
           font-weight="normal"
           text-decoration=""
           line-height="27px"
           x="38"
           y="20"
           id="text770"
           style="font-size:24.02402306px;font-style:normal;font-weight:normal;line-height:27px;fill:#312101;stroke:none;font-family:Arial">Perf</text>
      </g>
    </g>
    <text
       xml:space="preserve"
       style="font-size:13.41206455px;font-style:normal;font-variant:normal;font-weight:normal;font-stretch:normal;text-align:start;line-height:125%;letter-spacing:0px;word-spacing:0px;writing-mode:lr-tb;text-anchor:start;fill:#000000;fill-opacity:1;stroke:none;font-family:Sans;-inkscape-font-specification:Sans"
       x="206.09236"
       y="88.813347"
       id="text3751"
       sodipodi:linespacing="125%"
       transform="scale(0.93382583,1.0708635)"><tspan
         sodipodi:role="line"
         id="tspan3753"
         x="206.09236"
         y="88.813347">libcs</tspan></text>
  </g>
</svg>
