<?xml version="1.0" encoding="UTF-8" standalone="no"?>
<!DOCTYPE svg PUBLIC "-//W3C//DTD SVG 1.1//EN"
 "http://www.w3.org/Graphics/SVG/1.1/DTD/svg11.dtd">
<!-- Generated by graphviz version 2.36.0 (20140111.2315)
 -->
<!-- Title: %3 Pages: 1 -->
<svg width="147pt" height="142pt"
 viewBox="0.00 0.00 147.00 142.00" xmlns="http://www.w3.org/2000/svg" xmlns:xlink="http://www.w3.org/1999/xlink">
<g id="graph0" class="graph" transform="scale(1 1) rotate(0) translate(4 138)">
<title>%3</title>
<polygon fill="white" stroke="none" points="-4,4 -4,-138 143,-138 143,4 -4,4"/>
<!-- 1 -->
<g id="node1" class="node"><title>1</title>
<polygon fill="#ff0000" stroke="#ff0000" points="61.25,-133.5 6.75,-133.5 6.75,-92.5 61.25,-92.5 61.25,-133.5"/>
<text text-anchor="middle" x="34" y="-121.5" font-family="Arial" font-size="10.00" fill="#ffffff">main</text>
<text text-anchor="middle" x="34" y="-110.5" font-family="Arial" font-size="10.00" fill="#ffffff">100.00%</text>
<text text-anchor="middle" x="34" y="-99.5" font-family="Arial" font-size="10.00" fill="#ffffff">(6.53%)</text>
</g>
<!-- 2 -->
<g id="node2" class="node"><title>2</title>
<polygon fill="#f54102" stroke="#f54102" points="68.25,-52 -0.25,-52 -0.25,-0 68.25,-0 68.25,-52"/>
<text text-anchor="middle" x="34" y="-40" font-family="Arial" font-size="10.00" fill="#ffffff">fibonacci</text>
<text text-anchor="middle" x="34" y="-29" font-family="Arial" font-size="10.00" fill="#ffffff">93.47%</text>
<text text-anchor="middle" x="34" y="-18" font-family="Arial" font-size="10.00" fill="#ffffff">(93.47%)</text>
<text text-anchor="middle" x="34" y="-7" font-family="Arial" font-size="10.00" fill="#ffffff">2269806295</text>
</g>
<!-- 1&#45;&gt;2 -->
<g id="edge1" class="edge"><title>1&#45;&gt;2</title>
<path fill="none" stroke="#f54102" stroke-width="3.74" d="M34,-92.2856C34,-83.3108 34,-72.4113 34,-62.1095"/>
<polygon fill="#f54102" stroke="#f54102" stroke-width="3.74" points="37.3951,-61.8004 34,-52.1004 30.6051,-61.8005 37.3951,-61.8004"/>
<text text-anchor="middle" x="51" y="-75" font-family="Arial" font-size="10.00" fill="#f54102">93.47%</text>
<text text-anchor="middle" x="51" y="-64" font-family="Arial" font-size="10.00" fill="#f54102">43</text>
</g>
<!-- 2&#45;&gt;2 -->
<g id="edge2" class="edge"><title>2&#45;&gt;2</title>
<path fill="none" stroke="#f54102" stroke-width="3.74" d="M68.5845,-33.7827C73.6126,-32.5474 77,-29.9531 77,-26 77,-25.2588 76.8809,-24.5654 76.6543,-23.9197"/>
<polygon fill="#f54102" stroke="#f54102" stroke-width="3.74" points="78.4655,-21.0425 68.5845,-18.2173 74.547,-26.5878 78.4655,-21.0425"/>
<text text-anchor="middle" x="103.5" y="-23.5" font-family="Arial" font-size="10.00" fill="#f54102">2269806252</text>
</g>
</g>
</svg>
