<?xml version="1.0" encoding="UTF-8" standalone="no"?>
<!DOCTYPE svg PUBLIC "-//W3C//DTD SVG 1.1//EN"
 "http://www.w3.org/Graphics/SVG/1.1/DTD/svg11.dtd">
<!-- Generated by graphviz version 2.36.0 (20140111.2315)
 -->
<!-- Title: fib Pages: 1 -->
<svg width="709pt" height="784pt"
 viewBox="0.00 0.00 708.53 784.00" xmlns="http://www.w3.org/2000/svg" xmlns:xlink="http://www.w3.org/1999/xlink">
<g id="graph0" class="graph" transform="scale(1 1) rotate(0) translate(4 780)">
<title>fib</title>
<polygon fill="white" stroke="none" points="-4,4 -4,-780 704.528,-780 704.528,4 -4,4"/>
<!-- fn_1_basic_block_1 -->
<g id="node1" class="node"><title>fn_1_basic_block_1</title>
<polygon fill="white" stroke="black" points="217,-36 173.699,-18 217,-3.55271e-15 260.301,-18 217,-36"/>
<polyline fill="none" stroke="black" points="184.78,-22.6062 184.78,-13.3938 "/>
<polyline fill="none" stroke="black" points="205.919,-4.6062 228.081,-4.6062 "/>
<polyline fill="none" stroke="black" points="249.22,-13.3938 249.22,-22.6062 "/>
<polyline fill="none" stroke="black" points="228.081,-31.3938 205.919,-31.3938 "/>
<text text-anchor="middle" x="217" y="-14.3" font-family="Times,serif" font-size="14.00">EXIT</text>
</g>
<!-- fn_1_basic_block_2 -->
<g id="node2" class="node"><title>fn_1_basic_block_2</title>
<polygon fill="lightgrey" stroke="black" points="163.5,-612.5 163.5,-703.5 270.5,-703.5 270.5,-612.5 163.5,-612.5"/>
<text text-anchor="start" x="171.5" y="-688.3" font-family="Times,serif" font-size="14.00">&lt;bb 2&gt;:</text>
<polyline fill="none" stroke="black" points="163.5,-680.5 270.5,-680.5 "/>
<text text-anchor="start" x="171.5" y="-665.3" font-family="Times,serif" font-size="14.00">if (n_2(D) &lt;= 0)</text>
<text text-anchor="start" x="171.5" y="-650.3" font-family="Times,serif" font-size="14.00"> &#160;goto &lt;bb 3&gt;;</text>
<text text-anchor="start" x="171.5" y="-635.3" font-family="Times,serif" font-size="14.00">else</text>
<text text-anchor="start" x="171.5" y="-620.3" font-family="Times,serif" font-size="14.00"> &#160;goto &lt;bb 4&gt;;</text>
</g>
<!-- fn_1_basic_block_4 -->
<g id="node3" class="node"><title>fn_1_basic_block_4</title>
<polygon fill="lightgrey" stroke="black" points="163.5,-472.5 163.5,-563.5 270.5,-563.5 270.5,-472.5 163.5,-472.5"/>
<text text-anchor="start" x="171.5" y="-548.3" font-family="Times,serif" font-size="14.00">&lt;bb 4&gt;:</text>
<polyline fill="none" stroke="black" points="163.5,-540.5 270.5,-540.5 "/>
<text text-anchor="start" x="171.5" y="-525.3" font-family="Times,serif" font-size="14.00">if (n_2(D) == 1)</text>
<text text-anchor="start" x="171.5" y="-510.3" font-family="Times,serif" font-size="14.00"> &#160;goto &lt;bb 5&gt;;</text>
<text text-anchor="start" x="171.5" y="-495.3" font-family="Times,serif" font-size="14.00">else</text>
<text text-anchor="start" x="171.5" y="-480.3" font-family="Times,serif" font-size="14.00"> &#160;goto &lt;bb 6&gt;;</text>
</g>
<!-- fn_1_basic_block_2&#45;&gt;fn_1_basic_block_4 -->
<g id="edge3" class="edge"><title>fn_1_basic_block_2:s&#45;&gt;fn_1_basic_block_4:n</title>
<path fill="none" stroke="black" stroke-width="2" d="M217,-612C217,-595.028 217,-588.398 217,-575.304"/>
<polygon fill="black" stroke="black" stroke-width="2" points="220.5,-575 217,-565 213.5,-575 220.5,-575"/>
</g>
<!-- fn_1_basic_block_3 -->
<g id="node6" class="node"><title>fn_1_basic_block_3</title>
<polygon fill="lightgrey" stroke="black" points="279.5,-323.5 279.5,-384.5 368.5,-384.5 368.5,-323.5 279.5,-323.5"/>
<text text-anchor="start" x="287.5" y="-369.3" font-family="Times,serif" font-size="14.00">&lt;bb 3&gt;:</text>
<polyline fill="none" stroke="black" points="279.5,-361.5 368.5,-361.5 "/>
<text text-anchor="start" x="287.5" y="-346.3" font-family="Times,serif" font-size="14.00">fib_3 = 0;</text>
<text text-anchor="start" x="287.5" y="-331.3" font-family="Times,serif" font-size="14.00">goto &lt;bb 7&gt;;</text>
</g>
<!-- fn_1_basic_block_2&#45;&gt;fn_1_basic_block_3 -->
<g id="edge2" class="edge"><title>fn_1_basic_block_2:s&#45;&gt;fn_1_basic_block_3:n</title>
<path fill="none" stroke="black" stroke-width="2" d="M217,-612C217,-580.136 260.006,-601.584 279,-576 328.609,-509.181 324.454,-475.593 324.029,-396.416"/>
<polygon fill="black" stroke="black" stroke-width="2" points="327.528,-395.99 324,-386 320.528,-396.01 327.528,-395.99"/>
</g>
<!-- fn_1_basic_block_6 -->
<g id="node4" class="node"><title>fn_1_basic_block_6</title>
<polygon fill="lightgrey" stroke="black" points="28,-285 28,-423 154,-423 154,-285 28,-285"/>
<text text-anchor="start" x="36" y="-407.8" font-family="Times,serif" font-size="14.00">&lt;bb 6&gt;:</text>
<polyline fill="none" stroke="black" points="28,-400 154,-400 "/>
<text text-anchor="start" x="36" y="-384.8" font-family="Times,serif" font-size="14.00">_5 = n_2(D) + &#45;1;</text>
<polyline fill="none" stroke="black" points="28,-377 154,-377 "/>
<text text-anchor="start" x="36" y="-361.8" font-family="Times,serif" font-size="14.00">_6 = fibonacci (_5);</text>
<polyline fill="none" stroke="black" points="28,-354 154,-354 "/>
<text text-anchor="start" x="36" y="-338.8" font-family="Times,serif" font-size="14.00">_7 = n_2(D) + &#45;2;</text>
<polyline fill="none" stroke="black" points="28,-331 154,-331 "/>
<text text-anchor="start" x="36" y="-315.8" font-family="Times,serif" font-size="14.00">_8 = fibonacci (_7);</text>
<polyline fill="none" stroke="black" points="28,-308 154,-308 "/>
<text text-anchor="start" x="36" y="-292.8" font-family="Times,serif" font-size="14.00">fib_9 = _6 + _8;</text>
</g>
<!-- fn_1_basic_block_4&#45;&gt;fn_1_basic_block_6 -->
<g id="edge6" class="edge"><title>fn_1_basic_block_4:s&#45;&gt;fn_1_basic_block_6:n</title>
<path fill="none" stroke="black" stroke-width="2" d="M217,-471C217,-415.083 106.719,-474.968 92.5028,-433.979"/>
<polygon fill="black" stroke="black" stroke-width="2" points="95.9503,-433.367 91,-424 89.0283,-434.41 95.9503,-433.367"/>
</g>
<!-- fn_1_basic_block_5 -->
<g id="node5" class="node"><title>fn_1_basic_block_5</title>
<polygon fill="lightgrey" stroke="black" points="172.5,-323.5 172.5,-384.5 261.5,-384.5 261.5,-323.5 172.5,-323.5"/>
<text text-anchor="start" x="180.5" y="-369.3" font-family="Times,serif" font-size="14.00">&lt;bb 5&gt;:</text>
<polyline fill="none" stroke="black" points="172.5,-361.5 261.5,-361.5 "/>
<text text-anchor="start" x="180.5" y="-346.3" font-family="Times,serif" font-size="14.00">fib_4 = 1;</text>
<text text-anchor="start" x="180.5" y="-331.3" font-family="Times,serif" font-size="14.00">goto &lt;bb 7&gt;;</text>
</g>
<!-- fn_1_basic_block_4&#45;&gt;fn_1_basic_block_5 -->
<g id="edge5" class="edge"><title>fn_1_basic_block_4:s&#45;&gt;fn_1_basic_block_5:n</title>
<path fill="none" stroke="black" stroke-width="2" d="M217,-471C217,-436.911 217,-425.893 217,-396.31"/>
<polygon fill="black" stroke="black" stroke-width="2" points="220.5,-396 217,-386 213.5,-396 220.5,-396"/>
</g>
<!-- fn_1_basic_block_7 -->
<g id="node7" class="node"><title>fn_1_basic_block_7</title>
<polygon fill="lightgrey" stroke="black" points="86.5,-178.5 86.5,-247.5 347.5,-247.5 347.5,-178.5 86.5,-178.5"/>
<text text-anchor="start" x="94.5" y="-232.3" font-family="Times,serif" font-size="14.00">&lt;bb 7&gt;:</text>
<polyline fill="none" stroke="black" points="86.5,-224.5 347.5,-224.5 "/>
<text text-anchor="start" x="94.5" y="-209.3" font-family="Times,serif" font-size="14.00"># fib_1 = PHI &lt;fib_3(3), fib_4(5), fib_9(6)&gt;</text>
<polyline fill="none" stroke="black" points="86.5,-201.5 347.5,-201.5 "/>
<text text-anchor="start" x="94.5" y="-186.3" font-family="Times,serif" font-size="14.00">_10 = fib_1;</text>
</g>
<!-- fn_1_basic_block_6&#45;&gt;fn_1_basic_block_7 -->
<g id="edge8" class="edge"><title>fn_1_basic_block_6:s&#45;&gt;fn_1_basic_block_7:n</title>
<path fill="none" stroke="blue" stroke-width="2" d="M91,-284C91,-229.854 199.904,-295.609 215.219,-258.324"/>
<polygon fill="blue" stroke="blue" stroke-width="2" points="218.749,-258.449 217,-248 211.851,-257.259 218.749,-258.449"/>
</g>
<!-- fn_1_basic_block_5&#45;&gt;fn_1_basic_block_7 -->
<g id="edge7" class="edge"><title>fn_1_basic_block_5:s&#45;&gt;fn_1_basic_block_7:n</title>
<path fill="none" stroke="blue" stroke-width="2" d="M217,-322C217,-292.837 217,-283.068 217,-258.299"/>
<polygon fill="blue" stroke="blue" stroke-width="2" points="220.5,-258 217,-248 213.5,-258 220.5,-258"/>
</g>
<!-- fn_1_basic_block_3&#45;&gt;fn_1_basic_block_7 -->
<g id="edge4" class="edge"><title>fn_1_basic_block_3:s&#45;&gt;fn_1_basic_block_7:n</title>
<path fill="none" stroke="blue" stroke-width="2" d="M324,-322C324,-292.653 294.139,-300.69 270,-284 249.871,-270.083 225.197,-274.529 218.655,-257.982"/>
<polygon fill="blue" stroke="blue" stroke-width="2" points="222.089,-257.293 217,-248 215.183,-258.438 222.089,-257.293"/>
</g>
<!-- fn_1_basic_block_8 -->
<g id="node8" class="node"><title>fn_1_basic_block_8</title>
<polygon fill="lightgrey" stroke="black" points="178.5,-72.5 178.5,-141.5 255.5,-141.5 255.5,-72.5 178.5,-72.5"/>
<text text-anchor="start" x="186.5" y="-126.3" font-family="Times,serif" font-size="14.00">&lt;bb 8&gt;:</text>
<polyline fill="none" stroke="black" points="178.5,-118.5 255.5,-118.5 "/>
<text text-anchor="start" x="186.5" y="-103.3" font-family="Times,serif" font-size="14.00">&lt;L6&gt;:</text>
<polyline fill="none" stroke="black" points="178.5,-95.5 255.5,-95.5 "/>
<text text-anchor="start" x="186.5" y="-80.3" font-family="Times,serif" font-size="14.00">return _10;</text>
</g>
<!-- fn_1_basic_block_7&#45;&gt;fn_1_basic_block_8 -->
<g id="edge9" class="edge"><title>fn_1_basic_block_7:s&#45;&gt;fn_1_basic_block_8:n</title>
<path fill="none" stroke="blue" stroke-width="2" d="M217,-178C217,-166 217,-160.75 217,-152.125"/>
<polygon fill="blue" stroke="blue" stroke-width="2" points="220.5,-152 217,-142 213.5,-152 220.5,-152"/>
</g>
<!-- fn_1_basic_block_8&#45;&gt;fn_1_basic_block_1 -->
<g id="edge10" class="edge"><title>fn_1_basic_block_8:s&#45;&gt;fn_1_basic_block_1:n</title>
<path fill="none" stroke="black" stroke-width="2" d="M217,-72C217,-60 217,-54.75 217,-46.125"/>
<polygon fill="black" stroke="black" stroke-width="2" points="220.5,-46 217,-36 213.5,-46 220.5,-46"/>
</g>
<!-- fn_1_basic_block_0 -->
<g id="node9" class="node"><title>fn_1_basic_block_0</title>
<polygon fill="white" stroke="black" points="217,-776 160.518,-758 217,-740 273.482,-758 217,-776"/>
<polyline fill="none" stroke="black" points="171.952,-761.644 171.952,-754.356 "/>
<polyline fill="none" stroke="black" points="205.567,-743.644 228.433,-743.644 "/>
<polyline fill="none" stroke="black" points="262.048,-754.356 262.048,-761.644 "/>
<polyline fill="none" stroke="black" points="228.433,-772.356 205.567,-772.356 "/>
<text text-anchor="middle" x="217" y="-754.3" font-family="Times,serif" font-size="14.00">ENTRY</text>
</g>
<!-- fn_1_basic_block_0&#45;&gt;fn_1_basic_block_1 -->
<!-- fn_1_basic_block_0&#45;&gt;fn_1_basic_block_2 -->
<g id="edge1" class="edge"><title>fn_1_basic_block_0:s&#45;&gt;fn_1_basic_block_2:n</title>
<path fill="none" stroke="blue" stroke-width="2" d="M217,-740C217,-728 217,-722.75 217,-714.125"/>
<polygon fill="blue" stroke="blue" stroke-width="2" points="220.5,-714 217,-704 213.5,-714 220.5,-714"/>
</g>
<!-- fn_0_basic_block_1 -->
<g id="node10" class="node"><title>fn_0_basic_block_1</title>
<polygon fill="white" stroke="black" points="460,-125 416.699,-107 460,-89 503.301,-107 460,-125"/>
<polyline fill="none" stroke="black" points="427.78,-111.606 427.78,-102.394 "/>
<polyline fill="none" stroke="black" points="448.919,-93.6062 471.081,-93.6062 "/>
<polyline fill="none" stroke="black" points="492.22,-102.394 492.22,-111.606 "/>
<polyline fill="none" stroke="black" points="471.081,-120.394 448.919,-120.394 "/>
<text text-anchor="middle" x="460" y="-103.3" font-family="Times,serif" font-size="14.00">EXIT</text>
</g>
<!-- fn_0_basic_block_2 -->
<g id="node11" class="node"><title>fn_0_basic_block_2</title>
<polygon fill="lightgrey" stroke="black" points="472.5,-627.5 472.5,-688.5 561.5,-688.5 561.5,-627.5 472.5,-627.5"/>
<text text-anchor="start" x="480.5" y="-673.3" font-family="Times,serif" font-size="14.00">&lt;bb 2&gt;:</text>
<polyline fill="none" stroke="black" points="472.5,-665.5 561.5,-665.5 "/>
<text text-anchor="start" x="480.5" y="-650.3" font-family="Times,serif" font-size="14.00">n_2 = 0;</text>
<text text-anchor="start" x="480.5" y="-635.3" font-family="Times,serif" font-size="14.00">goto &lt;bb 4&gt;;</text>
</g>
<!-- fn_0_basic_block_4 -->
<g id="node12" class="node"><title>fn_0_basic_block_4</title>
<polygon fill="lightgrey" stroke="black" points="424.5,-461 424.5,-575 609.5,-575 609.5,-461 424.5,-461"/>
<text text-anchor="start" x="432.5" y="-559.8" font-family="Times,serif" font-size="14.00">&lt;bb 4&gt;:</text>
<polyline fill="none" stroke="black" points="424.5,-552 609.5,-552 "/>
<text text-anchor="start" x="432.5" y="-536.8" font-family="Times,serif" font-size="14.00"># n_1 = PHI &lt;n_2(2), n_4(3)&gt;</text>
<polyline fill="none" stroke="black" points="424.5,-529 609.5,-529 "/>
<text text-anchor="start" x="432.5" y="-513.8" font-family="Times,serif" font-size="14.00">if (n_1 &lt;= 42)</text>
<text text-anchor="start" x="432.5" y="-498.8" font-family="Times,serif" font-size="14.00"> &#160;goto &lt;bb 3&gt;;</text>
<text text-anchor="start" x="432.5" y="-483.8" font-family="Times,serif" font-size="14.00">else</text>
<text text-anchor="start" x="432.5" y="-468.8" font-family="Times,serif" font-size="14.00"> &#160;goto &lt;bb 5&gt;;</text>
</g>
<!-- fn_0_basic_block_2&#45;&gt;fn_0_basic_block_4 -->
<g id="edge13" class="edge"><title>fn_0_basic_block_2:s&#45;&gt;fn_0_basic_block_4:n</title>
<path fill="none" stroke="blue" stroke-width="2" d="M517,-626C517,-607.597 517,-600.624 517,-586.151"/>
<polygon fill="blue" stroke="blue" stroke-width="2" points="520.5,-586 517,-576 513.5,-586 520.5,-586"/>
</g>
<!-- fn_0_basic_block_5 -->
<g id="node13" class="node"><title>fn_0_basic_block_5</title>
<polygon fill="lightgrey" stroke="black" points="429.5,-331 429.5,-377 490.5,-377 490.5,-331 429.5,-331"/>
<text text-anchor="start" x="437.5" y="-361.8" font-family="Times,serif" font-size="14.00">&lt;bb 5&gt;:</text>
<polyline fill="none" stroke="black" points="429.5,-354 490.5,-354 "/>
<text text-anchor="start" x="437.5" y="-338.8" font-family="Times,serif" font-size="14.00">_5 = 0;</text>
</g>
<!-- fn_0_basic_block_4&#45;&gt;fn_0_basic_block_5 -->
<g id="edge16" class="edge"><title>fn_0_basic_block_4:s&#45;&gt;fn_0_basic_block_5:n</title>
<path fill="none" stroke="black" stroke-width="2" d="M517,-460C517,-419.257 468.968,-421.618 461.088,-387.947"/>
<polygon fill="black" stroke="black" stroke-width="2" points="464.566,-387.56 460,-378 457.608,-388.321 464.566,-387.56"/>
</g>
<!-- fn_0_basic_block_3 -->
<g id="node15" class="node"><title>fn_0_basic_block_3</title>
<polygon fill="lightgrey" stroke="black" points="509,-300.5 509,-407.5 683,-407.5 683,-300.5 509,-300.5"/>
<text text-anchor="start" x="517" y="-392.3" font-family="Times,serif" font-size="14.00">&lt;bb 3&gt;:</text>
<polyline fill="none" stroke="black" points="509,-384.5 683,-384.5 "/>
<text text-anchor="start" x="517" y="-369.3" font-family="Times,serif" font-size="14.00">fib_3 = fibonacci (n_1);</text>
<polyline fill="none" stroke="black" points="509,-361.5 683,-361.5 "/>
<text text-anchor="middle" x="596" y="-346.3" font-family="Times,serif" font-size="14.00">printf (&quot;fibonnaci(%d) = %d</text>
<text text-anchor="start" x="517" y="-331.3" font-family="Times,serif" font-size="14.00">&quot;, n_1, fib_3);</text>
<polyline fill="none" stroke="black" points="509,-323.5 683,-323.5 "/>
<text text-anchor="start" x="517" y="-308.3" font-family="Times,serif" font-size="14.00">n_4 = n_1 + 1;</text>
</g>
<!-- fn_0_basic_block_4&#45;&gt;fn_0_basic_block_3 -->
<g id="edge15" class="edge"><title>fn_0_basic_block_4:s&#45;&gt;fn_0_basic_block_3:n</title>
<path fill="none" stroke="black" stroke-width="2" d="M517,-460C517,-422.126 581.882,-445.336 594.047,-418.915"/>
<polygon fill="black" stroke="black" stroke-width="2" points="597.502,-419.488 596,-409 590.634,-418.135 597.502,-419.488"/>
</g>
<!-- fn_0_basic_block_6 -->
<g id="node14" class="node"><title>fn_0_basic_block_6</title>
<polygon fill="lightgrey" stroke="black" points="425,-178.5 425,-247.5 495,-247.5 495,-178.5 425,-178.5"/>
<text text-anchor="start" x="433" y="-232.3" font-family="Times,serif" font-size="14.00">&lt;bb 6&gt;:</text>
<polyline fill="none" stroke="black" points="425,-224.5 495,-224.5 "/>
<text text-anchor="start" x="433" y="-209.3" font-family="Times,serif" font-size="14.00">&lt;L3&gt;:</text>
<polyline fill="none" stroke="black" points="425,-201.5 495,-201.5 "/>
<text text-anchor="start" x="433" y="-186.3" font-family="Times,serif" font-size="14.00">return _5;</text>
</g>
<!-- fn_0_basic_block_5&#45;&gt;fn_0_basic_block_6 -->
<g id="edge17" class="edge"><title>fn_0_basic_block_5:s&#45;&gt;fn_0_basic_block_6:n</title>
<path fill="none" stroke="blue" stroke-width="2" d="M460,-330C460,-297.257 460,-286.577 460,-258.316"/>
<polygon fill="blue" stroke="blue" stroke-width="2" points="463.5,-258 460,-248 456.5,-258 463.5,-258"/>
</g>
<!-- fn_0_basic_block_6&#45;&gt;fn_0_basic_block_1 -->
<g id="edge18" class="edge"><title>fn_0_basic_block_6:s&#45;&gt;fn_0_basic_block_1:n</title>
<path fill="none" stroke="black" stroke-width="2" d="M460,-178C460,-158.681 460,-151.473 460,-136.128"/>
<polygon fill="black" stroke="black" stroke-width="2" points="463.5,-136 460,-126 456.5,-136 463.5,-136"/>
</g>
<!-- fn_0_basic_block_3&#45;&gt;fn_0_basic_block_4 -->
<g id="edge14" class="edge"><title>fn_0_basic_block_3:s&#45;&gt;fn_0_basic_block_4:n</title>
<path fill="none" stroke="blue" stroke-width="2" stroke-dasharray="1,5" d="M596,-299C596,-279.665 669.407,-286.25 683,-300 716.746,-334.136 692.938,-361.04 683,-408 666.191,-487.423 676.805,-530.356 609,-575 594.925,-584.267 541.553,-592.827 523.224,-584.102"/>
<polygon fill="blue" stroke="blue" stroke-width="2" points="525.868,-581.798 517,-576 520.317,-586.062 525.868,-581.798"/>
</g>
<!-- fn_0_basic_block_0 -->
<g id="node16" class="node"><title>fn_0_basic_block_0</title>
<polygon fill="white" stroke="black" points="517,-776 460.518,-758 517,-740 573.482,-758 517,-776"/>
<polyline fill="none" stroke="black" points="471.952,-761.644 471.952,-754.356 "/>
<polyline fill="none" stroke="black" points="505.567,-743.644 528.433,-743.644 "/>
<polyline fill="none" stroke="black" points="562.048,-754.356 562.048,-761.644 "/>
<polyline fill="none" stroke="black" points="528.433,-772.356 505.567,-772.356 "/>
<text text-anchor="middle" x="517" y="-754.3" font-family="Times,serif" font-size="14.00">ENTRY</text>
</g>
<!-- fn_0_basic_block_0&#45;&gt;fn_0_basic_block_1 -->
<!-- fn_0_basic_block_0&#45;&gt;fn_0_basic_block_2 -->
<g id="edge12" class="edge"><title>fn_0_basic_block_0:s&#45;&gt;fn_0_basic_block_2:n</title>
<path fill="none" stroke="blue" stroke-width="2" d="M517,-740C517,-721.597 517,-714.624 517,-700.151"/>
<polygon fill="blue" stroke="blue" stroke-width="2" points="520.5,-700 517,-690 513.5,-700 520.5,-700"/>
</g>
</g>
</svg>
