<?xml version="1.0" encoding="UTF-8" standalone="no"?>
<!DOCTYPE svg PUBLIC "-//W3C//DTD SVG 1.1//EN"
 "http://www.w3.org/Graphics/SVG/1.1/DTD/svg11.dtd">
<!-- Generated by graphviz version 2.36.0 (20140111.2315)
 -->
<!-- Title: %3 Pages: 1 -->
<svg width="177pt" height="592pt"
 viewBox="0.00 0.00 177.00 592.00" xmlns="http://www.w3.org/2000/svg" xmlns:xlink="http://www.w3.org/1999/xlink">
<g id="graph0" class="graph" transform="scale(1 1) rotate(0) translate(4 588)">
<title>%3</title>
<polygon fill="white" stroke="none" points="-4,4 -4,-588 173,-588 173,4 -4,4"/>
<!-- (below main) -->
<g id="node1" class="node"><title>(below main)</title>
<polygon fill="#ff0000" stroke="#ff0000" points="90.25,-375.5 19.75,-375.5 19.75,-312.5 90.25,-312.5 90.25,-375.5"/>
<text text-anchor="middle" x="55" y="-363.5" font-family="Arial" font-size="10.00" fill="#ffffff">libc&#45;2.19.so</text>
<text text-anchor="middle" x="55" y="-352.5" font-family="Arial" font-size="10.00" fill="#ffffff">(below main)</text>
<text text-anchor="middle" x="55" y="-341.5" font-family="Arial" font-size="10.00" fill="#ffffff">100.00%</text>
<text text-anchor="middle" x="55" y="-330.5" font-family="Arial" font-size="10.00" fill="#ffffff">(0.00%)</text>
<text text-anchor="middle" x="55" y="-319.5" font-family="Arial" font-size="10.00" fill="#ffffff">1×</text>
</g>
<!-- main -->
<g id="node2" class="node"><title>main</title>
<polygon fill="#ff0000" stroke="#ff0000" points="82.25,-271.5 27.75,-271.5 27.75,-208.5 82.25,-208.5 82.25,-271.5"/>
<text text-anchor="middle" x="55" y="-259.5" font-family="Arial" font-size="10.00" fill="#ffffff">fib</text>
<text text-anchor="middle" x="55" y="-248.5" font-family="Arial" font-size="10.00" fill="#ffffff">main</text>
<text text-anchor="middle" x="55" y="-237.5" font-family="Arial" font-size="10.00" fill="#ffffff">100.00%</text>
<text text-anchor="middle" x="55" y="-226.5" font-family="Arial" font-size="10.00" fill="#ffffff">(0.00%)</text>
<text text-anchor="middle" x="55" y="-215.5" font-family="Arial" font-size="10.00" fill="#ffffff">1×</text>
</g>
<!-- (below main)&#45;&gt;main -->
<g id="edge1" class="edge"><title>(below main)&#45;&gt;main</title>
<path fill="none" stroke="#ff0000" stroke-width="4" d="M55,-312.397C55,-302.714 55,-291.858 55,-281.589"/>
<polygon fill="#ff0000" stroke="#ff0000" stroke-width="4" points="58.5001,-281.582 55,-271.582 51.5001,-281.582 58.5001,-281.582"/>
<text text-anchor="middle" x="74.5" y="-295" font-family="Arial" font-size="10.00" fill="#ff0000">100.00%</text>
<text text-anchor="middle" x="74.5" y="-284" font-family="Arial" font-size="10.00" fill="#ff0000">1×</text>
</g>
<!-- fibonacci -->
<g id="node5" class="node"><title>fibonacci</title>
<polygon fill="#ff0000" stroke="#ff0000" points="82.25,-167.5 27.75,-167.5 27.75,-104.5 82.25,-104.5 82.25,-167.5"/>
<text text-anchor="middle" x="55" y="-155.5" font-family="Arial" font-size="10.00" fill="#ffffff">fib</text>
<text text-anchor="middle" x="55" y="-144.5" font-family="Arial" font-size="10.00" fill="#ffffff">fibonacci</text>
<text text-anchor="middle" x="55" y="-133.5" font-family="Arial" font-size="10.00" fill="#ffffff">100.00%</text>
<text text-anchor="middle" x="55" y="-122.5" font-family="Arial" font-size="10.00" fill="#ffffff">(0.00%)</text>
<text text-anchor="middle" x="55" y="-111.5" font-family="Arial" font-size="10.00" fill="#ffffff">43×</text>
</g>
<!-- main&#45;&gt;fibonacci -->
<g id="edge6" class="edge"><title>main&#45;&gt;fibonacci</title>
<path fill="none" stroke="#ff0000" stroke-width="4" d="M55,-208.397C55,-198.714 55,-187.858 55,-177.589"/>
<polygon fill="#ff0000" stroke="#ff0000" stroke-width="4" points="58.5001,-177.582 55,-167.582 51.5001,-177.582 58.5001,-177.582"/>
<text text-anchor="middle" x="74.5" y="-191" font-family="Arial" font-size="10.00" fill="#ff0000">100.00%</text>
<text text-anchor="middle" x="74.5" y="-180" font-family="Arial" font-size="10.00" fill="#ff0000">43×</text>
</g>
<!-- 0x00000000000012d0 -->
<g id="node3" class="node"><title>0x00000000000012d0</title>
<polygon fill="#ff0000" stroke="#ff0000" points="110.25,-583.5 -0.25,-583.5 -0.25,-520.5 110.25,-520.5 110.25,-583.5"/>
<text text-anchor="middle" x="55" y="-571.5" font-family="Arial" font-size="10.00" fill="#ffffff">ld&#45;2.19.so</text>
<text text-anchor="middle" x="55" y="-560.5" font-family="Arial" font-size="10.00" fill="#ffffff">0x00000000000012d0</text>
<text text-anchor="middle" x="55" y="-549.5" font-family="Arial" font-size="10.00" fill="#ffffff">100.00%</text>
<text text-anchor="middle" x="55" y="-538.5" font-family="Arial" font-size="10.00" fill="#ffffff">(0.00%)</text>
<text text-anchor="middle" x="55" y="-527.5" font-family="Arial" font-size="10.00" fill="#ffffff">0×</text>
</g>
<!-- 0x0000000000400440 -->
<g id="node4" class="node"><title>0x0000000000400440</title>
<polygon fill="#ff0000" stroke="#ff0000" points="110.25,-479.5 -0.25,-479.5 -0.25,-416.5 110.25,-416.5 110.25,-479.5"/>
<text text-anchor="middle" x="55" y="-467.5" font-family="Arial" font-size="10.00" fill="#ffffff">fib</text>
<text text-anchor="middle" x="55" y="-456.5" font-family="Arial" font-size="10.00" fill="#ffffff">0x0000000000400440</text>
<text text-anchor="middle" x="55" y="-445.5" font-family="Arial" font-size="10.00" fill="#ffffff">100.00%</text>
<text text-anchor="middle" x="55" y="-434.5" font-family="Arial" font-size="10.00" fill="#ffffff">(0.00%)</text>
<text text-anchor="middle" x="55" y="-423.5" font-family="Arial" font-size="10.00" fill="#ffffff">1×</text>
</g>
<!-- 0x00000000000012d0&#45;&gt;0x0000000000400440 -->
<g id="edge2" class="edge"><title>0x00000000000012d0&#45;&gt;0x0000000000400440</title>
<path fill="none" stroke="#ff0000" stroke-width="4" d="M55,-520.397C55,-510.714 55,-499.858 55,-489.589"/>
<polygon fill="#ff0000" stroke="#ff0000" stroke-width="4" points="58.5001,-489.582 55,-479.582 51.5001,-489.582 58.5001,-489.582"/>
<text text-anchor="middle" x="74.5" y="-503" font-family="Arial" font-size="10.00" fill="#ff0000">100.00%</text>
<text text-anchor="middle" x="74.5" y="-492" font-family="Arial" font-size="10.00" fill="#ff0000">1×</text>
</g>
<!-- 0x0000000000400440&#45;&gt;(below main) -->
<g id="edge3" class="edge"><title>0x0000000000400440&#45;&gt;(below main)</title>
<path fill="none" stroke="#ff0000" stroke-width="4" d="M55,-416.397C55,-406.714 55,-395.858 55,-385.589"/>
<polygon fill="#ff0000" stroke="#ff0000" stroke-width="4" points="58.5001,-385.582 55,-375.582 51.5001,-385.582 58.5001,-385.582"/>
<text text-anchor="middle" x="74.5" y="-399" font-family="Arial" font-size="10.00" fill="#ff0000">100.00%</text>
<text text-anchor="middle" x="74.5" y="-388" font-family="Arial" font-size="10.00" fill="#ff0000">1×</text>
</g>
<!-- fibonacci&#39;2 -->
<g id="node6" class="node"><title>fibonacci&#39;2</title>
<polygon fill="#ff0000" stroke="#ff0000" points="92.25,-63.5 17.75,-63.5 17.75,-0.5 92.25,-0.5 92.25,-63.5"/>
<text text-anchor="middle" x="55" y="-51.5" font-family="Arial" font-size="10.00" fill="#ffffff">fib</text>
<text text-anchor="middle" x="55" y="-40.5" font-family="Arial" font-size="10.00" fill="#ffffff">fibonacci&#39;2</text>
<text text-anchor="middle" x="55" y="-29.5" font-family="Arial" font-size="10.00" fill="#ffffff">100.00%</text>
<text text-anchor="middle" x="55" y="-18.5" font-family="Arial" font-size="10.00" fill="#ffffff">(100.00%)</text>
<text text-anchor="middle" x="55" y="-7.5" font-family="Arial" font-size="10.00" fill="#ffffff">2269806252×</text>
</g>
<!-- fibonacci&#45;&gt;fibonacci&#39;2 -->
<g id="edge4" class="edge"><title>fibonacci&#45;&gt;fibonacci&#39;2</title>
<path fill="none" stroke="#ff0000" stroke-width="4" d="M55,-104.397C55,-94.7143 55,-83.8576 55,-73.589"/>
<polygon fill="#ff0000" stroke="#ff0000" stroke-width="4" points="58.5001,-73.5817 55,-63.5818 51.5001,-73.5818 58.5001,-73.5817"/>
<text text-anchor="middle" x="74.5" y="-87" font-family="Arial" font-size="10.00" fill="#ff0000">100.00%</text>
<text text-anchor="middle" x="74.5" y="-76" font-family="Arial" font-size="10.00" fill="#ff0000">82×</text>
</g>
<!-- fibonacci&#39;2&#45;&gt;fibonacci&#39;2 -->
<g id="edge5" class="edge"><title>fibonacci&#39;2&#45;&gt;fibonacci&#39;2</title>
<path fill="none" stroke="#ff0000" stroke-width="4" d="M92.3614,-40.7003C97.5391,-39.2673 101,-36.3672 101,-32 101,-31.0447 100.834,-30.1596 100.521,-29.3446"/>
<polygon fill="#ff0000" stroke="#ff0000" stroke-width="4" points="102.48,-26.4399 92.3614,-23.2997 98.3134,-32.0647 102.48,-26.4399"/>
<text text-anchor="middle" x="130.5" y="-29.5" font-family="Arial" font-size="10.00" fill="#ff0000">2269806170×</text>
</g>
</g>
</svg>
