<?xml version="1.0" encoding="UTF-8" standalone="no"?>
<!DOCTYPE svg PUBLIC "-//W3C//DTD SVG 1.1//EN"
 "http://www.w3.org/Graphics/SVG/1.1/DTD/svg11.dtd">
<!-- Generated by graphviz version 2.36.0 (20140111.2315)
 -->
<!-- Title: %3 Pages: 1 -->
<svg width="551pt" height="1008pt"
 viewBox="0.00 0.00 551.00 1008.00" xmlns="http://www.w3.org/2000/svg" xmlns:xlink="http://www.w3.org/1999/xlink">
<g id="graph0" class="graph" transform="scale(1 1) rotate(0) translate(4 1004)">
<title>%3</title>
<polygon fill="white" stroke="none" points="-4,4 -4,-1004 547,-1004 547,4 -4,4"/>
<!-- _IO_default_xsputn -->
<g id="node1" class="node"><title>_IO_default_xsputn</title>
<polygon fill="#0d0d73" stroke="#0d0d73" points="295,-583.5 195,-583.5 195,-520.5 295,-520.5 295,-583.5"/>
<text text-anchor="middle" x="245" y="-571.5" font-family="Arial" font-size="10.00" fill="#ffffff">libc&#45;2.19.so</text>
<text text-anchor="middle" x="245" y="-560.5" font-family="Arial" font-size="10.00" fill="#ffffff">_IO_default_xsputn</text>
<text text-anchor="middle" x="245" y="-549.5" font-family="Arial" font-size="10.00" fill="#ffffff">0.00%</text>
<text text-anchor="middle" x="245" y="-538.5" font-family="Arial" font-size="10.00" fill="#ffffff">(0.00%)</text>
<text text-anchor="middle" x="245" y="-527.5" font-family="Arial" font-size="10.00" fill="#ffffff">1×</text>
</g>
<!-- _IO_file_overflow@@GLIBC_2.2.5 -->
<g id="node2" class="node"><title>_IO_file_overflow@@GLIBC_2.2.5</title>
<polygon fill="#0d0d73" stroke="#0d0d73" points="383.25,-479.5 220.75,-479.5 220.75,-416.5 383.25,-416.5 383.25,-479.5"/>
<text text-anchor="middle" x="302" y="-467.5" font-family="Arial" font-size="10.00" fill="#ffffff">libc&#45;2.19.so</text>
<text text-anchor="middle" x="302" y="-456.5" font-family="Arial" font-size="10.00" fill="#ffffff">_IO_file_overflow@@GLIBC_2.2.5</text>
<text text-anchor="middle" x="302" y="-445.5" font-family="Arial" font-size="10.00" fill="#ffffff">0.00%</text>
<text text-anchor="middle" x="302" y="-434.5" font-family="Arial" font-size="10.00" fill="#ffffff">(0.00%)</text>
<text text-anchor="middle" x="302" y="-423.5" font-family="Arial" font-size="10.00" fill="#ffffff">12×</text>
</g>
<!-- _IO_default_xsputn&#45;&gt;_IO_file_overflow@@GLIBC_2.2.5 -->
<g id="edge1" class="edge"><title>_IO_default_xsputn&#45;&gt;_IO_file_overflow@@GLIBC_2.2.5</title>
<path fill="none" stroke="#0d0d73" stroke-width="0.5" d="M260.972,-520.241C266.282,-510.22 272.297,-499.083 278,-489 279.099,-487.057 280.24,-485.069 281.4,-483.068"/>
<polygon fill="#0d0d73" stroke="#0d0d73" stroke-width="0.5" points="282.532,-483.558 283.237,-479.917 280.416,-482.324 282.532,-483.558"/>
<text text-anchor="middle" x="292" y="-503" font-family="Arial" font-size="10.00" fill="#0d0d73">0.00%</text>
<text text-anchor="middle" x="292" y="-492" font-family="Arial" font-size="10.00" fill="#0d0d73">10×</text>
</g>
<!-- _IO_do_write@@GLIBC_2.2.5 -->
<g id="node3" class="node"><title>_IO_do_write@@GLIBC_2.2.5</title>
<polygon fill="#0d0d73" stroke="#0d0d73" points="306,-375.5 158,-375.5 158,-312.5 306,-312.5 306,-375.5"/>
<text text-anchor="middle" x="232" y="-363.5" font-family="Arial" font-size="10.00" fill="#ffffff">libc&#45;2.19.so</text>
<text text-anchor="middle" x="232" y="-352.5" font-family="Arial" font-size="10.00" fill="#ffffff">_IO_do_write@@GLIBC_2.2.5</text>
<text text-anchor="middle" x="232" y="-341.5" font-family="Arial" font-size="10.00" fill="#ffffff">0.00%</text>
<text text-anchor="middle" x="232" y="-330.5" font-family="Arial" font-size="10.00" fill="#ffffff">(0.00%)</text>
<text text-anchor="middle" x="232" y="-319.5" font-family="Arial" font-size="10.00" fill="#ffffff">2×</text>
</g>
<!-- _IO_file_overflow@@GLIBC_2.2.5&#45;&gt;_IO_do_write@@GLIBC_2.2.5 -->
<g id="edge7" class="edge"><title>_IO_file_overflow@@GLIBC_2.2.5&#45;&gt;_IO_do_write@@GLIBC_2.2.5</title>
<path fill="none" stroke="#0d0d73" stroke-width="0.5" d="M280.998,-416.397C272.83,-404.495 263.445,-390.82 255.088,-378.643"/>
<polygon fill="#0d0d73" stroke="#0d0d73" stroke-width="0.5" points="255.978,-377.774 252.987,-375.582 253.958,-379.161 255.978,-377.774"/>
<text text-anchor="middle" x="288" y="-399" font-family="Arial" font-size="10.00" fill="#0d0d73">0.00%</text>
<text text-anchor="middle" x="288" y="-388" font-family="Arial" font-size="10.00" fill="#0d0d73">2×</text>
</g>
<!-- _IO_doallocbuf -->
<g id="node5" class="node"><title>_IO_doallocbuf</title>
<polygon fill="#0d0d73" stroke="#0d0d73" points="417,-375.5 337,-375.5 337,-312.5 417,-312.5 417,-375.5"/>
<text text-anchor="middle" x="377" y="-363.5" font-family="Arial" font-size="10.00" fill="#ffffff">libc&#45;2.19.so</text>
<text text-anchor="middle" x="377" y="-352.5" font-family="Arial" font-size="10.00" fill="#ffffff">_IO_doallocbuf</text>
<text text-anchor="middle" x="377" y="-341.5" font-family="Arial" font-size="10.00" fill="#ffffff">0.00%</text>
<text text-anchor="middle" x="377" y="-330.5" font-family="Arial" font-size="10.00" fill="#ffffff">(0.00%)</text>
<text text-anchor="middle" x="377" y="-319.5" font-family="Arial" font-size="10.00" fill="#ffffff">1×</text>
</g>
<!-- _IO_file_overflow@@GLIBC_2.2.5&#45;&gt;_IO_doallocbuf -->
<g id="edge8" class="edge"><title>_IO_file_overflow@@GLIBC_2.2.5&#45;&gt;_IO_doallocbuf</title>
<path fill="none" stroke="#0d0d73" stroke-width="0.5" d="M324.502,-416.397C333.253,-404.495 343.309,-390.82 352.262,-378.643"/>
<polygon fill="#0d0d73" stroke="#0d0d73" stroke-width="0.5" points="353.427,-379.127 354.513,-375.582 351.453,-377.676 353.427,-379.127"/>
<text text-anchor="middle" x="361" y="-399" font-family="Arial" font-size="10.00" fill="#0d0d73">0.00%</text>
<text text-anchor="middle" x="361" y="-388" font-family="Arial" font-size="10.00" fill="#0d0d73">1×</text>
</g>
<!-- _IO_file_write@@GLIBC_2.2.5 -->
<g id="node4" class="node"><title>_IO_file_write@@GLIBC_2.2.5</title>
<polygon fill="#0d0d73" stroke="#0d0d73" points="297.25,-271.5 148.75,-271.5 148.75,-208.5 297.25,-208.5 297.25,-271.5"/>
<text text-anchor="middle" x="223" y="-259.5" font-family="Arial" font-size="10.00" fill="#ffffff">libc&#45;2.19.so</text>
<text text-anchor="middle" x="223" y="-248.5" font-family="Arial" font-size="10.00" fill="#ffffff">_IO_file_write@@GLIBC_2.2.5</text>
<text text-anchor="middle" x="223" y="-237.5" font-family="Arial" font-size="10.00" fill="#ffffff">0.00%</text>
<text text-anchor="middle" x="223" y="-226.5" font-family="Arial" font-size="10.00" fill="#ffffff">(0.00%)</text>
<text text-anchor="middle" x="223" y="-215.5" font-family="Arial" font-size="10.00" fill="#ffffff">1×</text>
</g>
<!-- _IO_do_write@@GLIBC_2.2.5&#45;&gt;_IO_file_write@@GLIBC_2.2.5 -->
<g id="edge2" class="edge"><title>_IO_do_write@@GLIBC_2.2.5&#45;&gt;_IO_file_write@@GLIBC_2.2.5</title>
<path fill="none" stroke="#0d0d73" stroke-width="0.5" d="M229.3,-312.397C228.267,-300.697 227.084,-287.283 226.023,-275.264"/>
<polygon fill="#0d0d73" stroke="#0d0d73" stroke-width="0.5" points="227.226,-274.961 225.698,-271.582 224.786,-275.176 227.226,-274.961"/>
<text text-anchor="middle" x="243" y="-295" font-family="Arial" font-size="10.00" fill="#0d0d73">0.00%</text>
<text text-anchor="middle" x="243" y="-284" font-family="Arial" font-size="10.00" fill="#0d0d73">1×</text>
</g>
<!-- write -->
<g id="node11" class="node"><title>write</title>
<polygon fill="#0d0d73" stroke="#0d0d73" points="253.25,-167.5 186.75,-167.5 186.75,-104.5 253.25,-104.5 253.25,-167.5"/>
<text text-anchor="middle" x="220" y="-155.5" font-family="Arial" font-size="10.00" fill="#ffffff">libc&#45;2.19.so</text>
<text text-anchor="middle" x="220" y="-144.5" font-family="Arial" font-size="10.00" fill="#ffffff">write</text>
<text text-anchor="middle" x="220" y="-133.5" font-family="Arial" font-size="10.00" fill="#ffffff">0.00%</text>
<text text-anchor="middle" x="220" y="-122.5" font-family="Arial" font-size="10.00" fill="#ffffff">(0.00%)</text>
<text text-anchor="middle" x="220" y="-111.5" font-family="Arial" font-size="10.00" fill="#ffffff">1×</text>
</g>
<!-- _IO_file_write@@GLIBC_2.2.5&#45;&gt;write -->
<g id="edge10" class="edge"><title>_IO_file_write@@GLIBC_2.2.5&#45;&gt;write</title>
<path fill="none" stroke="#0d0d73" stroke-width="0.5" d="M222.1,-208.397C221.756,-196.697 221.361,-183.283 221.008,-171.264"/>
<polygon fill="#0d0d73" stroke="#0d0d73" stroke-width="0.5" points="222.227,-171.044 220.899,-167.582 219.778,-171.116 222.227,-171.044"/>
<text text-anchor="middle" x="236" y="-191" font-family="Arial" font-size="10.00" fill="#0d0d73">0.00%</text>
<text text-anchor="middle" x="236" y="-180" font-family="Arial" font-size="10.00" fill="#0d0d73">1×</text>
</g>
<!-- _IO_file_doallocate -->
<g id="node6" class="node"><title>_IO_file_doallocate</title>
<polygon fill="#0d0d73" stroke="#0d0d73" points="434.5,-271.5 337.5,-271.5 337.5,-208.5 434.5,-208.5 434.5,-271.5"/>
<text text-anchor="middle" x="386" y="-259.5" font-family="Arial" font-size="10.00" fill="#ffffff">libc&#45;2.19.so</text>
<text text-anchor="middle" x="386" y="-248.5" font-family="Arial" font-size="10.00" fill="#ffffff">_IO_file_doallocate</text>
<text text-anchor="middle" x="386" y="-237.5" font-family="Arial" font-size="10.00" fill="#ffffff">0.00%</text>
<text text-anchor="middle" x="386" y="-226.5" font-family="Arial" font-size="10.00" fill="#ffffff">(0.00%)</text>
<text text-anchor="middle" x="386" y="-215.5" font-family="Arial" font-size="10.00" fill="#ffffff">1×</text>
</g>
<!-- _IO_doallocbuf&#45;&gt;_IO_file_doallocate -->
<g id="edge3" class="edge"><title>_IO_doallocbuf&#45;&gt;_IO_file_doallocate</title>
<path fill="none" stroke="#0d0d73" stroke-width="0.5" d="M379.7,-312.397C380.733,-300.697 381.916,-287.283 382.977,-275.264"/>
<polygon fill="#0d0d73" stroke="#0d0d73" stroke-width="0.5" points="384.214,-275.176 383.302,-271.582 381.774,-274.961 384.214,-275.176"/>
<text text-anchor="middle" x="397" y="-295" font-family="Arial" font-size="10.00" fill="#0d0d73">0.00%</text>
<text text-anchor="middle" x="397" y="-284" font-family="Arial" font-size="10.00" fill="#0d0d73">1×</text>
</g>
<!-- _IO_file_stat -->
<g id="node7" class="node"><title>_IO_file_stat</title>
<polygon fill="#0d0d73" stroke="#0d0d73" points="344.25,-167.5 273.75,-167.5 273.75,-104.5 344.25,-104.5 344.25,-167.5"/>
<text text-anchor="middle" x="309" y="-155.5" font-family="Arial" font-size="10.00" fill="#ffffff">libc&#45;2.19.so</text>
<text text-anchor="middle" x="309" y="-144.5" font-family="Arial" font-size="10.00" fill="#ffffff">_IO_file_stat</text>
<text text-anchor="middle" x="309" y="-133.5" font-family="Arial" font-size="10.00" fill="#ffffff">0.00%</text>
<text text-anchor="middle" x="309" y="-122.5" font-family="Arial" font-size="10.00" fill="#ffffff">(0.00%)</text>
<text text-anchor="middle" x="309" y="-111.5" font-family="Arial" font-size="10.00" fill="#ffffff">1×</text>
</g>
<!-- _IO_file_doallocate&#45;&gt;_IO_file_stat -->
<g id="edge4" class="edge"><title>_IO_file_doallocate&#45;&gt;_IO_file_stat</title>
<path fill="none" stroke="#0d0d73" stroke-width="0.5" d="M362.897,-208.397C353.913,-196.495 343.59,-182.82 334.397,-170.643"/>
<polygon fill="#0d0d73" stroke="#0d0d73" stroke-width="0.5" points="335.173,-169.637 332.086,-167.582 333.217,-171.113 335.173,-169.637"/>
<text text-anchor="middle" x="369" y="-191" font-family="Arial" font-size="10.00" fill="#0d0d73">0.00%</text>
<text text-anchor="middle" x="369" y="-180" font-family="Arial" font-size="10.00" fill="#0d0d73">1×</text>
</g>
<!-- _IO_setb -->
<g id="node8" class="node"><title>_IO_setb</title>
<polygon fill="#0d0d73" stroke="#0d0d73" points="420.25,-167.5 353.75,-167.5 353.75,-104.5 420.25,-104.5 420.25,-167.5"/>
<text text-anchor="middle" x="387" y="-155.5" font-family="Arial" font-size="10.00" fill="#ffffff">libc&#45;2.19.so</text>
<text text-anchor="middle" x="387" y="-144.5" font-family="Arial" font-size="10.00" fill="#ffffff">_IO_setb</text>
<text text-anchor="middle" x="387" y="-133.5" font-family="Arial" font-size="10.00" fill="#ffffff">0.00%</text>
<text text-anchor="middle" x="387" y="-122.5" font-family="Arial" font-size="10.00" fill="#ffffff">(0.00%)</text>
<text text-anchor="middle" x="387" y="-111.5" font-family="Arial" font-size="10.00" fill="#ffffff">1×</text>
</g>
<!-- _IO_file_doallocate&#45;&gt;_IO_setb -->
<g id="edge5" class="edge"><title>_IO_file_doallocate&#45;&gt;_IO_setb</title>
<path fill="none" stroke="#0d0d73" stroke-width="0.5" d="M386.3,-208.397C386.415,-196.697 386.546,-183.283 386.664,-171.264"/>
<polygon fill="#0d0d73" stroke="#0d0d73" stroke-width="0.5" points="387.891,-171.094 386.7,-167.582 385.441,-171.07 387.891,-171.094"/>
<text text-anchor="middle" x="401" y="-191" font-family="Arial" font-size="10.00" fill="#0d0d73">0.00%</text>
<text text-anchor="middle" x="401" y="-180" font-family="Arial" font-size="10.00" fill="#0d0d73">1×</text>
</g>
<!-- mmap -->
<g id="node9" class="node"><title>mmap</title>
<polygon fill="#0d0d73" stroke="#0d0d73" points="496.25,-167.5 429.75,-167.5 429.75,-104.5 496.25,-104.5 496.25,-167.5"/>
<text text-anchor="middle" x="463" y="-155.5" font-family="Arial" font-size="10.00" fill="#ffffff">libc&#45;2.19.so</text>
<text text-anchor="middle" x="463" y="-144.5" font-family="Arial" font-size="10.00" fill="#ffffff">mmap</text>
<text text-anchor="middle" x="463" y="-133.5" font-family="Arial" font-size="10.00" fill="#ffffff">0.00%</text>
<text text-anchor="middle" x="463" y="-122.5" font-family="Arial" font-size="10.00" fill="#ffffff">(0.00%)</text>
<text text-anchor="middle" x="463" y="-111.5" font-family="Arial" font-size="10.00" fill="#ffffff">10×</text>
</g>
<!-- _IO_file_doallocate&#45;&gt;mmap -->
<g id="edge6" class="edge"><title>_IO_file_doallocate&#45;&gt;mmap</title>
<path fill="none" stroke="#0d0d73" stroke-width="0.5" d="M409.762,-208.476C412.215,-205.283 414.664,-202.08 417,-199 423.972,-189.806 431.458,-179.783 438.322,-170.53"/>
<polygon fill="#0d0d73" stroke="#0d0d73" stroke-width="0.5" points="439.331,-171.226 440.432,-167.684 437.363,-169.767 439.331,-171.226"/>
<text text-anchor="middle" x="447" y="-191" font-family="Arial" font-size="10.00" fill="#0d0d73">0.00%</text>
<text text-anchor="middle" x="447" y="-180" font-family="Arial" font-size="10.00" fill="#0d0d73">1×</text>
</g>
<!-- _fxstat -->
<g id="node10" class="node"><title>_fxstat</title>
<polygon fill="#0d0d73" stroke="#0d0d73" points="342.25,-63.5 275.75,-63.5 275.75,-0.5 342.25,-0.5 342.25,-63.5"/>
<text text-anchor="middle" x="309" y="-51.5" font-family="Arial" font-size="10.00" fill="#ffffff">libc&#45;2.19.so</text>
<text text-anchor="middle" x="309" y="-40.5" font-family="Arial" font-size="10.00" fill="#ffffff">_fxstat</text>
<text text-anchor="middle" x="309" y="-29.5" font-family="Arial" font-size="10.00" fill="#ffffff">0.00%</text>
<text text-anchor="middle" x="309" y="-18.5" font-family="Arial" font-size="10.00" fill="#ffffff">(0.00%)</text>
<text text-anchor="middle" x="309" y="-7.5" font-family="Arial" font-size="10.00" fill="#ffffff">4×</text>
</g>
<!-- _IO_file_stat&#45;&gt;_fxstat -->
<g id="edge9" class="edge"><title>_IO_file_stat&#45;&gt;_fxstat</title>
<path fill="none" stroke="#0d0d73" stroke-width="0.5" d="M309,-104.397C309,-92.6971 309,-79.283 309,-67.2637"/>
<polygon fill="#0d0d73" stroke="#0d0d73" stroke-width="0.5" points="310.225,-67.0817 309,-63.5818 307.775,-67.0818 310.225,-67.0817"/>
<text text-anchor="middle" x="323" y="-87" font-family="Arial" font-size="10.00" fill="#0d0d73">0.00%</text>
<text text-anchor="middle" x="323" y="-76" font-family="Arial" font-size="10.00" fill="#0d0d73">1×</text>
</g>
<!-- __write_nocancel -->
<g id="node14" class="node"><title>__write_nocancel</title>
<polygon fill="#0d0d73" stroke="#0d0d73" points="266,-63.5 174,-63.5 174,-0.5 266,-0.5 266,-63.5"/>
<text text-anchor="middle" x="220" y="-51.5" font-family="Arial" font-size="10.00" fill="#ffffff">libc&#45;2.19.so</text>
<text text-anchor="middle" x="220" y="-40.5" font-family="Arial" font-size="10.00" fill="#ffffff">__write_nocancel</text>
<text text-anchor="middle" x="220" y="-29.5" font-family="Arial" font-size="10.00" fill="#ffffff">0.00%</text>
<text text-anchor="middle" x="220" y="-18.5" font-family="Arial" font-size="10.00" fill="#ffffff">(0.00%)</text>
<text text-anchor="middle" x="220" y="-7.5" font-family="Arial" font-size="10.00" fill="#ffffff">1×</text>
</g>
<!-- write&#45;&gt;__write_nocancel -->
<g id="edge32" class="edge"><title>write&#45;&gt;__write_nocancel</title>
<path fill="none" stroke="#0d0d73" stroke-width="0.5" d="M220,-104.397C220,-92.6971 220,-79.283 220,-67.2637"/>
<polygon fill="#0d0d73" stroke="#0d0d73" stroke-width="0.5" points="221.225,-67.0817 220,-63.5818 218.775,-67.0818 221.225,-67.0817"/>
<text text-anchor="middle" x="234" y="-87" font-family="Arial" font-size="10.00" fill="#0d0d73">0.00%</text>
<text text-anchor="middle" x="234" y="-76" font-family="Arial" font-size="10.00" fill="#0d0d73">1×</text>
</g>
<!-- _IO_file_xsputn@@GLIBC_2.2.5 -->
<g id="node12" class="node"><title>_IO_file_xsputn@@GLIBC_2.2.5</title>
<polygon fill="#0d0d73" stroke="#0d0d73" points="391.5,-687.5 234.5,-687.5 234.5,-624.5 391.5,-624.5 391.5,-687.5"/>
<text text-anchor="middle" x="313" y="-675.5" font-family="Arial" font-size="10.00" fill="#ffffff">libc&#45;2.19.so</text>
<text text-anchor="middle" x="313" y="-664.5" font-family="Arial" font-size="10.00" fill="#ffffff">_IO_file_xsputn@@GLIBC_2.2.5</text>
<text text-anchor="middle" x="313" y="-653.5" font-family="Arial" font-size="10.00" fill="#ffffff">0.00%</text>
<text text-anchor="middle" x="313" y="-642.5" font-family="Arial" font-size="10.00" fill="#ffffff">(0.00%)</text>
<text text-anchor="middle" x="313" y="-631.5" font-family="Arial" font-size="10.00" fill="#ffffff">215×</text>
</g>
<!-- _IO_file_xsputn@@GLIBC_2.2.5&#45;&gt;_IO_default_xsputn -->
<g id="edge11" class="edge"><title>_IO_file_xsputn@@GLIBC_2.2.5&#45;&gt;_IO_default_xsputn</title>
<path fill="none" stroke="#0d0d73" stroke-width="0.5" d="M284.773,-624.113C282.392,-621.103 280.096,-618.038 278,-615 272.017,-606.329 266.315,-596.45 261.384,-587.166"/>
<polygon fill="#0d0d73" stroke="#0d0d73" stroke-width="0.5" points="262.315,-586.304 259.603,-583.775 260.146,-587.443 262.315,-586.304"/>
<text text-anchor="middle" x="292" y="-607" font-family="Arial" font-size="10.00" fill="#0d0d73">0.00%</text>
<text text-anchor="middle" x="292" y="-596" font-family="Arial" font-size="10.00" fill="#0d0d73">1×</text>
</g>
<!-- _IO_file_xsputn@@GLIBC_2.2.5&#45;&gt;_IO_file_overflow@@GLIBC_2.2.5 -->
<g id="edge12" class="edge"><title>_IO_file_xsputn@@GLIBC_2.2.5&#45;&gt;_IO_file_overflow@@GLIBC_2.2.5</title>
<path fill="none" stroke="#0d0d73" stroke-width="0.5" d="M311.353,-624.16C309.338,-586.429 305.937,-522.738 303.839,-483.439"/>
<polygon fill="#0d0d73" stroke="#0d0d73" stroke-width="0.5" points="305.05,-483.144 303.64,-479.714 302.604,-483.275 305.05,-483.144"/>
<text text-anchor="middle" x="324" y="-555" font-family="Arial" font-size="10.00" fill="#0d0d73">0.00%</text>
<text text-anchor="middle" x="324" y="-544" font-family="Arial" font-size="10.00" fill="#0d0d73">1×</text>
</g>
<!-- __GI_mempcpy -->
<g id="node13" class="node"><title>__GI_mempcpy</title>
<polygon fill="#0d0d73" stroke="#0d0d73" points="435.25,-583.5 350.75,-583.5 350.75,-520.5 435.25,-520.5 435.25,-583.5"/>
<text text-anchor="middle" x="393" y="-571.5" font-family="Arial" font-size="10.00" fill="#ffffff">libc&#45;2.19.so</text>
<text text-anchor="middle" x="393" y="-560.5" font-family="Arial" font-size="10.00" fill="#ffffff">__GI_mempcpy</text>
<text text-anchor="middle" x="393" y="-549.5" font-family="Arial" font-size="10.00" fill="#ffffff">0.00%</text>
<text text-anchor="middle" x="393" y="-538.5" font-family="Arial" font-size="10.00" fill="#ffffff">(0.00%)</text>
<text text-anchor="middle" x="393" y="-527.5" font-family="Arial" font-size="10.00" fill="#ffffff">214×</text>
</g>
<!-- _IO_file_xsputn@@GLIBC_2.2.5&#45;&gt;__GI_mempcpy -->
<g id="edge13" class="edge"><title>_IO_file_xsputn@@GLIBC_2.2.5&#45;&gt;__GI_mempcpy</title>
<path fill="none" stroke="#0d0d73" stroke-width="0.5" d="M337.003,-624.397C346.337,-612.495 357.063,-598.82 366.613,-586.643"/>
<polygon fill="#0d0d73" stroke="#0d0d73" stroke-width="0.5" points="367.818,-587.092 369.014,-583.582 365.89,-585.58 367.818,-587.092"/>
<text text-anchor="middle" x="375" y="-607" font-family="Arial" font-size="10.00" fill="#0d0d73">0.00%</text>
<text text-anchor="middle" x="375" y="-596" font-family="Arial" font-size="10.00" fill="#0d0d73">214×</text>
</g>
<!-- _dl_fixup -->
<g id="node15" class="node"><title>_dl_fixup</title>
<polygon fill="#0d0d73" stroke="#0d0d73" points="181.25,-791.5 122.75,-791.5 122.75,-728.5 181.25,-728.5 181.25,-791.5"/>
<text text-anchor="middle" x="152" y="-779.5" font-family="Arial" font-size="10.00" fill="#ffffff">ld&#45;2.19.so</text>
<text text-anchor="middle" x="152" y="-768.5" font-family="Arial" font-size="10.00" fill="#ffffff">_dl_fixup</text>
<text text-anchor="middle" x="152" y="-757.5" font-family="Arial" font-size="10.00" fill="#ffffff">0.00%</text>
<text text-anchor="middle" x="152" y="-746.5" font-family="Arial" font-size="10.00" fill="#ffffff">(0.00%)</text>
<text text-anchor="middle" x="152" y="-735.5" font-family="Arial" font-size="10.00" fill="#ffffff">4×</text>
</g>
<!-- _dl_lookup_symbol_x -->
<g id="node16" class="node"><title>_dl_lookup_symbol_x</title>
<polygon fill="#0d0d73" stroke="#0d0d73" points="205,-687.5 95,-687.5 95,-624.5 205,-624.5 205,-687.5"/>
<text text-anchor="middle" x="150" y="-675.5" font-family="Arial" font-size="10.00" fill="#ffffff">ld&#45;2.19.so</text>
<text text-anchor="middle" x="150" y="-664.5" font-family="Arial" font-size="10.00" fill="#ffffff">_dl_lookup_symbol_x</text>
<text text-anchor="middle" x="150" y="-653.5" font-family="Arial" font-size="10.00" fill="#ffffff">0.00%</text>
<text text-anchor="middle" x="150" y="-642.5" font-family="Arial" font-size="10.00" fill="#ffffff">(0.00%)</text>
<text text-anchor="middle" x="150" y="-631.5" font-family="Arial" font-size="10.00" fill="#ffffff">90×</text>
</g>
<!-- _dl_fixup&#45;&gt;_dl_lookup_symbol_x -->
<g id="edge14" class="edge"><title>_dl_fixup&#45;&gt;_dl_lookup_symbol_x</title>
<path fill="none" stroke="#0d0d73" stroke-width="0.5" d="M151.4,-728.397C151.171,-716.697 150.908,-703.283 150.672,-691.264"/>
<polygon fill="#0d0d73" stroke="#0d0d73" stroke-width="0.5" points="151.893,-691.057 150.6,-687.582 149.444,-691.105 151.893,-691.057"/>
<text text-anchor="middle" x="166" y="-711" font-family="Arial" font-size="10.00" fill="#0d0d73">0.00%</text>
<text text-anchor="middle" x="166" y="-700" font-family="Arial" font-size="10.00" fill="#0d0d73">4×</text>
</g>
<!-- do_lookup_x -->
<g id="node17" class="node"><title>do_lookup_x</title>
<polygon fill="#0d0d73" stroke="#0d0d73" points="185.25,-583.5 114.75,-583.5 114.75,-520.5 185.25,-520.5 185.25,-583.5"/>
<text text-anchor="middle" x="150" y="-571.5" font-family="Arial" font-size="10.00" fill="#ffffff">ld&#45;2.19.so</text>
<text text-anchor="middle" x="150" y="-560.5" font-family="Arial" font-size="10.00" fill="#ffffff">do_lookup_x</text>
<text text-anchor="middle" x="150" y="-549.5" font-family="Arial" font-size="10.00" fill="#ffffff">0.00%</text>
<text text-anchor="middle" x="150" y="-538.5" font-family="Arial" font-size="10.00" fill="#ffffff">(0.00%)</text>
<text text-anchor="middle" x="150" y="-527.5" font-family="Arial" font-size="10.00" fill="#ffffff">90×</text>
</g>
<!-- _dl_lookup_symbol_x&#45;&gt;do_lookup_x -->
<g id="edge15" class="edge"><title>_dl_lookup_symbol_x&#45;&gt;do_lookup_x</title>
<path fill="none" stroke="#0d0d73" stroke-width="0.5" d="M150,-624.397C150,-612.697 150,-599.283 150,-587.264"/>
<polygon fill="#0d0d73" stroke="#0d0d73" stroke-width="0.5" points="151.225,-587.082 150,-583.582 148.775,-587.082 151.225,-587.082"/>
<text text-anchor="middle" x="164" y="-607" font-family="Arial" font-size="10.00" fill="#0d0d73">0.00%</text>
<text text-anchor="middle" x="164" y="-596" font-family="Arial" font-size="10.00" fill="#0d0d73">90×</text>
</g>
<!-- _dl_name_match_p -->
<g id="node18" class="node"><title>_dl_name_match_p</title>
<polygon fill="#0d0d73" stroke="#0d0d73" points="100.25,-479.5 -0.25,-479.5 -0.25,-416.5 100.25,-416.5 100.25,-479.5"/>
<text text-anchor="middle" x="50" y="-467.5" font-family="Arial" font-size="10.00" fill="#ffffff">ld&#45;2.19.so</text>
<text text-anchor="middle" x="50" y="-456.5" font-family="Arial" font-size="10.00" fill="#ffffff">_dl_name_match_p</text>
<text text-anchor="middle" x="50" y="-445.5" font-family="Arial" font-size="10.00" fill="#ffffff">0.00%</text>
<text text-anchor="middle" x="50" y="-434.5" font-family="Arial" font-size="10.00" fill="#ffffff">(0.00%)</text>
<text text-anchor="middle" x="50" y="-423.5" font-family="Arial" font-size="10.00" fill="#ffffff">33×</text>
</g>
<!-- do_lookup_x&#45;&gt;_dl_name_match_p -->
<g id="edge19" class="edge"><title>do_lookup_x&#45;&gt;_dl_name_match_p</title>
<path fill="none" stroke="#0d0d73" stroke-width="0.5" d="M119.997,-520.397C108.23,-508.395 94.6941,-494.588 82.6804,-482.334"/>
<polygon fill="#0d0d73" stroke="#0d0d73" stroke-width="0.5" points="83.3071,-481.223 79.9821,-479.582 81.5577,-482.939 83.3071,-481.223"/>
<text text-anchor="middle" x="123" y="-503" font-family="Arial" font-size="10.00" fill="#0d0d73">0.00%</text>
<text text-anchor="middle" x="123" y="-492" font-family="Arial" font-size="10.00" fill="#0d0d73">19×</text>
</g>
<!-- check_match.9458 -->
<g id="node22" class="node"><title>check_match.9458</title>
<polygon fill="#0d0d73" stroke="#0d0d73" points="208.25,-479.5 109.75,-479.5 109.75,-416.5 208.25,-416.5 208.25,-479.5"/>
<text text-anchor="middle" x="159" y="-467.5" font-family="Arial" font-size="10.00" fill="#ffffff">ld&#45;2.19.so</text>
<text text-anchor="middle" x="159" y="-456.5" font-family="Arial" font-size="10.00" fill="#ffffff">check_match.9458</text>
<text text-anchor="middle" x="159" y="-445.5" font-family="Arial" font-size="10.00" fill="#ffffff">0.00%</text>
<text text-anchor="middle" x="159" y="-434.5" font-family="Arial" font-size="10.00" fill="#ffffff">(0.00%)</text>
<text text-anchor="middle" x="159" y="-423.5" font-family="Arial" font-size="10.00" fill="#ffffff">84×</text>
</g>
<!-- do_lookup_x&#45;&gt;check_match.9458 -->
<g id="edge20" class="edge"><title>do_lookup_x&#45;&gt;check_match.9458</title>
<path fill="none" stroke="#0d0d73" stroke-width="0.5" d="M152.7,-520.397C153.733,-508.697 154.916,-495.283 155.977,-483.264"/>
<polygon fill="#0d0d73" stroke="#0d0d73" stroke-width="0.5" points="157.214,-483.176 156.302,-479.582 154.774,-482.961 157.214,-483.176"/>
<text text-anchor="middle" x="170" y="-503" font-family="Arial" font-size="10.00" fill="#0d0d73">0.00%</text>
<text text-anchor="middle" x="170" y="-492" font-family="Arial" font-size="10.00" fill="#0d0d73">84×</text>
</g>
<!-- strcmp -->
<g id="node19" class="node"><title>strcmp</title>
<polygon fill="#0d0d73" stroke="#0d0d73" points="92.25,-375.5 33.75,-375.5 33.75,-312.5 92.25,-312.5 92.25,-375.5"/>
<text text-anchor="middle" x="63" y="-363.5" font-family="Arial" font-size="10.00" fill="#ffffff">ld&#45;2.19.so</text>
<text text-anchor="middle" x="63" y="-352.5" font-family="Arial" font-size="10.00" fill="#ffffff">strcmp</text>
<text text-anchor="middle" x="63" y="-341.5" font-family="Arial" font-size="10.00" fill="#ffffff">0.00%</text>
<text text-anchor="middle" x="63" y="-330.5" font-family="Arial" font-size="10.00" fill="#ffffff">(0.00%)</text>
<text text-anchor="middle" x="63" y="-319.5" font-family="Arial" font-size="10.00" fill="#ffffff">173×</text>
</g>
<!-- _dl_name_match_p&#45;&gt;strcmp -->
<g id="edge16" class="edge"><title>_dl_name_match_p&#45;&gt;strcmp</title>
<path fill="none" stroke="#0d0d73" stroke-width="0.5" d="M53.9004,-416.397C55.3915,-404.697 57.1012,-391.283 58.6331,-379.264"/>
<polygon fill="#0d0d73" stroke="#0d0d73" stroke-width="0.5" points="59.8749,-379.209 59.1023,-375.582 57.4446,-378.899 59.8749,-379.209"/>
<text text-anchor="middle" x="72" y="-399" font-family="Arial" font-size="10.00" fill="#0d0d73">0.00%</text>
<text text-anchor="middle" x="72" y="-388" font-family="Arial" font-size="10.00" fill="#0d0d73">70×</text>
</g>
<!-- strcmp&#39;2 -->
<g id="node29" class="node"><title>strcmp&#39;2</title>
<polygon fill="#0d0d73" stroke="#0d0d73" points="92.25,-271.5 33.75,-271.5 33.75,-208.5 92.25,-208.5 92.25,-271.5"/>
<text text-anchor="middle" x="63" y="-259.5" font-family="Arial" font-size="10.00" fill="#ffffff">ld&#45;2.19.so</text>
<text text-anchor="middle" x="63" y="-248.5" font-family="Arial" font-size="10.00" fill="#ffffff">strcmp&#39;2</text>
<text text-anchor="middle" x="63" y="-237.5" font-family="Arial" font-size="10.00" fill="#ffffff">0.00%</text>
<text text-anchor="middle" x="63" y="-226.5" font-family="Arial" font-size="10.00" fill="#ffffff">(0.00%)</text>
<text text-anchor="middle" x="63" y="-215.5" font-family="Arial" font-size="10.00" fill="#ffffff">1164×</text>
</g>
<!-- strcmp&#45;&gt;strcmp&#39;2 -->
<g id="edge27" class="edge"><title>strcmp&#45;&gt;strcmp&#39;2</title>
<path fill="none" stroke="#0d0d73" stroke-width="0.5" d="M63,-312.397C63,-300.697 63,-287.283 63,-275.264"/>
<polygon fill="#0d0d73" stroke="#0d0d73" stroke-width="0.5" points="64.2251,-275.082 63,-271.582 61.7751,-275.082 64.2251,-275.082"/>
<text text-anchor="middle" x="77" y="-295" font-family="Arial" font-size="10.00" fill="#0d0d73">0.00%</text>
<text text-anchor="middle" x="77" y="-284" font-family="Arial" font-size="10.00" fill="#0d0d73">113×</text>
</g>
<!-- _dl_runtime_resolve -->
<g id="node20" class="node"><title>_dl_runtime_resolve</title>
<polygon fill="#0d0d73" stroke="#0d0d73" points="226.5,-895.5 125.5,-895.5 125.5,-832.5 226.5,-832.5 226.5,-895.5"/>
<text text-anchor="middle" x="176" y="-883.5" font-family="Arial" font-size="10.00" fill="#ffffff">ld&#45;2.19.so</text>
<text text-anchor="middle" x="176" y="-872.5" font-family="Arial" font-size="10.00" fill="#ffffff">_dl_runtime_resolve</text>
<text text-anchor="middle" x="176" y="-861.5" font-family="Arial" font-size="10.00" fill="#ffffff">0.00%</text>
<text text-anchor="middle" x="176" y="-850.5" font-family="Arial" font-size="10.00" fill="#ffffff">(0.00%)</text>
<text text-anchor="middle" x="176" y="-839.5" font-family="Arial" font-size="10.00" fill="#ffffff">4×</text>
</g>
<!-- _dl_runtime_resolve&#45;&gt;_dl_fixup -->
<g id="edge17" class="edge"><title>_dl_runtime_resolve&#45;&gt;_dl_fixup</title>
<path fill="none" stroke="#0d0d73" stroke-width="0.5" d="M168.799,-832.397C166.046,-820.697 162.89,-807.283 160.062,-795.264"/>
<polygon fill="#0d0d73" stroke="#0d0d73" stroke-width="0.5" points="161.19,-794.708 159.196,-791.582 158.805,-795.269 161.19,-794.708"/>
<text text-anchor="middle" x="181" y="-815" font-family="Arial" font-size="10.00" fill="#0d0d73">0.00%</text>
<text text-anchor="middle" x="181" y="-804" font-family="Arial" font-size="10.00" fill="#0d0d73">4×</text>
</g>
<!-- _itoa_word -->
<g id="node21" class="node"><title>_itoa_word</title>
<polygon fill="#0d0d73" stroke="#0d0d73" points="467.25,-687.5 400.75,-687.5 400.75,-624.5 467.25,-624.5 467.25,-687.5"/>
<text text-anchor="middle" x="434" y="-675.5" font-family="Arial" font-size="10.00" fill="#ffffff">libc&#45;2.19.so</text>
<text text-anchor="middle" x="434" y="-664.5" font-family="Arial" font-size="10.00" fill="#ffffff">_itoa_word</text>
<text text-anchor="middle" x="434" y="-653.5" font-family="Arial" font-size="10.00" fill="#ffffff">0.00%</text>
<text text-anchor="middle" x="434" y="-642.5" font-family="Arial" font-size="10.00" fill="#ffffff">(0.00%)</text>
<text text-anchor="middle" x="434" y="-631.5" font-family="Arial" font-size="10.00" fill="#ffffff">86×</text>
</g>
<!-- check_match.9458&#45;&gt;strcmp -->
<g id="edge18" class="edge"><title>check_match.9458&#45;&gt;strcmp</title>
<path fill="none" stroke="#0d0d73" stroke-width="0.5" d="M130.197,-416.397C118.901,-404.395 105.906,-390.588 94.3732,-378.334"/>
<polygon fill="#0d0d73" stroke="#0d0d73" stroke-width="0.5" points="95.0737,-377.291 91.7828,-375.582 93.2896,-378.97 95.0737,-377.291"/>
<text text-anchor="middle" x="134" y="-399" font-family="Arial" font-size="10.00" fill="#0d0d73">0.00%</text>
<text text-anchor="middle" x="134" y="-388" font-family="Arial" font-size="10.00" fill="#0d0d73">97×</text>
</g>
<!-- fibonacci -->
<g id="node23" class="node"><title>fibonacci</title>
<polygon fill="#ff0000" stroke="#ff0000" points="301.25,-895.5 246.75,-895.5 246.75,-832.5 301.25,-832.5 301.25,-895.5"/>
<text text-anchor="middle" x="274" y="-883.5" font-family="Arial" font-size="10.00" fill="#ffffff">fib</text>
<text text-anchor="middle" x="274" y="-872.5" font-family="Arial" font-size="10.00" fill="#ffffff">fibonacci</text>
<text text-anchor="middle" x="274" y="-861.5" font-family="Arial" font-size="10.00" fill="#ffffff">100.00%</text>
<text text-anchor="middle" x="274" y="-850.5" font-family="Arial" font-size="10.00" fill="#ffffff">(0.00%)</text>
<text text-anchor="middle" x="274" y="-839.5" font-family="Arial" font-size="10.00" fill="#ffffff">43×</text>
</g>
<!-- fibonacci&#39;2 -->
<g id="node24" class="node"><title>fibonacci&#39;2</title>
<polygon fill="#ff0000" stroke="#ff0000" points="311.25,-791.5 236.75,-791.5 236.75,-728.5 311.25,-728.5 311.25,-791.5"/>
<text text-anchor="middle" x="274" y="-779.5" font-family="Arial" font-size="10.00" fill="#ffffff">fib</text>
<text text-anchor="middle" x="274" y="-768.5" font-family="Arial" font-size="10.00" fill="#ffffff">fibonacci&#39;2</text>
<text text-anchor="middle" x="274" y="-757.5" font-family="Arial" font-size="10.00" fill="#ffffff">100.00%</text>
<text text-anchor="middle" x="274" y="-746.5" font-family="Arial" font-size="10.00" fill="#ffffff">(100.00%)</text>
<text text-anchor="middle" x="274" y="-735.5" font-family="Arial" font-size="10.00" fill="#ffffff">2269806252×</text>
</g>
<!-- fibonacci&#45;&gt;fibonacci&#39;2 -->
<g id="edge21" class="edge"><title>fibonacci&#45;&gt;fibonacci&#39;2</title>
<path fill="none" stroke="#ff0000" stroke-width="4" d="M274,-832.397C274,-822.714 274,-811.858 274,-801.589"/>
<polygon fill="#ff0000" stroke="#ff0000" stroke-width="4" points="277.5,-801.582 274,-791.582 270.5,-801.582 277.5,-801.582"/>
<text text-anchor="middle" x="293.5" y="-815" font-family="Arial" font-size="10.00" fill="#ff0000">100.00%</text>
<text text-anchor="middle" x="293.5" y="-804" font-family="Arial" font-size="10.00" fill="#ff0000">82×</text>
</g>
<!-- fibonacci&#39;2&#45;&gt;fibonacci&#39;2 -->
<g id="edge22" class="edge"><title>fibonacci&#39;2&#45;&gt;fibonacci&#39;2</title>
<path fill="none" stroke="#ff0000" stroke-width="4" d="M311.361,-768.7C316.539,-767.267 320,-764.367 320,-760 320,-759.045 319.834,-758.16 319.521,-757.345"/>
<polygon fill="#ff0000" stroke="#ff0000" stroke-width="4" points="321.48,-754.44 311.361,-751.3 317.313,-760.065 321.48,-754.44"/>
<text text-anchor="middle" x="349.5" y="-757.5" font-family="Arial" font-size="10.00" fill="#ff0000">2269806170×</text>
</g>
<!-- main -->
<g id="node25" class="node"><title>main</title>
<polygon fill="#ff0000" stroke="#ff0000" points="301.25,-999.5 246.75,-999.5 246.75,-936.5 301.25,-936.5 301.25,-999.5"/>
<text text-anchor="middle" x="274" y="-987.5" font-family="Arial" font-size="10.00" fill="#ffffff">fib</text>
<text text-anchor="middle" x="274" y="-976.5" font-family="Arial" font-size="10.00" fill="#ffffff">main</text>
<text text-anchor="middle" x="274" y="-965.5" font-family="Arial" font-size="10.00" fill="#ffffff">100.00%</text>
<text text-anchor="middle" x="274" y="-954.5" font-family="Arial" font-size="10.00" fill="#ffffff">(0.00%)</text>
<text text-anchor="middle" x="274" y="-943.5" font-family="Arial" font-size="10.00" fill="#ffffff">1×</text>
</g>
<!-- main&#45;&gt;_dl_runtime_resolve -->
<g id="edge23" class="edge"><title>main&#45;&gt;_dl_runtime_resolve</title>
<path fill="none" stroke="#0d0d73" stroke-width="0.5" d="M246.702,-938.587C234.702,-926.098 220.526,-911.344 208.03,-898.338"/>
<polygon fill="#0d0d73" stroke="#0d0d73" stroke-width="0.5" points="208.863,-897.436 205.555,-895.761 207.096,-899.134 208.863,-897.436"/>
<text text-anchor="middle" x="248" y="-919" font-family="Arial" font-size="10.00" fill="#0d0d73">0.00%</text>
<text text-anchor="middle" x="248" y="-908" font-family="Arial" font-size="10.00" fill="#0d0d73">1×</text>
</g>
<!-- main&#45;&gt;fibonacci -->
<g id="edge24" class="edge"><title>main&#45;&gt;fibonacci</title>
<path fill="none" stroke="#ff0000" stroke-width="4" d="M274,-936.397C274,-926.714 274,-915.858 274,-905.589"/>
<polygon fill="#ff0000" stroke="#ff0000" stroke-width="4" points="277.5,-905.582 274,-895.582 270.5,-905.582 277.5,-905.582"/>
<text text-anchor="middle" x="293.5" y="-919" font-family="Arial" font-size="10.00" fill="#ff0000">100.00%</text>
<text text-anchor="middle" x="293.5" y="-908" font-family="Arial" font-size="10.00" fill="#ff0000">43×</text>
</g>
<!-- printf -->
<g id="node26" class="node"><title>printf</title>
<polygon fill="#0d0d73" stroke="#0d0d73" points="399.25,-895.5 332.75,-895.5 332.75,-832.5 399.25,-832.5 399.25,-895.5"/>
<text text-anchor="middle" x="366" y="-883.5" font-family="Arial" font-size="10.00" fill="#ffffff">libc&#45;2.19.so</text>
<text text-anchor="middle" x="366" y="-872.5" font-family="Arial" font-size="10.00" fill="#ffffff">printf</text>
<text text-anchor="middle" x="366" y="-861.5" font-family="Arial" font-size="10.00" fill="#ffffff">0.00%</text>
<text text-anchor="middle" x="366" y="-850.5" font-family="Arial" font-size="10.00" fill="#ffffff">(0.00%)</text>
<text text-anchor="middle" x="366" y="-839.5" font-family="Arial" font-size="10.00" fill="#ffffff">43×</text>
</g>
<!-- main&#45;&gt;printf -->
<g id="edge25" class="edge"><title>main&#45;&gt;printf</title>
<path fill="none" stroke="#0d0d73" stroke-width="0.5" d="M301.328,-941.159C305.979,-936.53 310.694,-931.687 315,-927 323.289,-917.977 331.899,-907.841 339.632,-898.419"/>
<polygon fill="#0d0d73" stroke="#0d0d73" stroke-width="0.5" points="340.735,-899.005 342.002,-895.52 338.839,-897.454 340.735,-899.005"/>
<text text-anchor="middle" x="348" y="-919" font-family="Arial" font-size="10.00" fill="#0d0d73">0.00%</text>
<text text-anchor="middle" x="348" y="-908" font-family="Arial" font-size="10.00" fill="#0d0d73">43×</text>
</g>
<!-- vfprintf -->
<g id="node27" class="node"><title>vfprintf</title>
<polygon fill="#0d0d73" stroke="#0d0d73" points="466.25,-791.5 399.75,-791.5 399.75,-728.5 466.25,-728.5 466.25,-791.5"/>
<text text-anchor="middle" x="433" y="-779.5" font-family="Arial" font-size="10.00" fill="#ffffff">libc&#45;2.19.so</text>
<text text-anchor="middle" x="433" y="-768.5" font-family="Arial" font-size="10.00" fill="#ffffff">vfprintf</text>
<text text-anchor="middle" x="433" y="-757.5" font-family="Arial" font-size="10.00" fill="#ffffff">0.00%</text>
<text text-anchor="middle" x="433" y="-746.5" font-family="Arial" font-size="10.00" fill="#ffffff">(0.00%)</text>
<text text-anchor="middle" x="433" y="-735.5" font-family="Arial" font-size="10.00" fill="#ffffff">43×</text>
</g>
<!-- printf&#45;&gt;vfprintf -->
<g id="edge26" class="edge"><title>printf&#45;&gt;vfprintf</title>
<path fill="none" stroke="#0d0d73" stroke-width="0.5" d="M386.102,-832.397C393.92,-820.495 402.903,-806.82 410.901,-794.643"/>
<polygon fill="#0d0d73" stroke="#0d0d73" stroke-width="0.5" points="412.014,-795.18 412.912,-791.582 409.967,-793.835 412.014,-795.18"/>
<text text-anchor="middle" x="420" y="-815" font-family="Arial" font-size="10.00" fill="#0d0d73">0.00%</text>
<text text-anchor="middle" x="420" y="-804" font-family="Arial" font-size="10.00" fill="#0d0d73">43×</text>
</g>
<!-- vfprintf&#45;&gt;_IO_file_xsputn@@GLIBC_2.2.5 -->
<g id="edge29" class="edge"><title>vfprintf&#45;&gt;_IO_file_xsputn@@GLIBC_2.2.5</title>
<path fill="none" stroke="#0d0d73" stroke-width="0.5" d="M399.573,-730.587C384.88,-718.098 367.522,-703.344 352.221,-690.338"/>
<polygon fill="#0d0d73" stroke="#0d0d73" stroke-width="0.5" points="352.65,-689.095 349.19,-687.761 351.063,-690.961 352.65,-689.095"/>
<text text-anchor="middle" x="398" y="-711" font-family="Arial" font-size="10.00" fill="#0d0d73">0.00%</text>
<text text-anchor="middle" x="398" y="-700" font-family="Arial" font-size="10.00" fill="#0d0d73">215×</text>
</g>
<!-- vfprintf&#45;&gt;_itoa_word -->
<g id="edge30" class="edge"><title>vfprintf&#45;&gt;_itoa_word</title>
<path fill="none" stroke="#0d0d73" stroke-width="0.5" d="M433.3,-728.397C433.415,-716.697 433.546,-703.283 433.664,-691.264"/>
<polygon fill="#0d0d73" stroke="#0d0d73" stroke-width="0.5" points="434.891,-691.094 433.7,-687.582 432.441,-691.07 434.891,-691.094"/>
<text text-anchor="middle" x="448" y="-711" font-family="Arial" font-size="10.00" fill="#0d0d73">0.00%</text>
<text text-anchor="middle" x="448" y="-700" font-family="Arial" font-size="10.00" fill="#0d0d73">86×</text>
</g>
<!-- strchrnul -->
<g id="node28" class="node"><title>strchrnul</title>
<polygon fill="#0d0d73" stroke="#0d0d73" points="543.25,-687.5 476.75,-687.5 476.75,-624.5 543.25,-624.5 543.25,-687.5"/>
<text text-anchor="middle" x="510" y="-675.5" font-family="Arial" font-size="10.00" fill="#ffffff">libc&#45;2.19.so</text>
<text text-anchor="middle" x="510" y="-664.5" font-family="Arial" font-size="10.00" fill="#ffffff">strchrnul</text>
<text text-anchor="middle" x="510" y="-653.5" font-family="Arial" font-size="10.00" fill="#ffffff">0.00%</text>
<text text-anchor="middle" x="510" y="-642.5" font-family="Arial" font-size="10.00" fill="#ffffff">(0.00%)</text>
<text text-anchor="middle" x="510" y="-631.5" font-family="Arial" font-size="10.00" fill="#ffffff">129×</text>
</g>
<!-- vfprintf&#45;&gt;strchrnul -->
<g id="edge31" class="edge"><title>vfprintf&#45;&gt;strchrnul</title>
<path fill="none" stroke="#0d0d73" stroke-width="0.5" d="M456.762,-728.476C459.215,-725.283 461.664,-722.08 464,-719 470.972,-709.806 478.458,-699.783 485.322,-690.53"/>
<polygon fill="#0d0d73" stroke="#0d0d73" stroke-width="0.5" points="486.331,-691.226 487.432,-687.684 484.363,-689.767 486.331,-691.226"/>
<text text-anchor="middle" x="494" y="-711" font-family="Arial" font-size="10.00" fill="#0d0d73">0.00%</text>
<text text-anchor="middle" x="494" y="-700" font-family="Arial" font-size="10.00" fill="#0d0d73">129×</text>
</g>
<!-- strcmp&#39;2&#45;&gt;strcmp&#39;2 -->
<g id="edge28" class="edge"><title>strcmp&#39;2&#45;&gt;strcmp&#39;2</title>
<path fill="none" stroke="#0d0d73" stroke-width="0.5" d="M92.3164,-249.141C97.4375,-247.922 101,-244.875 101,-240 101,-236.344 98.9961,-233.716 95.8337,-232.116"/>
<polygon fill="#0d0d73" stroke="#0d0d73" stroke-width="0.5" points="96.0245,-230.884 92.3164,-230.859 95.2001,-233.191 96.0245,-230.884"/>
<text text-anchor="middle" x="115" y="-237.5" font-family="Arial" font-size="10.00" fill="#0d0d73">1051×</text>
</g>
</g>
</svg>
