<?xml version="1.0" encoding="UTF-8" standalone="no"?>
<!DOCTYPE svg PUBLIC "-//W3C//DTD SVG 1.1//EN"
 "http://www.w3.org/Graphics/SVG/1.1/DTD/svg11.dtd">
<!-- Generated by graphviz version 2.36.0 (20140111.2315)
 -->
<!-- Title: G Pages: 1 -->
<svg width="504pt" height="1054pt"
 viewBox="0.00 0.00 504.00 1054.00" xmlns="http://www.w3.org/2000/svg" xmlns:xlink="http://www.w3.org/1999/xlink">
<g id="graph0" class="graph" transform="scale(1 1) rotate(0) translate(4 1050)">
<title>G</title>
<polygon fill="white" stroke="none" points="-4,4 -4,-1050 500,-1050 500,4 -4,4"/>
<!-- main -->
<g id="node1" class="node"><title>main</title>
<polygon fill="Wheat" stroke="black" points="54,-641 0,-641 0,-605 54,-605 54,-641"/>
<text text-anchor="middle" x="27" y="-619.2" font-family="Times,serif" font-size="16.00" fill="blue">main</text>
</g>
<!-- rd_init -->
<g id="node2" class="node"><title>rd_init</title>
<polygon fill="Wheat" stroke="black" points="196,-1046 136,-1046 136,-1010 196,-1010 196,-1046"/>
<text text-anchor="middle" x="166" y="-1024.2" font-family="Times,serif" font-size="16.00" fill="blue">rd_init</text>
</g>
<!-- main&#45;&gt;rd_init -->
<g id="edge1" class="edge"><title>main&#45;&gt;rd_init</title>
<path fill="none" stroke="black" d="M28.6103,-641.361C31.2209,-709.268 43.5349,-945.148 90,-1001 99.0276,-1011.85 112.768,-1018.34 126.032,-1022.22"/>
<polygon fill="black" stroke="black" points="125.446,-1025.69 135.997,-1024.71 127.143,-1018.89 125.446,-1025.69"/>
</g>
<!-- mem_init -->
<g id="node3" class="node"><title>mem_init</title>
<polygon fill="Wheat" stroke="black" points="205.5,-992 126.5,-992 126.5,-956 205.5,-956 205.5,-992"/>
<text text-anchor="middle" x="166" y="-970.2" font-family="Times,serif" font-size="16.00" fill="blue">mem_init</text>
</g>
<!-- main&#45;&gt;mem_init -->
<g id="edge2" class="edge"><title>main&#45;&gt;mem_init</title>
<path fill="none" stroke="black" d="M29.1541,-641.239C33.3804,-702.563 49.9092,-900.088 90,-947 96.9496,-955.132 106.54,-960.815 116.543,-964.786"/>
<polygon fill="black" stroke="black" points="115.593,-968.16 126.187,-968.093 117.863,-961.539 115.593,-968.16"/>
</g>
<!-- trap_init -->
<g id="node4" class="node"><title>trap_init</title>
<polygon fill="Wheat" stroke="black" points="201.5,-938 130.5,-938 130.5,-902 201.5,-902 201.5,-938"/>
<text text-anchor="middle" x="166" y="-916.2" font-family="Times,serif" font-size="16.00" fill="blue">trap_init</text>
</g>
<!-- main&#45;&gt;trap_init -->
<g id="edge3" class="edge"><title>main&#45;&gt;trap_init</title>
<path fill="none" stroke="black" d="M29.9099,-641.189C35.9494,-695.479 56.2544,-854.947 90,-893 97.9539,-901.969 109.112,-907.96 120.396,-911.961"/>
<polygon fill="black" stroke="black" points="119.68,-915.402 130.267,-914.99 121.734,-908.71 119.68,-915.402"/>
</g>
<!-- blk_dev_init -->
<g id="node5" class="node"><title>blk_dev_init</title>
<polygon fill="Wheat" stroke="black" points="215.5,-884 116.5,-884 116.5,-848 215.5,-848 215.5,-884"/>
<text text-anchor="middle" x="166" y="-862.2" font-family="Times,serif" font-size="16.00" fill="blue">blk_dev_init</text>
</g>
<!-- main&#45;&gt;blk_dev_init -->
<g id="edge4" class="edge"><title>main&#45;&gt;blk_dev_init</title>
<path fill="none" stroke="black" d="M27.9412,-641.002C28.7904,-681.742 36.5436,-781.892 90,-839 94.7655,-844.091 100.561,-848.224 106.796,-851.579"/>
<polygon fill="black" stroke="black" points="105.635,-854.9 116.177,-855.958 108.596,-848.557 105.635,-854.9"/>
</g>
<!-- chr_dev_init -->
<g id="node6" class="node"><title>chr_dev_init</title>
<polygon fill="Wheat" stroke="black" points="215,-830 117,-830 117,-794 215,-794 215,-830"/>
<text text-anchor="middle" x="166" y="-808.2" font-family="Times,serif" font-size="16.00" fill="blue">chr_dev_init</text>
</g>
<!-- main&#45;&gt;chr_dev_init -->
<g id="edge5" class="edge"><title>main&#45;&gt;chr_dev_init</title>
<path fill="none" stroke="black" d="M30.0171,-641.241C34.6286,-674.375 48.9244,-744.736 90,-785 94.98,-789.882 100.905,-793.887 107.211,-797.173"/>
<polygon fill="black" stroke="black" points="106.106,-800.516 116.656,-801.49 109.016,-794.15 106.106,-800.516"/>
</g>
<!-- tty_init -->
<g id="node7" class="node"><title>tty_init</title>
<polygon fill="Wheat" stroke="black" points="198,-776 134,-776 134,-740 198,-740 198,-776"/>
<text text-anchor="middle" x="166" y="-754.2" font-family="Times,serif" font-size="16.00" fill="blue">tty_init</text>
</g>
<!-- main&#45;&gt;tty_init -->
<g id="edge6" class="edge"><title>main&#45;&gt;tty_init</title>
<path fill="none" stroke="black" d="M33.9845,-641.295C42.6783,-665.151 61.004,-706.695 90,-731 99.6944,-739.126 112.028,-744.891 123.879,-748.946"/>
<polygon fill="black" stroke="black" points="123.065,-752.357 133.653,-751.963 125.13,-745.669 123.065,-752.357"/>
</g>
<!-- time_init  -->
<g id="node8" class="node"><title>time_init </title>
<polygon fill="Wheat" stroke="black" points="205.5,-722 126.5,-722 126.5,-686 205.5,-686 205.5,-722"/>
<text text-anchor="middle" x="166" y="-700.2" font-family="Times,serif" font-size="16.00" fill="blue">time_init </text>
</g>
<!-- main&#45;&gt;time_init  -->
<g id="edge7" class="edge"><title>main&#45;&gt;time_init </title>
<path fill="none" stroke="black" d="M45.3232,-641.247C57.0508,-652.758 73.3838,-667.241 90,-677 98.3251,-681.89 107.683,-686.119 116.892,-689.686"/>
<polygon fill="black" stroke="black" points="115.792,-693.01 126.386,-693.162 118.199,-686.437 115.792,-693.01"/>
</g>
<!-- sched_init -->
<g id="node12" class="node"><title>sched_init</title>
<polygon fill="Wheat" stroke="black" points="207.5,-668 124.5,-668 124.5,-632 207.5,-632 207.5,-668"/>
<text text-anchor="middle" x="166" y="-646.2" font-family="Times,serif" font-size="16.00" fill="blue">sched_init</text>
</g>
<!-- main&#45;&gt;sched_init -->
<g id="edge11" class="edge"><title>main&#45;&gt;sched_init</title>
<path fill="none" stroke="black" d="M54.0911,-628.142C71.1709,-631.508 94.05,-636.017 114.591,-640.065"/>
<polygon fill="black" stroke="black" points="113.963,-643.509 124.452,-642.009 115.317,-636.641 113.963,-643.509"/>
</g>
<!-- buffer_init -->
<g id="node13" class="node"><title>buffer_init</title>
<polygon fill="Wheat" stroke="black" points="209,-614 123,-614 123,-578 209,-578 209,-614"/>
<text text-anchor="middle" x="166" y="-592.2" font-family="Times,serif" font-size="16.00" fill="blue">buffer_init</text>
</g>
<!-- main&#45;&gt;buffer_init -->
<g id="edge12" class="edge"><title>main&#45;&gt;buffer_init</title>
<path fill="none" stroke="black" d="M54.0911,-617.858C70.6948,-614.586 92.7789,-610.233 112.868,-606.274"/>
<polygon fill="black" stroke="black" points="113.709,-609.676 122.843,-604.308 112.355,-602.808 113.709,-609.676"/>
</g>
<!-- hd_init -->
<g id="node14" class="node"><title>hd_init</title>
<polygon fill="Wheat" stroke="black" points="197.5,-560 134.5,-560 134.5,-524 197.5,-524 197.5,-560"/>
<text text-anchor="middle" x="166" y="-538.2" font-family="Times,serif" font-size="16.00" fill="blue">hd_init</text>
</g>
<!-- main&#45;&gt;hd_init -->
<g id="edge13" class="edge"><title>main&#45;&gt;hd_init</title>
<path fill="none" stroke="black" d="M45.3232,-604.753C57.0508,-593.242 73.3838,-578.759 90,-569 100.721,-562.703 113.154,-557.501 124.778,-553.4"/>
<polygon fill="black" stroke="black" points="125.924,-556.707 134.296,-550.214 123.702,-550.069 125.924,-556.707"/>
</g>
<!-- floppy_init -->
<g id="node15" class="node"><title>floppy_init</title>
<polygon fill="Wheat" stroke="black" points="210.5,-506 121.5,-506 121.5,-470 210.5,-470 210.5,-506"/>
<text text-anchor="middle" x="166" y="-484.2" font-family="Times,serif" font-size="16.00" fill="blue">floppy_init</text>
</g>
<!-- main&#45;&gt;floppy_init -->
<g id="edge14" class="edge"><title>main&#45;&gt;floppy_init</title>
<path fill="none" stroke="black" d="M33.9845,-604.705C42.6783,-580.849 61.004,-539.305 90,-515 96.4795,-509.569 104.138,-505.192 112.043,-501.676"/>
<polygon fill="black" stroke="black" points="113.402,-504.902 121.381,-497.932 110.797,-498.405 113.402,-504.902"/>
</g>
<!-- sti -->
<g id="node16" class="node"><title>sti</title>
<polygon fill="Wheat" stroke="black" points="193,-452 139,-452 139,-416 193,-416 193,-452"/>
<text text-anchor="middle" x="166" y="-430.2" font-family="Times,serif" font-size="16.00" fill="blue">sti</text>
</g>
<!-- main&#45;&gt;sti -->
<g id="edge15" class="edge"><title>main&#45;&gt;sti</title>
<path fill="none" stroke="black" d="M30.0171,-604.759C34.6286,-571.625 48.9244,-501.264 90,-461 100.474,-450.733 115.13,-444.339 128.711,-440.372"/>
<polygon fill="black" stroke="black" points="129.981,-443.659 138.799,-437.786 128.243,-436.878 129.981,-443.659"/>
</g>
<!-- move_to_user_mode -->
<g id="node17" class="node"><title>move_to_user_mode</title>
<polygon fill="Wheat" stroke="black" points="242,-398 90,-398 90,-362 242,-362 242,-398"/>
<text text-anchor="middle" x="166" y="-376.2" font-family="Times,serif" font-size="16.00" fill="blue">move_to_user_mode</text>
</g>
<!-- main&#45;&gt;move_to_user_mode -->
<g id="edge16" class="edge"><title>main&#45;&gt;move_to_user_mode</title>
<path fill="none" stroke="black" d="M27.9412,-604.998C28.7904,-564.258 36.5436,-464.108 90,-407 90.7802,-406.166 91.588,-405.359 92.4209,-404.576"/>
<polygon fill="black" stroke="black" points="94.8419,-407.124 100.522,-398.18 90.5043,-401.629 94.8419,-407.124"/>
</g>
<!-- fork -->
<g id="node18" class="node"><title>fork</title>
<polygon fill="Wheat" stroke="black" points="362,-522 308,-522 308,-486 362,-486 362,-522"/>
<text text-anchor="middle" x="335" y="-500.2" font-family="Times,serif" font-size="16.00" fill="blue">fork</text>
</g>
<!-- main&#45;&gt;fork -->
<g id="edge17" class="edge"><title>main&#45;&gt;fork</title>
<path fill="none" stroke="black" d="M29.3308,-604.628C33.7725,-549.081 50.1208,-384.76 90,-353 142.845,-310.915 187.981,-312.433 242,-353 287.888,-387.46 240.941,-433.184 278,-477 283.5,-483.503 290.931,-488.563 298.579,-492.451"/>
<polygon fill="black" stroke="black" points="297.344,-495.733 307.901,-496.63 300.208,-489.345 297.344,-495.733"/>
</g>
<!-- init  -->
<g id="node19" class="node"><title>init </title>
<polygon fill="Wheat" stroke="black" points="193,-306 139,-306 139,-270 193,-270 193,-306"/>
<text text-anchor="middle" x="166" y="-284.2" font-family="Times,serif" font-size="16.00" fill="blue">init </text>
</g>
<!-- main&#45;&gt;init  -->
<g id="edge18" class="edge"><title>main&#45;&gt;init </title>
<path fill="none" stroke="black" d="M29.5249,-604.803C34.7527,-546.337 53.6657,-364.504 90,-320 99.7257,-308.087 114.703,-300.523 128.723,-295.761"/>
<polygon fill="black" stroke="black" points="130.106,-299 138.674,-292.767 128.089,-292.297 130.106,-299"/>
</g>
<!-- pause  -->
<g id="node33" class="node"><title>pause </title>
<polygon fill="Wheat" stroke="black" points="194,-252 138,-252 138,-216 194,-216 194,-252"/>
<text text-anchor="middle" x="166" y="-230.2" font-family="Times,serif" font-size="16.00" fill="blue">pause </text>
</g>
<!-- main&#45;&gt;pause  -->
<g id="edge33" class="edge"><title>main&#45;&gt;pause </title>
<path fill="none" stroke="black" d="M28.7421,-604.961C31.7885,-539.323 45.3629,-314.272 90,-261 99.5123,-249.648 114.179,-243.068 128.028,-239.255"/>
<polygon fill="black" stroke="black" points="128.949,-242.634 137.883,-236.939 127.347,-235.82 128.949,-242.634"/>
</g>
<!-- CMOS_READ -->
<g id="node9" class="node"><title>CMOS_READ</title>
<polygon fill="Wheat" stroke="black" points="391.5,-776 278.5,-776 278.5,-740 391.5,-740 391.5,-776"/>
<text text-anchor="middle" x="335" y="-754.2" font-family="Times,serif" font-size="16.00" fill="blue">CMOS_READ</text>
</g>
<!-- time_init &#45;&gt;CMOS_READ -->
<g id="edge8" class="edge"><title>time_init &#45;&gt;CMOS_READ</title>
<path fill="none" stroke="black" d="M205.733,-716.524C224.45,-722.577 247.427,-730.006 268.738,-736.897"/>
<polygon fill="black" stroke="black" points="267.8,-740.272 278.391,-740.019 269.953,-733.612 267.8,-740.272"/>
</g>
<!-- BCD_TO_BIN -->
<g id="node10" class="node"><title>BCD_TO_BIN</title>
<polygon fill="Wheat" stroke="black" points="391.5,-722 278.5,-722 278.5,-686 391.5,-686 391.5,-722"/>
<text text-anchor="middle" x="335" y="-700.2" font-family="Times,serif" font-size="16.00" fill="blue">BCD_TO_BIN</text>
</g>
<!-- time_init &#45;&gt;BCD_TO_BIN -->
<g id="edge9" class="edge"><title>time_init &#45;&gt;BCD_TO_BIN</title>
<path fill="none" stroke="black" d="M205.733,-704C224.281,-704 247.014,-704 268.162,-704"/>
<polygon fill="black" stroke="black" points="268.391,-707.5 278.391,-704 268.391,-700.5 268.391,-707.5"/>
</g>
<!-- kernel_mktime -->
<g id="node11" class="node"><title>kernel_mktime</title>
<polygon fill="Wheat" stroke="black" points="392,-668 278,-668 278,-632 392,-632 392,-668"/>
<text text-anchor="middle" x="335" y="-646.2" font-family="Times,serif" font-size="16.00" fill="blue">kernel_mktime</text>
</g>
<!-- time_init &#45;&gt;kernel_mktime -->
<g id="edge10" class="edge"><title>time_init &#45;&gt;kernel_mktime</title>
<path fill="none" stroke="black" d="M205.733,-691.476C224.366,-685.45 247.222,-678.06 268.453,-671.195"/>
<polygon fill="black" stroke="black" points="269.634,-674.491 278.072,-668.084 267.48,-667.831 269.634,-674.491"/>
</g>
<!-- init &#45;&gt;fork -->
<g id="edge27" class="edge"><title>init &#45;&gt;fork</title>
<path fill="none" stroke="black" d="M193.21,-292.863C209.554,-297.242 229.74,-305.339 242,-320 287.925,-374.917 233.35,-421.042 278,-477 283.419,-483.792 290.967,-488.982 298.77,-492.906"/>
<polygon fill="black" stroke="black" points="297.372,-496.115 307.934,-496.951 300.199,-489.711 297.372,-496.115"/>
</g>
<!-- setup -->
<g id="node20" class="node"><title>setup</title>
<polygon fill="Wheat" stroke="black" points="362,-468 308,-468 308,-432 362,-432 362,-468"/>
<text text-anchor="middle" x="335" y="-446.2" font-family="Times,serif" font-size="16.00" fill="blue">setup</text>
</g>
<!-- init &#45;&gt;setup -->
<g id="edge19" class="edge"><title>init &#45;&gt;setup</title>
<path fill="none" stroke="black" d="M193.037,-293.436C209.102,-298.026 229.043,-306.144 242,-320 275.122,-355.42 245.701,-386.828 278,-423 283.622,-429.296 291.035,-434.265 298.62,-438.13"/>
<polygon fill="black" stroke="black" points="297.296,-441.373 307.849,-442.312 300.185,-434.997 297.296,-441.373"/>
</g>
<!-- open -->
<g id="node21" class="node"><title>open</title>
<polygon fill="Wheat" stroke="black" points="362,-414 308,-414 308,-378 362,-378 362,-414"/>
<text text-anchor="middle" x="335" y="-392.2" font-family="Times,serif" font-size="16.00" fill="blue">open</text>
</g>
<!-- init &#45;&gt;open -->
<g id="edge20" class="edge"><title>init &#45;&gt;open</title>
<path fill="none" stroke="black" d="M193.14,-295.317C208.462,-300.495 227.578,-308.569 242,-320 263.178,-336.786 257.214,-351.732 278,-369 284.188,-374.14 291.519,-378.576 298.804,-382.282"/>
<polygon fill="black" stroke="black" points="297.379,-385.48 307.916,-386.584 300.367,-379.15 297.379,-385.48"/>
</g>
<!-- dup -->
<g id="node22" class="node"><title>dup</title>
<polygon fill="Wheat" stroke="black" points="362,-360 308,-360 308,-324 362,-324 362,-360"/>
<text text-anchor="middle" x="335" y="-338.2" font-family="Times,serif" font-size="16.00" fill="blue">dup</text>
</g>
<!-- init &#45;&gt;dup -->
<g id="edge21" class="edge"><title>init &#45;&gt;dup</title>
<path fill="none" stroke="black" d="M193.094,-296.438C221.321,-305.565 266.512,-320.177 298.082,-330.386"/>
<polygon fill="black" stroke="black" points="297.223,-333.786 307.814,-333.533 299.376,-327.126 297.223,-333.786"/>
</g>
<!-- printf  -->
<g id="node23" class="node"><title>printf </title>
<polygon fill="Wheat" stroke="black" points="363,-306 307,-306 307,-270 363,-270 363,-306"/>
<text text-anchor="middle" x="335" y="-284.2" font-family="Times,serif" font-size="16.00" fill="blue">printf </text>
</g>
<!-- init &#45;&gt;printf  -->
<g id="edge22" class="edge"><title>init &#45;&gt;printf </title>
<path fill="none" stroke="black" d="M193.094,-288C220.951,-288 265.332,-288 296.835,-288"/>
<polygon fill="black" stroke="black" points="296.983,-291.5 306.983,-288 296.983,-284.5 296.983,-291.5"/>
</g>
<!-- close -->
<g id="node28" class="node"><title>close</title>
<polygon fill="Wheat" stroke="black" points="362,-252 308,-252 308,-216 362,-216 362,-252"/>
<text text-anchor="middle" x="335" y="-230.2" font-family="Times,serif" font-size="16.00" fill="blue">close</text>
</g>
<!-- init &#45;&gt;close -->
<g id="edge28" class="edge"><title>init &#45;&gt;close</title>
<path fill="none" stroke="black" d="M193.094,-279.562C221.321,-270.435 266.512,-255.823 298.082,-245.614"/>
<polygon fill="black" stroke="black" points="299.376,-248.874 307.814,-242.467 297.223,-242.214 299.376,-248.874"/>
</g>
<!-- execve -->
<g id="node29" class="node"><title>execve</title>
<polygon fill="Wheat" stroke="black" points="365,-198 305,-198 305,-162 365,-162 365,-198"/>
<text text-anchor="middle" x="335" y="-176.2" font-family="Times,serif" font-size="16.00" fill="blue">execve</text>
</g>
<!-- init &#45;&gt;execve -->
<g id="edge29" class="edge"><title>init &#45;&gt;execve</title>
<path fill="none" stroke="black" d="M193.326,-282.876C208.715,-278.879 227.834,-272.09 242,-261 264.713,-243.22 256.239,-225.933 278,-207 283.252,-202.43 289.412,-198.45 295.69,-195.051"/>
<polygon fill="black" stroke="black" points="297.48,-198.07 304.879,-190.487 294.366,-191.8 297.48,-198.07"/>
</g>
<!-- wait -->
<g id="node30" class="node"><title>wait</title>
<polygon fill="Wheat" stroke="black" points="362,-144 308,-144 308,-108 362,-108 362,-144"/>
<text text-anchor="middle" x="335" y="-122.2" font-family="Times,serif" font-size="16.00" fill="blue">wait</text>
</g>
<!-- init &#45;&gt;wait -->
<g id="edge30" class="edge"><title>init &#45;&gt;wait</title>
<path fill="none" stroke="black" d="M193.038,-284.488C209.103,-281.044 229.044,-274.268 242,-261 277.349,-224.8 244.575,-190.984 278,-153 283.515,-146.733 290.809,-141.788 298.304,-137.939"/>
<polygon fill="black" stroke="black" points="300.129,-140.954 307.786,-133.632 297.234,-134.581 300.129,-140.954"/>
</g>
<!-- setsid -->
<g id="node31" class="node"><title>setsid</title>
<polygon fill="Wheat" stroke="black" points="362,-90 308,-90 308,-54 362,-54 362,-90"/>
<text text-anchor="middle" x="335" y="-68.2" font-family="Times,serif" font-size="16.00" fill="blue">setsid</text>
</g>
<!-- init &#45;&gt;setsid -->
<g id="edge31" class="edge"><title>init &#45;&gt;setsid</title>
<path fill="none" stroke="black" d="M193.152,-285.004C209.472,-281.763 229.654,-275.021 242,-261 290.742,-205.645 232.192,-156.807 278,-99 283.396,-92.1903 290.936,-86.9934 298.738,-83.0685"/>
<polygon fill="black" stroke="black" points="300.167,-86.2633 307.904,-79.0248 297.342,-79.8589 300.167,-86.2633"/>
</g>
<!-- sync  -->
<g id="node32" class="node"><title>sync </title>
<polygon fill="Wheat" stroke="black" points="362,-36 308,-36 308,-0 362,-0 362,-36"/>
<text text-anchor="middle" x="335" y="-14.2" font-family="Times,serif" font-size="16.00" fill="blue">sync </text>
</g>
<!-- init &#45;&gt;sync  -->
<g id="edge32" class="edge"><title>init &#45;&gt;sync </title>
<path fill="none" stroke="black" d="M193.042,-285.291C209.531,-282.17 229.945,-275.453 242,-261 304.34,-186.262 219.618,-122.869 278,-45 283.259,-37.9863 290.817,-32.7052 298.687,-28.7634"/>
<polygon fill="black" stroke="black" points="300.18,-31.9308 307.949,-24.7277 297.384,-25.5135 300.18,-31.9308"/>
</g>
<!-- va_start -->
<g id="node24" class="node"><title>va_start</title>
<polygon fill="Wheat" stroke="black" points="495.5,-387 428.5,-387 428.5,-351 495.5,-351 495.5,-387"/>
<text text-anchor="middle" x="462" y="-365.2" font-family="Times,serif" font-size="16.00" fill="blue">va_start</text>
</g>
<!-- printf &#45;&gt;va_start -->
<g id="edge23" class="edge"><title>printf &#45;&gt;va_start</title>
<path fill="none" stroke="black" d="M363.116,-299.639C372.498,-304.037 382.928,-309.354 392,-315 399.955,-319.95 416.231,-332.64 430.978,-344.475"/>
<polygon fill="black" stroke="black" points="428.971,-347.352 438.951,-350.907 433.366,-341.904 428.971,-347.352"/>
</g>
<!-- write -->
<g id="node25" class="node"><title>write</title>
<polygon fill="Wheat" stroke="black" points="489,-333 435,-333 435,-297 489,-297 489,-333"/>
<text text-anchor="middle" x="462" y="-311.2" font-family="Times,serif" font-size="16.00" fill="blue">write</text>
</g>
<!-- printf &#45;&gt;write -->
<g id="edge24" class="edge"><title>printf &#45;&gt;write</title>
<path fill="none" stroke="black" d="M363.123,-293.859C381.222,-297.768 405.223,-302.952 424.928,-307.208"/>
<polygon fill="black" stroke="black" points="424.273,-310.648 434.786,-309.338 425.751,-303.805 424.273,-310.648"/>
</g>
<!-- vsprintf -->
<g id="node26" class="node"><title>vsprintf</title>
<polygon fill="Wheat" stroke="black" points="495.5,-279 428.5,-279 428.5,-243 495.5,-243 495.5,-279"/>
<text text-anchor="middle" x="462" y="-257.2" font-family="Times,serif" font-size="16.00" fill="blue">vsprintf</text>
</g>
<!-- printf &#45;&gt;vsprintf -->
<g id="edge25" class="edge"><title>printf &#45;&gt;vsprintf</title>
<path fill="none" stroke="black" d="M363.123,-282.141C379.239,-278.66 400.033,-274.169 418.308,-270.222"/>
<polygon fill="black" stroke="black" points="419.12,-273.627 428.155,-268.094 417.642,-266.785 419.12,-273.627"/>
</g>
<!-- va_end -->
<g id="node27" class="node"><title>va_end</title>
<polygon fill="Wheat" stroke="black" points="493.5,-225 430.5,-225 430.5,-189 493.5,-189 493.5,-225"/>
<text text-anchor="middle" x="462" y="-203.2" font-family="Times,serif" font-size="16.00" fill="blue">va_end</text>
</g>
<!-- printf &#45;&gt;va_end -->
<g id="edge26" class="edge"><title>printf &#45;&gt;va_end</title>
<path fill="none" stroke="black" d="M363.116,-276.361C372.498,-271.963 382.928,-266.646 392,-261 399.955,-256.05 416.231,-243.36 430.978,-231.525"/>
<polygon fill="black" stroke="black" points="433.366,-234.096 438.951,-225.093 428.971,-228.648 433.366,-234.096"/>
</g>
</g>
</svg>
