<?xml version="1.0" encoding="UTF-8" standalone="no"?>
<!DOCTYPE svg PUBLIC "-//W3C//DTD SVG 1.1//EN"
 "http://www.w3.org/Graphics/SVG/1.1/DTD/svg11.dtd">
<!-- Generated by graphviz version 2.36.0 (20140111.2315)
 -->
<!-- Title: G Pages: 1 -->
<svg width="1344pt" height="849pt"
 viewBox="0.00 0.00 1344.00 848.90" xmlns="http://www.w3.org/2000/svg" xmlns:xlink="http://www.w3.org/1999/xlink">
<g id="graph0" class="graph" transform="scale(1 1) rotate(0) translate(4 844.896)">
<title>G</title>
<polygon fill="white" stroke="none" points="-4,4 -4,-844.896 1340,-844.896 1340,4 -4,4"/>
<!-- setup_rw_floppy -->
<g id="node1" class="node"><title>setup_rw_floppy</title>
<polygon fill="Wheat" stroke="black" points="126,-634 0,-634 0,-598 126,-598 126,-634"/>
<text text-anchor="middle" x="63" y="-612.2" font-family="Times,serif" font-size="16.00" fill="blue">setup_rw_floppy</text>
</g>
<!-- setup_DMA  -->
<g id="node2" class="node"><title>setup_DMA </title>
<polygon fill="Wheat" stroke="black" points="262.5,-715 163.5,-715 163.5,-679 262.5,-679 262.5,-715"/>
<text text-anchor="middle" x="213" y="-693.2" font-family="Times,serif" font-size="16.00" fill="blue">setup_DMA </text>
</g>
<!-- setup_rw_floppy&#45;&gt;setup_DMA  -->
<g id="edge1" class="edge"><title>setup_rw_floppy&#45;&gt;setup_DMA </title>
<path fill="none" stroke="black" d="M97.2141,-634.178C118.732,-645.955 146.941,-661.394 170.01,-674.019"/>
<polygon fill="black" stroke="black" points="168.444,-677.152 178.897,-678.883 171.805,-671.011 168.444,-677.152"/>
</g>
<!-- rw_interrupt  -->
<g id="node7" class="node"><title>rw_interrupt </title>
<polygon fill="Wheat" stroke="black" points="263.5,-175 162.5,-175 162.5,-139 263.5,-139 263.5,-175"/>
<text text-anchor="middle" x="213" y="-153.2" font-family="Times,serif" font-size="16.00" fill="blue">rw_interrupt </text>
</g>
<!-- setup_rw_floppy&#45;&gt;rw_interrupt  -->
<g id="edge6" class="edge"><title>setup_rw_floppy&#45;&gt;rw_interrupt </title>
<path fill="none" stroke="black" d="M69.8931,-597.723C92.7277,-526.905 175.471,-270.291 203.013,-184.873"/>
<polygon fill="black" stroke="black" points="206.352,-185.92 206.09,-175.329 199.69,-183.772 206.352,-185.92"/>
</g>
<!-- do_fd_request  -->
<g id="node15" class="node"><title>do_fd_request </title>
<polygon fill="Wheat" stroke="black" points="413.5,-438 300.5,-438 300.5,-402 413.5,-402 413.5,-438"/>
<text text-anchor="middle" x="357" y="-416.2" font-family="Times,serif" font-size="16.00" fill="blue">do_fd_request </text>
</g>
<!-- setup_rw_floppy&#45;&gt;do_fd_request  -->
<g id="edge60" class="edge"><title>setup_rw_floppy&#45;&gt;do_fd_request </title>
<path fill="none" stroke="black" d="M90.9473,-597.912C143.858,-562.396 261.317,-483.554 320.483,-443.84"/>
<polygon fill="black" stroke="black" points="322.766,-446.523 329.118,-438.044 318.864,-440.711 322.766,-446.523"/>
</g>
<!-- output_byte  -->
<g id="node18" class="node"><title>output_byte </title>
<polygon fill="Wheat" stroke="black" points="1052,-420 954,-420 954,-384 1052,-384 1052,-420"/>
<text text-anchor="middle" x="1003" y="-398.2" font-family="Times,serif" font-size="16.00" fill="blue">output_byte </text>
</g>
<!-- setup_rw_floppy&#45;&gt;output_byte  -->
<g id="edge59" class="edge"><title>setup_rw_floppy&#45;&gt;output_byte </title>
<path fill="none" stroke="black" d="M76.4328,-634.356C112.843,-685.691 224.969,-827 356,-827 356,-827 356,-827 696,-827 787.944,-827 832.311,-867.977 902,-808 960.114,-757.985 990.41,-514.07 999.228,-430.307"/>
<polygon fill="black" stroke="black" points="1002.72,-430.551 1000.26,-420.245 995.758,-429.834 1002.72,-430.551"/>
</g>
<!-- cli -->
<g id="node3" class="node"><title>cli</title>
<polygon fill="Wheat" stroke="black" points="872,-745 818,-745 818,-709 872,-709 872,-745"/>
<text text-anchor="middle" x="845" y="-723.2" font-family="Times,serif" font-size="16.00" fill="blue">cli</text>
</g>
<!-- setup_DMA &#45;&gt;cli -->
<g id="edge2" class="edge"><title>setup_DMA &#45;&gt;cli</title>
<path fill="none" stroke="black" d="M262.811,-699.555C310.533,-702.036 385.256,-705.875 450,-709 581.736,-715.358 738.279,-722.338 807.724,-725.405"/>
<polygon fill="black" stroke="black" points="807.571,-728.902 817.716,-725.846 807.88,-721.909 807.571,-728.902"/>
</g>
<!-- copy_buffer -->
<g id="node4" class="node"><title>copy_buffer</title>
<polygon fill="Wheat" stroke="black" points="404.5,-581 309.5,-581 309.5,-545 404.5,-545 404.5,-581"/>
<text text-anchor="middle" x="357" y="-559.2" font-family="Times,serif" font-size="16.00" fill="blue">copy_buffer</text>
</g>
<!-- setup_DMA &#45;&gt;copy_buffer -->
<g id="edge3" class="edge"><title>setup_DMA &#45;&gt;copy_buffer</title>
<path fill="none" stroke="black" d="M233.151,-678.928C257.923,-655.551 301.212,-614.701 329.23,-588.262"/>
<polygon fill="black" stroke="black" points="331.828,-590.622 336.699,-581.213 327.024,-585.531 331.828,-590.622"/>
</g>
<!-- immoutb_p -->
<g id="node5" class="node"><title>immoutb_p</title>
<polygon fill="Wheat" stroke="black" points="403,-761 311,-761 311,-725 403,-725 403,-761"/>
<text text-anchor="middle" x="357" y="-739.2" font-family="Times,serif" font-size="16.00" fill="blue">immoutb_p</text>
</g>
<!-- setup_DMA &#45;&gt;immoutb_p -->
<g id="edge4" class="edge"><title>setup_DMA &#45;&gt;immoutb_p</title>
<path fill="none" stroke="black" d="M262.868,-712.831C275.271,-716.848 288.674,-721.19 301.344,-725.294"/>
<polygon fill="black" stroke="black" points="300.268,-728.625 310.86,-728.377 302.425,-721.966 300.268,-728.625"/>
</g>
<!-- sti -->
<g id="node6" class="node"><title>sti</title>
<polygon fill="Wheat" stroke="black" points="872,-799 818,-799 818,-763 872,-763 872,-799"/>
<text text-anchor="middle" x="845" y="-777.2" font-family="Times,serif" font-size="16.00" fill="blue">sti</text>
</g>
<!-- setup_DMA &#45;&gt;sti -->
<g id="edge5" class="edge"><title>setup_DMA &#45;&gt;sti</title>
<path fill="none" stroke="black" d="M228.558,-715.084C244.1,-732.839 270.513,-758.833 300,-770 480.15,-838.224 718.484,-804.736 807.992,-788.289"/>
<polygon fill="black" stroke="black" points="808.73,-791.711 817.911,-786.422 807.436,-784.832 808.73,-791.711"/>
</g>
<!-- rw_interrupt &#45;&gt;copy_buffer -->
<g id="edge58" class="edge"><title>rw_interrupt &#45;&gt;copy_buffer</title>
<path fill="none" stroke="black" d="M218.338,-175.326C229.536,-221.644 261.263,-346.838 300,-447 312.123,-478.347 329.313,-512.869 341.442,-536.033"/>
<polygon fill="black" stroke="black" points="338.373,-537.718 346.141,-544.923 344.562,-534.447 338.373,-537.718"/>
</g>
<!-- result  -->
<g id="node8" class="node"><title>result </title>
<polygon fill="Wheat" stroke="black" points="1031,-312 975,-312 975,-276 1031,-276 1031,-312"/>
<text text-anchor="middle" x="1003" y="-290.2" font-family="Times,serif" font-size="16.00" fill="blue">result </text>
</g>
<!-- rw_interrupt &#45;&gt;result  -->
<g id="edge7" class="edge"><title>rw_interrupt &#45;&gt;result </title>
<path fill="none" stroke="black" d="M263.766,-161.918C325.126,-167.547 432.635,-176 525,-176 525,-176 525,-176 696,-176 799.826,-176 910.997,-235.87 966.371,-270.319"/>
<polygon fill="black" stroke="black" points="964.765,-273.444 975.089,-275.821 968.501,-267.524 964.765,-273.444"/>
</g>
<!-- printk -->
<g id="node10" class="node"><title>printk</title>
<polygon fill="Wheat" stroke="black" points="1327,-312 1271,-312 1271,-276 1327,-276 1327,-312"/>
<text text-anchor="middle" x="1299" y="-290.2" font-family="Times,serif" font-size="16.00" fill="blue">printk</text>
</g>
<!-- rw_interrupt &#45;&gt;printk -->
<g id="edge10" class="edge"><title>rw_interrupt &#45;&gt;printk</title>
<path fill="none" stroke="black" d="M235.552,-138.989C252.135,-126.096 276.178,-109.413 300,-100 394.32,-62.7302 423.584,-62 525,-62 525,-62 525,-62 846,-62 1017.34,-62 1097.58,-13.5667 1226,-127 1267.57,-163.717 1285.99,-228.675 1293.46,-265.829"/>
<polygon fill="black" stroke="black" points="1290.08,-266.784 1295.36,-275.966 1296.96,-265.492 1290.08,-266.784"/>
</g>
<!-- floppy_deselect  -->
<g id="node11" class="node"><title>floppy_deselect </title>
<polygon fill="Wheat" stroke="black" points="1226,-36 1104,-36 1104,-0 1226,-0 1226,-36"/>
<text text-anchor="middle" x="1165" y="-14.2" font-family="Times,serif" font-size="16.00" fill="blue">floppy_deselect </text>
</g>
<!-- rw_interrupt &#45;&gt;floppy_deselect  -->
<g id="edge11" class="edge"><title>rw_interrupt &#45;&gt;floppy_deselect </title>
<path fill="none" stroke="black" d="M222.651,-138.632C235.59,-113.436 262.532,-68.9054 300,-48 387.908,1.04809 424.335,-22 525,-22 525,-22 525,-22 846,-22 931.296,-22 1029.45,-20.5434 1093.88,-19.3881"/>
<polygon fill="black" stroke="black" points="1093.99,-22.8868 1103.93,-19.2056 1093.86,-15.8879 1093.99,-22.8868"/>
</g>
<!-- end_request -->
<g id="node13" class="node"><title>end_request</title>
<polygon fill="Wheat" stroke="black" points="1212,-172 1118,-172 1118,-136 1212,-136 1212,-172"/>
<text text-anchor="middle" x="1165" y="-150.2" font-family="Times,serif" font-size="16.00" fill="blue">end_request</text>
</g>
<!-- rw_interrupt &#45;&gt;end_request -->
<g id="edge14" class="edge"><title>rw_interrupt &#45;&gt;end_request</title>
<path fill="none" stroke="black" d="M263.766,-152.082C325.126,-146.453 432.635,-138 525,-138 525,-138 525,-138 696,-138 844.778,-138 1020,-146.176 1107.84,-150.839"/>
<polygon fill="black" stroke="black" points="1107.68,-154.336 1117.85,-151.376 1108.05,-147.346 1107.68,-154.336"/>
</g>
<!-- bad_flp_intr  -->
<g id="node14" class="node"><title>bad_flp_intr </title>
<polygon fill="Wheat" stroke="black" points="1053.5,-126 952.5,-126 952.5,-90 1053.5,-90 1053.5,-126"/>
<text text-anchor="middle" x="1003" y="-104.2" font-family="Times,serif" font-size="16.00" fill="blue">bad_flp_intr </text>
</g>
<!-- rw_interrupt &#45;&gt;bad_flp_intr  -->
<g id="edge15" class="edge"><title>rw_interrupt &#45;&gt;bad_flp_intr </title>
<path fill="none" stroke="black" d="M254.429,-138.999C268.589,-133.365 284.763,-127.669 300,-124 397.772,-100.454 424.433,-100 525,-100 525,-100 525,-100 696,-100 781.528,-100 880.458,-103.162 942.135,-105.51"/>
<polygon fill="black" stroke="black" points="942.328,-109.02 952.456,-105.909 942.598,-102.025 942.328,-109.02"/>
</g>
<!-- rw_interrupt &#45;&gt;do_fd_request  -->
<g id="edge18" class="edge"><title>rw_interrupt &#45;&gt;do_fd_request </title>
<path fill="none" stroke="black" d="M223.76,-175.077C248.232,-220.402 312.314,-339.089 341.339,-392.846"/>
<polygon fill="black" stroke="black" points="338.341,-394.66 346.171,-401.796 344.5,-391.334 338.341,-394.66"/>
</g>
<!-- inb_p -->
<g id="node9" class="node"><title>inb_p</title>
<polygon fill="Wheat" stroke="black" points="1192,-362 1138,-362 1138,-326 1192,-326 1192,-362"/>
<text text-anchor="middle" x="1165" y="-340.2" font-family="Times,serif" font-size="16.00" fill="blue">inb_p</text>
</g>
<!-- result &#45;&gt;inb_p -->
<g id="edge8" class="edge"><title>result &#45;&gt;inb_p</title>
<path fill="none" stroke="black" d="M1031.14,-302.482C1057.78,-310.806 1098.57,-323.553 1127.92,-332.727"/>
<polygon fill="black" stroke="black" points="1127.2,-336.167 1137.79,-335.809 1129.29,-329.486 1127.2,-336.167"/>
</g>
<!-- result &#45;&gt;printk -->
<g id="edge9" class="edge"><title>result &#45;&gt;printk</title>
<path fill="none" stroke="black" d="M1031.13,-294C1083.97,-294 1200.73,-294 1260.76,-294"/>
<polygon fill="black" stroke="black" points="1260.93,-297.5 1270.93,-294 1260.93,-290.5 1260.93,-297.5"/>
</g>
<!-- floppy_deselect &#45;&gt;printk -->
<g id="edge12" class="edge"><title>floppy_deselect &#45;&gt;printk</title>
<path fill="none" stroke="black" d="M1210.09,-36.0929C1216.04,-39.991 1221.6,-44.6011 1226,-50 1278.66,-114.61 1292.81,-216.567 1296.61,-265.691"/>
<polygon fill="black" stroke="black" points="1293.13,-266.153 1297.3,-275.892 1300.11,-265.677 1293.13,-266.153"/>
</g>
<!-- wake_up -->
<g id="node12" class="node"><title>wake_up</title>
<polygon fill="Wheat" stroke="black" points="1336,-36 1262,-36 1262,-0 1336,-0 1336,-36"/>
<text text-anchor="middle" x="1299" y="-14.2" font-family="Times,serif" font-size="16.00" fill="blue">wake_up</text>
</g>
<!-- floppy_deselect &#45;&gt;wake_up -->
<g id="edge13" class="edge"><title>floppy_deselect &#45;&gt;wake_up</title>
<path fill="none" stroke="black" d="M1226.21,-18C1234.72,-18 1243.36,-18 1251.55,-18"/>
<polygon fill="black" stroke="black" points="1251.66,-21.5001 1261.66,-18 1251.66,-14.5001 1251.66,-21.5001"/>
</g>
<!-- bad_flp_intr &#45;&gt;floppy_deselect  -->
<g id="edge16" class="edge"><title>bad_flp_intr &#45;&gt;floppy_deselect </title>
<path fill="none" stroke="black" d="M1036.38,-89.7872C1061.4,-75.7123 1096.19,-56.1404 1123.13,-40.9872"/>
<polygon fill="black" stroke="black" points="1124.94,-43.9851 1131.94,-36.032 1121.51,-37.8841 1124.94,-43.9851"/>
</g>
<!-- bad_flp_intr &#45;&gt;end_request -->
<g id="edge17" class="edge"><title>bad_flp_intr &#45;&gt;end_request</title>
<path fill="none" stroke="black" d="M1053.75,-122.303C1071.01,-127.265 1090.47,-132.861 1108.19,-137.954"/>
<polygon fill="black" stroke="black" points="1107.25,-141.326 1117.83,-140.725 1109.18,-134.598 1107.25,-141.326"/>
</g>
<!-- do_fd_request &#45;&gt;end_request -->
<g id="edge40" class="edge"><title>do_fd_request &#45;&gt;end_request</title>
<path fill="none" stroke="black" d="M362.892,-401.944C373.034,-368.19 399.715,-295.721 450,-260 539.966,-196.091 583.645,-214 694,-214 694,-214 694,-214 846,-214 939.193,-214 1045.13,-188.809 1108.16,-171.073"/>
<polygon fill="black" stroke="black" points="1109.25,-174.404 1117.9,-168.295 1107.33,-167.672 1109.25,-174.404"/>
</g>
<!-- reset_floppy  -->
<g id="node16" class="node"><title>reset_floppy </title>
<polygon fill="Wheat" stroke="black" points="745.5,-700 644.5,-700 644.5,-664 745.5,-664 745.5,-700"/>
<text text-anchor="middle" x="695" y="-678.2" font-family="Times,serif" font-size="16.00" fill="blue">reset_floppy </text>
</g>
<!-- do_fd_request &#45;&gt;reset_floppy  -->
<g id="edge19" class="edge"><title>do_fd_request &#45;&gt;reset_floppy </title>
<path fill="none" stroke="black" d="M368.332,-438.375C380.61,-460.829 401.058,-500.254 414,-536 436.458,-598.029 398.169,-639.189 450,-680 501.7,-720.708 580.492,-712.752 634.466,-700.2"/>
<polygon fill="black" stroke="black" points="635.358,-703.585 644.243,-697.813 633.698,-696.785 635.358,-703.585"/>
</g>
<!-- recalibrate_floppy  -->
<g id="node21" class="node"><title>recalibrate_floppy </title>
<polygon fill="Wheat" stroke="black" points="594.5,-392 457.5,-392 457.5,-356 594.5,-356 594.5,-392"/>
<text text-anchor="middle" x="526" y="-370.2" font-family="Times,serif" font-size="16.00" fill="blue">recalibrate_floppy </text>
</g>
<!-- do_fd_request &#45;&gt;recalibrate_floppy  -->
<g id="edge32" class="edge"><title>do_fd_request &#45;&gt;recalibrate_floppy </title>
<path fill="none" stroke="black" d="M401.877,-401.891C415.962,-397.453 432.006,-392.797 447.751,-388.545"/>
<polygon fill="black" stroke="black" points="448.73,-391.906 457.496,-385.955 446.932,-385.141 448.73,-391.906"/>
</g>
<!-- MINOR -->
<g id="node23" class="node"><title>MINOR</title>
<polygon fill="Wheat" stroke="black" points="560.5,-592 491.5,-592 491.5,-556 560.5,-556 560.5,-592"/>
<text text-anchor="middle" x="526" y="-570.2" font-family="Times,serif" font-size="16.00" fill="blue">MINOR</text>
</g>
<!-- do_fd_request &#45;&gt;MINOR -->
<g id="edge39" class="edge"><title>do_fd_request &#45;&gt;MINOR</title>
<path fill="none" stroke="black" d="M366.69,-438.236C380.604,-465.594 410.395,-517.221 450,-547 459.325,-554.011 470.642,-559.333 481.627,-563.317"/>
<polygon fill="black" stroke="black" points="480.544,-566.646 491.138,-566.483 482.755,-560.004 480.544,-566.646"/>
</g>
<!-- panic -->
<g id="node24" class="node"><title>panic</title>
<polygon fill="Wheat" stroke="black" points="553,-538 499,-538 499,-502 553,-502 553,-538"/>
<text text-anchor="middle" x="526" y="-516.2" font-family="Times,serif" font-size="16.00" fill="blue">panic</text>
</g>
<!-- do_fd_request &#45;&gt;panic -->
<g id="edge41" class="edge"><title>do_fd_request &#45;&gt;panic</title>
<path fill="none" stroke="black" d="M377.112,-438.256C394.847,-454.408 422.568,-477.722 450,-493 462.116,-499.748 476.239,-505.35 488.941,-509.669"/>
<polygon fill="black" stroke="black" points="488.165,-513.098 498.757,-512.856 490.326,-506.44 488.165,-513.098"/>
</g>
<!-- add_timer -->
<g id="node25" class="node"><title>add_timer</title>
<polygon fill="Wheat" stroke="black" points="736,-646 654,-646 654,-610 736,-610 736,-646"/>
<text text-anchor="middle" x="695" y="-624.2" font-family="Times,serif" font-size="16.00" fill="blue">add_timer</text>
</g>
<!-- do_fd_request &#45;&gt;add_timer -->
<g id="edge42" class="edge"><title>do_fd_request &#45;&gt;add_timer</title>
<path fill="none" stroke="black" d="M367.827,-438.089C379.789,-460.584 400.109,-500.372 414,-536 434.072,-587.481 405.63,-622.067 450,-655 507.831,-697.924 595.629,-672.416 648.635,-650.116"/>
<polygon fill="black" stroke="black" points="650.33,-653.196 658.113,-646.007 647.546,-646.774 650.33,-653.196"/>
</g>
<!-- ticks_to_floppy_on -->
<g id="node26" class="node"><title>ticks_to_floppy_on</title>
<polygon fill="Wheat" stroke="black" points="597.5,-484 454.5,-484 454.5,-448 597.5,-448 597.5,-484"/>
<text text-anchor="middle" x="526" y="-462.2" font-family="Times,serif" font-size="16.00" fill="blue">ticks_to_floppy_on</text>
</g>
<!-- do_fd_request &#45;&gt;ticks_to_floppy_on -->
<g id="edge43" class="edge"><title>do_fd_request &#45;&gt;ticks_to_floppy_on</title>
<path fill="none" stroke="black" d="M413.609,-435.317C425.213,-438.514 437.63,-441.934 449.809,-445.289"/>
<polygon fill="black" stroke="black" points="448.934,-448.678 459.505,-447.959 450.793,-441.929 448.934,-448.678"/>
</g>
<!-- floppy_on_interrupt  -->
<g id="node27" class="node"><title>floppy_on_interrupt </title>
<polygon fill="Wheat" stroke="black" points="602,-646 450,-646 450,-610 602,-610 602,-646"/>
<text text-anchor="middle" x="526" y="-624.2" font-family="Times,serif" font-size="16.00" fill="blue">floppy_on_interrupt </text>
</g>
<!-- do_fd_request &#45;&gt;floppy_on_interrupt  -->
<g id="edge44" class="edge"><title>do_fd_request &#45;&gt;floppy_on_interrupt </title>
<path fill="none" stroke="black" d="M366.851,-438.304C388.574,-483.1 443.244,-595.038 450,-601 451.32,-602.165 452.693,-603.28 454.113,-604.349"/>
<polygon fill="black" stroke="black" points="452.395,-607.408 462.676,-609.967 456.235,-601.555 452.395,-607.408"/>
</g>
<!-- reset_floppy &#45;&gt;cli -->
<g id="edge21" class="edge"><title>reset_floppy &#45;&gt;cli</title>
<path fill="none" stroke="black" d="M745.694,-697.11C766.194,-703.343 789.495,-710.427 808.264,-716.134"/>
<polygon fill="black" stroke="black" points="807.317,-719.504 817.902,-719.065 809.353,-712.807 807.317,-719.504"/>
</g>
<!-- reset_floppy &#45;&gt;sti -->
<g id="edge31" class="edge"><title>reset_floppy &#45;&gt;sti</title>
<path fill="none" stroke="black" d="M716.612,-700.235C734.662,-715.676 761.998,-737.819 788,-754 794.426,-757.999 801.534,-761.833 808.467,-765.292"/>
<polygon fill="black" stroke="black" points="807.206,-768.57 817.734,-769.758 810.244,-762.264 807.206,-768.57"/>
</g>
<!-- reset_floppy &#45;&gt;printk -->
<g id="edge20" class="edge"><title>reset_floppy &#45;&gt;printk</title>
<path fill="none" stroke="black" d="M745.683,-688.52C850.169,-699.211 1093.88,-707.775 1226,-578 1262.53,-542.115 1286.14,-386.989 1294.55,-322.394"/>
<polygon fill="black" stroke="black" points="1298.07,-322.495 1295.86,-312.133 1291.12,-321.611 1298.07,-322.495"/>
</g>
<!-- reset_interrupt  -->
<g id="node17" class="node"><title>reset_interrupt </title>
<polygon fill="Wheat" stroke="black" points="901.5,-370 788.5,-370 788.5,-334 901.5,-334 901.5,-370"/>
<text text-anchor="middle" x="845" y="-348.2" font-family="Times,serif" font-size="16.00" fill="blue">reset_interrupt </text>
</g>
<!-- reset_floppy &#45;&gt;reset_interrupt  -->
<g id="edge22" class="edge"><title>reset_floppy &#45;&gt;reset_interrupt </title>
<path fill="none" stroke="black" d="M742.06,-663.968C745.729,-661.338 749.122,-658.361 752,-655 770.367,-633.552 818.509,-451.371 836.804,-380.265"/>
<polygon fill="black" stroke="black" points="840.284,-380.785 839.378,-370.229 833.504,-379.046 840.284,-380.785"/>
</g>
<!-- outb -->
<g id="node19" class="node"><title>outb</title>
<polygon fill="Wheat" stroke="black" points="1192,-569 1138,-569 1138,-533 1192,-533 1192,-569"/>
<text text-anchor="middle" x="1165" y="-547.2" font-family="Times,serif" font-size="16.00" fill="blue">outb</text>
</g>
<!-- reset_floppy &#45;&gt;outb -->
<g id="edge30" class="edge"><title>reset_floppy &#45;&gt;outb</title>
<path fill="none" stroke="black" d="M745.641,-668.105C840.488,-641.556 1045.38,-584.202 1128.19,-561.023"/>
<polygon fill="black" stroke="black" points="1129.21,-564.371 1137.9,-558.305 1127.33,-557.631 1129.21,-564.371"/>
</g>
<!-- outb_p -->
<g id="node20" class="node"><title>outb_p</title>
<polygon fill="Wheat" stroke="black" points="876,-615 814,-615 814,-579 876,-579 876,-615"/>
<text text-anchor="middle" x="845" y="-593.2" font-family="Times,serif" font-size="16.00" fill="blue">outb_p</text>
</g>
<!-- reset_floppy &#45;&gt;outb_p -->
<g id="edge29" class="edge"><title>reset_floppy &#45;&gt;outb_p</title>
<path fill="none" stroke="black" d="M735.626,-663.976C741.207,-661.126 746.808,-658.094 752,-655 768.955,-644.897 771.408,-639.689 788,-629 793.374,-625.538 799.137,-622.028 804.847,-618.664"/>
<polygon fill="black" stroke="black" points="806.816,-621.568 813.714,-613.527 803.307,-615.512 806.816,-621.568"/>
</g>
<!-- reset_interrupt &#45;&gt;result  -->
<g id="edge27" class="edge"><title>reset_interrupt &#45;&gt;result </title>
<path fill="none" stroke="black" d="M894.504,-333.966C917.359,-325.469 944.177,-315.498 965.309,-307.642"/>
<polygon fill="black" stroke="black" points="966.729,-310.848 974.883,-304.082 964.29,-304.286 966.729,-310.848"/>
</g>
<!-- reset_interrupt &#45;&gt;do_fd_request  -->
<g id="edge28" class="edge"><title>reset_interrupt &#45;&gt;do_fd_request </title>
<path fill="none" stroke="black" d="M788.937,-333.957C710.393,-311.41 563.172,-281.123 450,-328 418.128,-341.202 391.54,-371.396 375.276,-393.609"/>
<polygon fill="black" stroke="black" points="372.276,-391.79 369.356,-401.974 377.99,-395.833 372.276,-391.79"/>
</g>
<!-- reset_interrupt &#45;&gt;output_byte  -->
<g id="edge23" class="edge"><title>reset_interrupt &#45;&gt;output_byte </title>
<path fill="none" stroke="black" d="M901.879,-369.91C915.597,-374.307 930.311,-379.023 944.122,-383.449"/>
<polygon fill="black" stroke="black" points="943.4,-386.893 953.991,-386.612 945.536,-380.227 943.4,-386.893"/>
</g>
<!-- output_byte &#45;&gt;inb_p -->
<g id="edge24" class="edge"><title>output_byte &#45;&gt;inb_p</title>
<path fill="none" stroke="black" d="M1052.01,-384.598C1076.54,-375.704 1105.88,-365.067 1128.38,-356.912"/>
<polygon fill="black" stroke="black" points="1129.67,-360.168 1137.88,-353.469 1127.28,-353.587 1129.67,-360.168"/>
</g>
<!-- output_byte &#45;&gt;printk -->
<g id="edge26" class="edge"><title>output_byte &#45;&gt;printk</title>
<path fill="none" stroke="black" d="M1052.25,-404.302C1099.2,-404.531 1171.26,-399.42 1226,-371 1248.27,-359.439 1267.34,-338.176 1280.24,-320.919"/>
<polygon fill="black" stroke="black" points="1283.42,-322.495 1286.42,-312.332 1277.74,-318.409 1283.42,-322.495"/>
</g>
<!-- output_byte &#45;&gt;outb -->
<g id="edge25" class="edge"><title>output_byte &#45;&gt;outb</title>
<path fill="none" stroke="black" d="M1023.62,-420.27C1051.93,-446.633 1104.35,-495.455 1136.51,-525.399"/>
<polygon fill="black" stroke="black" points="1134.52,-528.327 1144.22,-532.58 1139.29,-523.204 1134.52,-528.327"/>
</g>
<!-- recalibrate_floppy &#45;&gt;do_fd_request  -->
<g id="edge38" class="edge"><title>recalibrate_floppy &#45;&gt;do_fd_request </title>
<path fill="none" stroke="black" d="M481.245,-392.071C463.547,-397.65 442.741,-403.577 423.315,-408.615"/>
<polygon fill="black" stroke="black" points="422.436,-405.227 413.609,-411.086 424.163,-412.01 422.436,-405.227"/>
</g>
<!-- recalibrate_floppy &#45;&gt;output_byte  -->
<g id="edge37" class="edge"><title>recalibrate_floppy &#45;&gt;output_byte </title>
<path fill="none" stroke="black" d="M594.741,-382.435C647.351,-388.577 722.183,-396.421 788,-400 840.721,-402.867 900.853,-403.167 943.923,-402.867"/>
<polygon fill="black" stroke="black" points="943.969,-406.367 953.94,-402.784 943.911,-399.367 943.969,-406.367"/>
</g>
<!-- recal_interrupt  -->
<g id="node22" class="node"><title>recal_interrupt </title>
<polygon fill="Wheat" stroke="black" points="752,-373 638,-373 638,-337 752,-337 752,-373"/>
<text text-anchor="middle" x="695" y="-351.2" font-family="Times,serif" font-size="16.00" fill="blue">recal_interrupt </text>
</g>
<!-- recalibrate_floppy &#45;&gt;recal_interrupt  -->
<g id="edge33" class="edge"><title>recalibrate_floppy &#45;&gt;recal_interrupt </title>
<path fill="none" stroke="black" d="M594.925,-366.272C605.738,-365.042 616.911,-363.771 627.686,-362.545"/>
<polygon fill="black" stroke="black" points="628.328,-365.994 637.869,-361.386 627.537,-359.039 628.328,-365.994"/>
</g>
<!-- recal_interrupt &#45;&gt;result  -->
<g id="edge35" class="edge"><title>recal_interrupt &#45;&gt;result </title>
<path fill="none" stroke="black" d="M709.13,-336.704C725.089,-316.209 754.123,-284.139 788,-271 846.985,-248.123 921.555,-265.567 965.293,-280.004"/>
<polygon fill="black" stroke="black" points="964.337,-283.376 974.931,-283.303 966.603,-276.753 964.337,-283.376"/>
</g>
<!-- recal_interrupt &#45;&gt;do_fd_request  -->
<g id="edge36" class="edge"><title>recal_interrupt &#45;&gt;do_fd_request </title>
<path fill="none" stroke="black" d="M637.521,-341.881C586.921,-332.729 511.435,-325.587 450,-347 423.119,-356.369 398.194,-377.232 381.087,-394.265"/>
<polygon fill="black" stroke="black" points="378.257,-392.155 373.799,-401.766 383.278,-397.033 378.257,-392.155"/>
</g>
<!-- recal_interrupt &#45;&gt;output_byte  -->
<g id="edge34" class="edge"><title>recal_interrupt &#45;&gt;output_byte </title>
<path fill="none" stroke="black" d="M752.144,-371.055C763.918,-374.024 776.31,-376.859 788,-379 840.232,-388.565 900.418,-394.598 943.633,-398.073"/>
<polygon fill="black" stroke="black" points="943.443,-401.569 953.686,-398.86 943.99,-394.59 943.443,-401.569"/>
</g>
<!-- floppy_on_interrupt &#45;&gt;outb -->
<g id="edge45" class="edge"><title>floppy_on_interrupt &#45;&gt;outb</title>
<path fill="none" stroke="black" d="M599.461,-609.99C612.282,-606.913 625.52,-603.807 638,-601 704.417,-586.064 720.474,-578.632 788,-570 912.005,-554.148 1060.6,-551.377 1127.82,-550.989"/>
<polygon fill="black" stroke="black" points="1127.91,-554.489 1137.89,-550.946 1127.88,-547.489 1127.91,-554.489"/>
</g>
<!-- floppy_on_interrupt &#45;&gt;add_timer -->
<g id="edge46" class="edge"><title>floppy_on_interrupt &#45;&gt;add_timer</title>
<path fill="none" stroke="black" d="M602.195,-628C616.267,-628 630.657,-628 643.745,-628"/>
<polygon fill="black" stroke="black" points="643.931,-631.5 653.931,-628 643.931,-624.5 643.931,-631.5"/>
</g>
<!-- transfer  -->
<g id="node28" class="node"><title>transfer </title>
<polygon fill="Wheat" stroke="black" points="729,-511 661,-511 661,-475 729,-475 729,-511"/>
<text text-anchor="middle" x="695" y="-489.2" font-family="Times,serif" font-size="16.00" fill="blue">transfer </text>
</g>
<!-- floppy_on_interrupt &#45;&gt;transfer  -->
<g id="edge47" class="edge"><title>floppy_on_interrupt &#45;&gt;transfer </title>
<path fill="none" stroke="black" d="M588.798,-609.996C593.509,-607.378 597.985,-604.396 602,-601 626.919,-579.926 616.761,-561.779 638,-537 644.086,-529.899 651.465,-523.153 658.841,-517.172"/>
<polygon fill="black" stroke="black" points="661.033,-519.901 666.782,-511.002 656.738,-514.374 661.033,-519.901"/>
</g>
<!-- transfer &#45;&gt;do_fd_request  -->
<g id="edge50" class="edge"><title>transfer &#45;&gt;do_fd_request </title>
<path fill="none" stroke="black" d="M670.067,-474.835C652.293,-462.41 626.914,-446.823 602,-439 543.595,-420.661 473.647,-416.946 423.647,-417.203"/>
<polygon fill="black" stroke="black" points="423.57,-413.704 413.607,-417.31 423.644,-420.704 423.57,-413.704"/>
</g>
<!-- transfer &#45;&gt;output_byte  -->
<g id="edge48" class="edge"><title>transfer &#45;&gt;output_byte </title>
<path fill="none" stroke="black" d="M729.069,-498.823C770.895,-504.725 844.405,-510.158 902,-488 933.885,-475.733 962.57,-448.555 980.955,-428.012"/>
<polygon fill="black" stroke="black" points="983.798,-430.076 987.716,-420.232 978.515,-425.484 983.798,-430.076"/>
</g>
<!-- transfer &#45;&gt;outb_p -->
<g id="edge49" class="edge"><title>transfer &#45;&gt;outb_p</title>
<path fill="none" stroke="black" d="M721.78,-511.115C746.142,-528.235 782.854,-554.033 809.684,-572.886"/>
<polygon fill="black" stroke="black" points="807.825,-575.857 818.019,-578.743 811.85,-570.13 807.825,-575.857"/>
</g>
<!-- setup_rw_floppy  -->
<g id="node29" class="node"><title>setup_rw_floppy </title>
<polygon fill="Wheat" stroke="black" points="1068,-366 938,-366 938,-330 1068,-330 1068,-366"/>
<text text-anchor="middle" x="1003" y="-344.2" font-family="Times,serif" font-size="16.00" fill="blue">setup_rw_floppy </text>
</g>
<!-- transfer &#45;&gt;setup_rw_floppy  -->
<g id="edge51" class="edge"><title>transfer &#45;&gt;setup_rw_floppy </title>
<path fill="none" stroke="black" d="M729.002,-476.199C775.334,-452.775 862.463,-409.319 938,-375 941.543,-373.39 945.209,-371.758 948.911,-370.133"/>
<polygon fill="black" stroke="black" points="950.358,-373.321 958.139,-366.13 947.572,-366.899 950.358,-373.321"/>
</g>
<!-- seek_interrupt  -->
<g id="node30" class="node"><title>seek_interrupt </title>
<polygon fill="Wheat" stroke="black" points="901,-316 789,-316 789,-280 901,-280 901,-316"/>
<text text-anchor="middle" x="845" y="-294.2" font-family="Times,serif" font-size="16.00" fill="blue">seek_interrupt </text>
</g>
<!-- transfer &#45;&gt;seek_interrupt  -->
<g id="edge52" class="edge"><title>transfer &#45;&gt;seek_interrupt </title>
<path fill="none" stroke="black" d="M705.082,-474.968C725.83,-433.994 775.852,-336.535 788,-325 789.076,-323.978 790.198,-322.988 791.358,-322.029"/>
<polygon fill="black" stroke="black" points="793.429,-324.851 799.479,-316.154 789.326,-319.18 793.429,-324.851"/>
</g>
<!-- seek_interrupt &#45;&gt;result  -->
<g id="edge54" class="edge"><title>seek_interrupt &#45;&gt;result </title>
<path fill="none" stroke="black" d="M901.439,-296.578C922.424,-296.04 945.794,-295.441 964.719,-294.956"/>
<polygon fill="black" stroke="black" points="964.825,-298.454 974.732,-294.699 964.646,-291.457 964.825,-298.454"/>
</g>
<!-- seek_interrupt &#45;&gt;bad_flp_intr  -->
<g id="edge55" class="edge"><title>seek_interrupt &#45;&gt;bad_flp_intr </title>
<path fill="none" stroke="black" d="M860.958,-279.782C888.796,-245.877 948.632,-172.999 980.69,-133.955"/>
<polygon fill="black" stroke="black" points="983.447,-136.113 987.087,-126.163 978.037,-131.671 983.447,-136.113"/>
</g>
<!-- seek_interrupt &#45;&gt;do_fd_request  -->
<g id="edge56" class="edge"><title>seek_interrupt &#45;&gt;do_fd_request </title>
<path fill="none" stroke="black" d="M788.927,-283.564C709.408,-265.823 559.932,-244.312 450,-299 410.941,-318.431 383.963,-363.223 369.751,-392.52"/>
<polygon fill="black" stroke="black" points="366.477,-391.26 365.422,-401.802 372.821,-394.219 366.477,-391.26"/>
</g>
<!-- seek_interrupt &#45;&gt;output_byte  -->
<g id="edge53" class="edge"><title>seek_interrupt &#45;&gt;output_byte </title>
<path fill="none" stroke="black" d="M889.259,-316.085C893.767,-318.766 898.114,-321.74 902,-325 922.979,-342.599 916.588,-357.931 938,-375 940.254,-376.797 942.646,-378.494 945.129,-380.094"/>
<polygon fill="black" stroke="black" points="943.454,-383.169 953.86,-385.163 946.969,-377.115 943.454,-383.169"/>
</g>
<!-- seek_interrupt &#45;&gt;setup_rw_floppy  -->
<g id="edge57" class="edge"><title>seek_interrupt &#45;&gt;setup_rw_floppy </title>
<path fill="none" stroke="black" d="M901.439,-315.769C912.66,-319.365 924.562,-323.18 936.102,-326.879"/>
<polygon fill="black" stroke="black" points="935.096,-330.232 945.687,-329.951 937.233,-323.566 935.096,-330.232"/>
</g>
</g>
</svg>
