<?xml version="1.0" encoding="UTF-8" standalone="no"?>
<!DOCTYPE svg PUBLIC "-//W3C//DTD SVG 1.1//EN"
 "http://www.w3.org/Graphics/SVG/1.1/DTD/svg11.dtd">
<!-- Generated by graphviz version 2.36.0 (20140111.2315)
 -->
<!-- Title: G Pages: 1 -->
<svg width="698pt" height="1148pt"
 viewBox="0.00 0.00 698.00 1148.00" xmlns="http://www.w3.org/2000/svg" xmlns:xlink="http://www.w3.org/1999/xlink">
<g id="graph0" class="graph" transform="scale(1 1) rotate(0) translate(4 1144)">
<title>G</title>
<polygon fill="white" stroke="none" points="-4,4 -4,-1144 694,-1144 694,4 -4,4"/>
<!-- main -->
<g id="node1" class="node"><title>main</title>
<polygon fill="Wheat" stroke="black" points="277.869,-490.429 223.869,-490.429 223.869,-454.429 277.869,-454.429 277.869,-490.429"/>
<text text-anchor="middle" x="250.869" y="-468.629" font-family="Times,serif" font-size="16.00" fill="blue">main</text>
</g>
<!-- rd_init -->
<g id="node2" class="node"><title>rd_init</title>
<polygon fill="Wheat" stroke="black" points="133.844,-579.069 73.8437,-579.069 73.8437,-543.069 133.844,-543.069 133.844,-579.069"/>
<text text-anchor="middle" x="103.844" y="-557.269" font-family="Times,serif" font-size="16.00" fill="blue">rd_init</text>
</g>
<!-- main&#45;&gt;rd_init -->
<g id="edge1" class="edge"><title>main&#45;&gt;rd_init</title>
<path fill="none" stroke="black" d="M223.559,-488.894C200.754,-502.643 167.971,-522.407 142.476,-537.778"/>
<polygon fill="black" stroke="black" points="140.547,-534.854 133.79,-543.015 144.161,-540.849 140.547,-534.854"/>
</g>
<!-- mem_init -->
<g id="node3" class="node"><title>mem_init</title>
<polygon fill="Wheat" stroke="black" points="121.696,-401.379 42.6959,-401.379 42.6959,-365.379 121.696,-365.379 121.696,-401.379"/>
<text text-anchor="middle" x="82.1959" y="-379.579" font-family="Times,serif" font-size="16.00" fill="blue">mem_init</text>
</g>
<!-- main&#45;&gt;mem_init -->
<g id="edge2" class="edge"><title>main&#45;&gt;mem_init</title>
<path fill="none" stroke="black" d="M223.769,-458.121C197.24,-444.115 156.403,-422.556 125.394,-406.185"/>
<polygon fill="black" stroke="black" points="126.999,-403.074 116.522,-401.501 123.731,-409.265 126.999,-403.074"/>
</g>
<!-- trap_init -->
<g id="node4" class="node"><title>trap_init</title>
<polygon fill="Wheat" stroke="black" points="184.171,-531.412 113.171,-531.412 113.171,-495.412 184.171,-495.412 184.171,-531.412"/>
<text text-anchor="middle" x="148.671" y="-509.612" font-family="Times,serif" font-size="16.00" fill="blue">trap_init</text>
</g>
<!-- main&#45;&gt;trap_init -->
<g id="edge3" class="edge"><title>main&#45;&gt;trap_init</title>
<path fill="none" stroke="black" d="M223.75,-483.304C214.609,-486.97 204.143,-491.167 193.985,-495.24"/>
<polygon fill="black" stroke="black" points="192.374,-492.116 184.395,-499.086 194.979,-498.613 192.374,-492.116"/>
</g>
<!-- blk_dev_init -->
<g id="node5" class="node"><title>blk_dev_init</title>
<polygon fill="Wheat" stroke="black" points="98.7874,-514.527 -0.212609,-514.527 -0.212609,-478.527 98.7874,-478.527 98.7874,-514.527"/>
<text text-anchor="middle" x="49.2874" y="-492.727" font-family="Times,serif" font-size="16.00" fill="blue">blk_dev_init</text>
</g>
<!-- main&#45;&gt;blk_dev_init -->
<g id="edge4" class="edge"><title>main&#45;&gt;blk_dev_init</title>
<path fill="none" stroke="black" d="M223.683,-475.679C194.384,-479.181 146.838,-484.865 108.786,-489.414"/>
<polygon fill="black" stroke="black" points="108.346,-485.942 98.8318,-490.604 109.177,-492.892 108.346,-485.942"/>
</g>
<!-- chr_dev_init -->
<g id="node6" class="node"><title>chr_dev_init</title>
<polygon fill="Wheat" stroke="black" points="108.458,-451.464 10.4578,-451.464 10.4578,-415.464 108.458,-415.464 108.458,-451.464"/>
<text text-anchor="middle" x="59.4578" y="-429.664" font-family="Times,serif" font-size="16.00" fill="blue">chr_dev_init</text>
</g>
<!-- main&#45;&gt;chr_dev_init -->
<g id="edge5" class="edge"><title>main&#45;&gt;chr_dev_init</title>
<path fill="none" stroke="black" d="M223.851,-466.929C196.651,-461.392 153.806,-452.67 118.675,-445.519"/>
<polygon fill="black" stroke="black" points="119.017,-442.017 108.52,-443.451 117.621,-448.876 119.017,-442.017"/>
</g>
<!-- tty_init -->
<g id="node7" class="node"><title>tty_init</title>
<polygon fill="Wheat" stroke="black" points="234.127,-340.22 170.127,-340.22 170.127,-304.22 234.127,-304.22 234.127,-340.22"/>
<text text-anchor="middle" x="202.127" y="-318.42" font-family="Times,serif" font-size="16.00" fill="blue">tty_init</text>
</g>
<!-- main&#45;&gt;tty_init -->
<g id="edge6" class="edge"><title>main&#45;&gt;tty_init</title>
<path fill="none" stroke="black" d="M244.99,-454.31C236.573,-428.372 221.017,-380.433 211.141,-349.997"/>
<polygon fill="black" stroke="black" points="214.443,-348.834 208.027,-340.403 207.785,-350.995 214.443,-348.834"/>
</g>
<!-- time_init  -->
<g id="node8" class="node"><title>time_init </title>
<polygon fill="Wheat" stroke="black" points="248.03,-245.494 169.03,-245.494 169.03,-209.494 248.03,-209.494 248.03,-245.494"/>
<text text-anchor="middle" x="208.53" y="-223.694" font-family="Times,serif" font-size="16.00" fill="blue">time_init </text>
</g>
<!-- main&#45;&gt;time_init  -->
<g id="edge7" class="edge"><title>main&#45;&gt;time_init </title>
<path fill="none" stroke="black" d="M247.756,-454.418C240.446,-412.13 222.142,-306.241 213.368,-255.483"/>
<polygon fill="black" stroke="black" points="216.8,-254.789 211.648,-245.531 209.902,-255.981 216.8,-254.789"/>
</g>
<!-- sched_init -->
<g id="node12" class="node"><title>sched_init</title>
<polygon fill="Wheat" stroke="black" points="194.377,-635.01 111.377,-635.01 111.377,-599.01 194.377,-599.01 194.377,-635.01"/>
<text text-anchor="middle" x="152.877" y="-613.21" font-family="Times,serif" font-size="16.00" fill="blue">sched_init</text>
</g>
<!-- main&#45;&gt;sched_init -->
<g id="edge11" class="edge"><title>main&#45;&gt;sched_init</title>
<path fill="none" stroke="black" d="M238.657,-490.448C221.639,-515.556 190.67,-561.248 170.968,-590.317"/>
<polygon fill="black" stroke="black" points="167.957,-588.522 165.243,-598.764 173.751,-592.45 167.957,-588.522"/>
</g>
<!-- buffer_init -->
<g id="node13" class="node"><title>buffer_init</title>
<polygon fill="Wheat" stroke="black" points="459.861,-409.105 373.861,-409.105 373.861,-373.105 459.861,-373.105 459.861,-409.105"/>
<text text-anchor="middle" x="416.861" y="-387.305" font-family="Times,serif" font-size="16.00" fill="blue">buffer_init</text>
</g>
<!-- main&#45;&gt;buffer_init -->
<g id="edge12" class="edge"><title>main&#45;&gt;buffer_init</title>
<path fill="none" stroke="black" d="M277.908,-459.182C303.051,-446.864 341.018,-428.263 370.915,-413.615"/>
<polygon fill="black" stroke="black" points="372.471,-416.751 379.911,-409.208 369.391,-410.465 372.471,-416.751"/>
</g>
<!-- hd_init -->
<g id="node14" class="node"><title>hd_init</title>
<polygon fill="Wheat" stroke="black" points="381.151,-363.131 318.151,-363.131 318.151,-327.131 381.151,-327.131 381.151,-363.131"/>
<text text-anchor="middle" x="349.651" y="-341.331" font-family="Times,serif" font-size="16.00" fill="blue">hd_init</text>
</g>
<!-- main&#45;&gt;hd_init -->
<g id="edge13" class="edge"><title>main&#45;&gt;hd_init</title>
<path fill="none" stroke="black" d="M265.022,-454.19C281.82,-432.543 309.965,-396.274 329.147,-371.555"/>
<polygon fill="black" stroke="black" points="332.159,-373.382 335.524,-363.336 326.629,-369.091 332.159,-373.382"/>
</g>
<!-- floppy_init -->
<g id="node15" class="node"><title>floppy_init</title>
<polygon fill="Wheat" stroke="black" points="461.415,-478.606 372.415,-478.606 372.415,-442.606 461.415,-442.606 461.415,-478.606"/>
<text text-anchor="middle" x="416.915" y="-456.806" font-family="Times,serif" font-size="16.00" fill="blue">floppy_init</text>
</g>
<!-- main&#45;&gt;floppy_init -->
<g id="edge14" class="edge"><title>main&#45;&gt;floppy_init</title>
<path fill="none" stroke="black" d="M277.917,-470.503C300.67,-468.883 333.922,-466.516 362.198,-464.502"/>
<polygon fill="black" stroke="black" points="362.635,-467.98 372.361,-463.779 362.138,-460.998 362.635,-467.98"/>
</g>
<!-- sti -->
<g id="node16" class="node"><title>sti</title>
<polygon fill="Wheat" stroke="black" points="194.951,-384.569 140.951,-384.569 140.951,-348.569 194.951,-348.569 194.951,-384.569"/>
<text text-anchor="middle" x="167.951" y="-362.769" font-family="Times,serif" font-size="16.00" fill="blue">sti</text>
</g>
<!-- main&#45;&gt;sti -->
<g id="edge15" class="edge"><title>main&#45;&gt;sti</title>
<path fill="none" stroke="black" d="M236.426,-453.989C223.169,-437.064 203.384,-411.805 188.485,-392.784"/>
<polygon fill="black" stroke="black" points="191.151,-390.511 182.229,-384.797 185.64,-394.828 191.151,-390.511"/>
</g>
<!-- move_to_user_mode -->
<g id="node17" class="node"><title>move_to_user_mode</title>
<polygon fill="Wheat" stroke="black" points="354.053,-443.473 202.053,-443.473 202.053,-407.473 354.053,-407.473 354.053,-443.473"/>
<text text-anchor="middle" x="278.053" y="-421.673" font-family="Times,serif" font-size="16.00" fill="blue">move_to_user_mode</text>
</g>
<!-- main&#45;&gt;move_to_user_mode -->
<g id="edge16" class="edge"><title>main&#45;&gt;move_to_user_mode</title>
<path fill="none" stroke="black" d="M261.301,-454.409C261.683,-453.749 262.069,-453.084 262.456,-452.414"/>
<polygon fill="black" stroke="black" points="265.533,-454.086 267.514,-443.678 259.475,-450.579 265.533,-454.086"/>
</g>
<!-- fork -->
<g id="node18" class="node"><title>fork</title>
<polygon fill="Wheat" stroke="black" points="350.245,-623.656 296.245,-623.656 296.245,-587.656 350.245,-587.656 350.245,-623.656"/>
<text text-anchor="middle" x="323.245" y="-601.856" font-family="Times,serif" font-size="16.00" fill="blue">fork</text>
</g>
<!-- main&#45;&gt;fork -->
<g id="edge17" class="edge"><title>main&#45;&gt;fork</title>
<path fill="none" stroke="black" d="M260.781,-490.674C273.125,-513.397 294.319,-552.409 308.553,-578.611"/>
<polygon fill="black" stroke="black" points="305.604,-580.515 313.453,-587.631 311.755,-577.173 305.604,-580.515"/>
</g>
<!-- init  -->
<g id="node19" class="node"><title>init </title>
<polygon fill="Wheat" stroke="black" points="420.726,-754.731 366.726,-754.731 366.726,-718.731 420.726,-718.731 420.726,-754.731"/>
<text text-anchor="middle" x="393.726" y="-732.931" font-family="Times,serif" font-size="16.00" fill="blue">init </text>
</g>
<!-- main&#45;&gt;init  -->
<g id="edge18" class="edge"><title>main&#45;&gt;init </title>
<path fill="none" stroke="black" d="M260.688,-490.596C285.308,-536.145 349.777,-655.42 378.976,-709.443"/>
<polygon fill="black" stroke="black" points="376.004,-711.305 383.838,-718.438 382.162,-707.976 376.004,-711.305"/>
</g>
<!-- pause  -->
<g id="node33" class="node"><title>pause </title>
<polygon fill="Wheat" stroke="black" points="308.437,-342.842 252.437,-342.842 252.437,-306.842 308.437,-306.842 308.437,-342.842"/>
<text text-anchor="middle" x="280.437" y="-321.042" font-family="Times,serif" font-size="16.00" fill="blue">pause </text>
</g>
<!-- main&#45;&gt;pause  -->
<g id="edge33" class="edge"><title>main&#45;&gt;pause </title>
<path fill="none" stroke="black" d="M254.495,-454.332C259.549,-429.104 268.763,-383.113 274.74,-353.279"/>
<polygon fill="black" stroke="black" points="278.249,-353.58 276.782,-343.087 271.385,-352.204 278.249,-353.58"/>
</g>
<!-- CMOS_READ -->
<g id="node9" class="node"><title>CMOS_READ</title>
<polygon fill="Wheat" stroke="black" points="355.183,-61.4079 242.183,-61.4079 242.183,-25.4079 355.183,-25.4079 355.183,-61.4079"/>
<text text-anchor="middle" x="298.683" y="-39.6079" font-family="Times,serif" font-size="16.00" fill="blue">CMOS_READ</text>
</g>
<!-- time_init &#45;&gt;CMOS_READ -->
<g id="edge8" class="edge"><title>time_init &#45;&gt;CMOS_READ</title>
<path fill="none" stroke="black" d="M217.504,-209.17C233.434,-176.641 266.726,-108.661 285.347,-70.6391"/>
<polygon fill="black" stroke="black" points="288.49,-72.1779 289.745,-61.6577 282.203,-69.0992 288.49,-72.1779"/>
</g>
<!-- BCD_TO_BIN -->
<g id="node10" class="node"><title>BCD_TO_BIN</title>
<polygon fill="Wheat" stroke="black" points="134.833,-83.3775 21.8332,-83.3775 21.8332,-47.3775 134.833,-47.3775 134.833,-83.3775"/>
<text text-anchor="middle" x="78.3332" y="-61.5775" font-family="Times,serif" font-size="16.00" fill="blue">BCD_TO_BIN</text>
</g>
<!-- time_init &#45;&gt;BCD_TO_BIN -->
<g id="edge9" class="edge"><title>time_init &#45;&gt;BCD_TO_BIN</title>
<path fill="none" stroke="black" d="M193.848,-209.212C170.796,-180.509 126.012,-124.746 99.4874,-91.718"/>
<polygon fill="black" stroke="black" points="102.152,-89.4464 93.1615,-83.8411 96.6943,-93.8296 102.152,-89.4464"/>
</g>
<!-- kernel_mktime -->
<g id="node11" class="node"><title>kernel_mktime</title>
<polygon fill="Wheat" stroke="black" points="221.833,-35.7315 107.833,-35.7315 107.833,0.268516 221.833,0.268516 221.833,-35.7315"/>
<text text-anchor="middle" x="164.833" y="-13.9315" font-family="Times,serif" font-size="16.00" fill="blue">kernel_mktime</text>
</g>
<!-- time_init &#45;&gt;kernel_mktime -->
<g id="edge10" class="edge"><title>time_init &#45;&gt;kernel_mktime</title>
<path fill="none" stroke="black" d="M204.729,-209.246C197.075,-172.505 179.763,-89.4027 170.667,-45.7367"/>
<polygon fill="black" stroke="black" points="174.06,-44.8641 168.594,-35.788 167.207,-46.2917 174.06,-44.8641"/>
</g>
<!-- init &#45;&gt;fork -->
<g id="edge27" class="edge"><title>init &#45;&gt;fork</title>
<path fill="none" stroke="black" d="M383.926,-718.506C371.933,-696.203 351.523,-658.246 337.72,-632.576"/>
<polygon fill="black" stroke="black" points="340.78,-630.877 332.962,-623.727 334.615,-634.192 340.78,-630.877"/>
</g>
<!-- setup -->
<g id="node20" class="node"><title>setup</title>
<polygon fill="Wheat" stroke="black" points="316.16,-874.811 262.16,-874.811 262.16,-838.811 316.16,-838.811 316.16,-874.811"/>
<text text-anchor="middle" x="289.16" y="-853.011" font-family="Times,serif" font-size="16.00" fill="blue">setup</text>
</g>
<!-- init &#45;&gt;setup -->
<g id="edge19" class="edge"><title>init &#45;&gt;setup</title>
<path fill="none" stroke="black" d="M377.844,-754.969C360.161,-775.276 331.45,-808.247 311.505,-831.151"/>
<polygon fill="black" stroke="black" points="308.776,-828.956 304.848,-838.796 314.055,-833.553 308.776,-828.956"/>
</g>
<!-- open -->
<g id="node21" class="node"><title>open</title>
<polygon fill="Wheat" stroke="black" points="547.297,-673.699 493.297,-673.699 493.297,-637.699 547.297,-637.699 547.297,-673.699"/>
<text text-anchor="middle" x="520.297" y="-651.899" font-family="Times,serif" font-size="16.00" fill="blue">open</text>
</g>
<!-- init &#45;&gt;open -->
<g id="edge20" class="edge"><title>init &#45;&gt;open</title>
<path fill="none" stroke="black" d="M420.878,-719.348C439.481,-707.438 464.348,-691.518 484.558,-678.58"/>
<polygon fill="black" stroke="black" points="486.654,-681.394 493.189,-673.054 482.88,-675.498 486.654,-681.394"/>
</g>
<!-- dup -->
<g id="node22" class="node"><title>dup</title>
<polygon fill="Wheat" stroke="black" points="389.143,-906.231 335.143,-906.231 335.143,-870.231 389.143,-870.231 389.143,-906.231"/>
<text text-anchor="middle" x="362.143" y="-884.431" font-family="Times,serif" font-size="16.00" fill="blue">dup</text>
</g>
<!-- init &#45;&gt;dup -->
<g id="edge21" class="edge"><title>init &#45;&gt;dup</title>
<path fill="none" stroke="black" d="M389.916,-755.006C384.486,-781.054 374.471,-829.097 368.067,-859.814"/>
<polygon fill="black" stroke="black" points="364.581,-859.388 365.967,-869.892 371.434,-860.817 364.581,-859.388"/>
</g>
<!-- printf  -->
<g id="node23" class="node"><title>printf </title>
<polygon fill="Wheat" stroke="black" points="528.598,-970.624 472.598,-970.624 472.598,-934.624 528.598,-934.624 528.598,-970.624"/>
<text text-anchor="middle" x="500.598" y="-948.824" font-family="Times,serif" font-size="16.00" fill="blue">printf </text>
</g>
<!-- init &#45;&gt;printf  -->
<g id="edge22" class="edge"><title>init &#45;&gt;printf </title>
<path fill="none" stroke="black" d="M402.654,-754.767C421.396,-792.627 464.933,-880.578 487.103,-925.363"/>
<polygon fill="black" stroke="black" points="484.047,-927.079 491.62,-934.488 490.32,-923.973 484.047,-927.079"/>
</g>
<!-- close -->
<g id="node28" class="node"><title>close</title>
<polygon fill="Wheat" stroke="black" points="286.718,-820.525 232.718,-820.525 232.718,-784.525 286.718,-784.525 286.718,-820.525"/>
<text text-anchor="middle" x="259.718" y="-798.725" font-family="Times,serif" font-size="16.00" fill="blue">close</text>
</g>
<!-- init &#45;&gt;close -->
<g id="edge28" class="edge"><title>init &#45;&gt;close</title>
<path fill="none" stroke="black" d="M366.607,-750.046C346.264,-760.034 318.207,-773.809 295.944,-784.739"/>
<polygon fill="black" stroke="black" points="294.23,-781.682 286.796,-789.231 297.315,-787.965 294.23,-781.682"/>
</g>
<!-- execve -->
<g id="node29" class="node"><title>execve</title>
<polygon fill="Wheat" stroke="black" points="576.009,-794.206 516.009,-794.206 516.009,-758.206 576.009,-758.206 576.009,-794.206"/>
<text text-anchor="middle" x="546.009" y="-772.406" font-family="Times,serif" font-size="16.00" fill="blue">execve</text>
</g>
<!-- init &#45;&gt;execve -->
<g id="edge29" class="edge"><title>init &#45;&gt;execve</title>
<path fill="none" stroke="black" d="M420.951,-743.789C444.619,-749.924 479.223,-758.894 506.033,-765.844"/>
<polygon fill="black" stroke="black" points="505.33,-769.277 515.888,-768.398 507.087,-762.501 505.33,-769.277"/>
</g>
<!-- wait -->
<g id="node30" class="node"><title>wait</title>
<polygon fill="Wheat" stroke="black" points="528.914,-845.348 474.914,-845.348 474.914,-809.348 528.914,-809.348 528.914,-845.348"/>
<text text-anchor="middle" x="501.914" y="-823.548" font-family="Times,serif" font-size="16.00" fill="blue">wait</text>
</g>
<!-- init &#45;&gt;wait -->
<g id="edge30" class="edge"><title>init &#45;&gt;wait</title>
<path fill="none" stroke="black" d="M415.359,-754.851C431.722,-768.557 454.374,-787.529 472.4,-802.628"/>
<polygon fill="black" stroke="black" points="470.404,-805.521 480.318,-809.259 474.899,-800.155 470.404,-805.521"/>
</g>
<!-- setsid -->
<g id="node31" class="node"><title>setsid</title>
<polygon fill="Wheat" stroke="black" points="573.777,-732.504 519.777,-732.504 519.777,-696.504 573.777,-696.504 573.777,-732.504"/>
<text text-anchor="middle" x="546.777" y="-710.704" font-family="Times,serif" font-size="16.00" fill="blue">setsid</text>
</g>
<!-- init &#45;&gt;setsid -->
<g id="edge31" class="edge"><title>init &#45;&gt;setsid</title>
<path fill="none" stroke="black" d="M420.736,-732.809C445.391,-729.228 482.062,-723.903 509.502,-719.918"/>
<polygon fill="black" stroke="black" points="510.129,-723.363 519.522,-718.462 509.123,-716.436 510.129,-723.363"/>
</g>
<!-- sync  -->
<g id="node32" class="node"><title>sync </title>
<polygon fill="Wheat" stroke="black" points="454.305,-887.676 400.305,-887.676 400.305,-851.676 454.305,-851.676 454.305,-887.676"/>
<text text-anchor="middle" x="427.305" y="-865.876" font-family="Times,serif" font-size="16.00" fill="blue">sync </text>
</g>
<!-- init &#45;&gt;sync  -->
<g id="edge32" class="edge"><title>init &#45;&gt;sync </title>
<path fill="none" stroke="black" d="M398.324,-754.938C403.97,-777.288 413.604,-815.431 420.203,-841.558"/>
<polygon fill="black" stroke="black" points="416.812,-842.424 422.654,-851.263 423.599,-840.71 416.812,-842.424"/>
</g>
<!-- va_start -->
<g id="node24" class="node"><title>va_start</title>
<polygon fill="Wheat" stroke="black" points="566.853,-1139.91 499.853,-1139.91 499.853,-1103.91 566.853,-1103.91 566.853,-1139.91"/>
<text text-anchor="middle" x="533.353" y="-1118.11" font-family="Times,serif" font-size="16.00" fill="blue">va_start</text>
</g>
<!-- printf &#45;&gt;va_start -->
<g id="edge23" class="edge"><title>printf &#45;&gt;va_start</title>
<path fill="none" stroke="black" d="M504.103,-970.74C509.802,-1000.19 521.117,-1058.67 527.881,-1093.63"/>
<polygon fill="black" stroke="black" points="524.487,-1094.51 529.823,-1103.66 531.36,-1093.18 524.487,-1094.51"/>
</g>
<!-- write -->
<g id="node25" class="node"><title>write</title>
<polygon fill="Wheat" stroke="black" points="491.43,-1130.32 437.43,-1130.32 437.43,-1094.32 491.43,-1094.32 491.43,-1130.32"/>
<text text-anchor="middle" x="464.43" y="-1108.52" font-family="Times,serif" font-size="16.00" fill="blue">write</text>
</g>
<!-- printf &#45;&gt;write -->
<g id="edge24" class="edge"><title>printf &#45;&gt;write</title>
<path fill="none" stroke="black" d="M496.519,-970.632C490.251,-998.308 478.199,-1051.52 470.782,-1084.27"/>
<polygon fill="black" stroke="black" points="467.345,-1083.6 468.549,-1094.13 474.172,-1085.15 467.345,-1083.6"/>
</g>
<!-- vsprintf -->
<g id="node26" class="node"><title>vsprintf</title>
<polygon fill="Wheat" stroke="black" points="689.72,-1042.56 622.72,-1042.56 622.72,-1006.56 689.72,-1006.56 689.72,-1042.56"/>
<text text-anchor="middle" x="656.22" y="-1020.76" font-family="Times,serif" font-size="16.00" fill="blue">vsprintf</text>
</g>
<!-- printf &#45;&gt;vsprintf -->
<g id="edge25" class="edge"><title>printf &#45;&gt;vsprintf</title>
<path fill="none" stroke="black" d="M528.78,-965.65C552.364,-976.551 586.387,-992.278 613.348,-1004.74"/>
<polygon fill="black" stroke="black" points="612.015,-1007.98 622.561,-1009 614.952,-1001.63 612.015,-1007.98"/>
</g>
<!-- va_end -->
<g id="node27" class="node"><title>va_end</title>
<polygon fill="Wheat" stroke="black" points="644.14,-1096.19 581.14,-1096.19 581.14,-1060.19 644.14,-1060.19 644.14,-1096.19"/>
<text text-anchor="middle" x="612.64" y="-1074.39" font-family="Times,serif" font-size="16.00" fill="blue">va_end</text>
</g>
<!-- printf &#45;&gt;va_end -->
<g id="edge26" class="edge"><title>printf &#45;&gt;va_end</title>
<path fill="none" stroke="black" d="M516.89,-970.882C535.975,-992.271 567.734,-1027.86 589.4,-1052.15"/>
<polygon fill="black" stroke="black" points="587.059,-1054.78 596.328,-1059.91 592.282,-1050.12 587.059,-1054.78"/>
</g>
</g>
</svg>
