<?xml version="1.0" encoding="UTF-8" standalone="no"?>
<!DOCTYPE svg PUBLIC "-//W3C//DTD SVG 1.1//EN"
 "http://www.w3.org/Graphics/SVG/1.1/DTD/svg11.dtd">
<!-- Generated by graphviz version 2.36.0 (20140111.2315)
 -->
<!-- Title: G Pages: 1 -->
<svg width="546pt" height="422pt"
 viewBox="0.00 0.00 546.00 422.00" xmlns="http://www.w3.org/2000/svg" xmlns:xlink="http://www.w3.org/1999/xlink">
<g id="graph0" class="graph" transform="scale(1 1) rotate(0) translate(4 418)">
<title>G</title>
<polygon fill="white" stroke="none" points="-4,4 -4,-418 542,-418 542,4 -4,4"/>
<!-- update_process_times -->
<g id="node1" class="node"><title>update_process_times</title>
<polygon fill="Wheat" stroke="black" points="158,-225 1.42109e-14,-225 1.42109e-14,-189 158,-189 158,-225"/>
<text text-anchor="middle" x="79" y="-203.2" font-family="Times,serif" font-size="16.00" fill="blue">update_process_times</text>
</g>
<!-- smp_processor_id -->
<g id="node2" class="node"><title>smp_processor_id</title>
<polygon fill="Wheat" stroke="black" points="342,-414 208,-414 208,-378 342,-378 342,-414"/>
<text text-anchor="middle" x="275" y="-392.2" font-family="Times,serif" font-size="16.00" fill="blue">smp_processor_id</text>
</g>
<!-- update_process_times&#45;&gt;smp_processor_id -->
<g id="edge1" class="edge"><title>update_process_times&#45;&gt;smp_processor_id</title>
<path fill="none" stroke="black" d="M88.0152,-225.164C103.62,-258.489 141.236,-329.588 194,-369 195.813,-370.354 197.698,-371.643 199.64,-372.87"/>
<polygon fill="black" stroke="black" points="198.045,-375.989 208.473,-377.86 201.488,-369.894 198.045,-375.989"/>
</g>
<!-- account_process_tick -->
<g id="node3" class="node"><title>account_process_tick</title>
<polygon fill="Wheat" stroke="black" points="352,-360 198,-360 198,-324 352,-324 352,-360"/>
<text text-anchor="middle" x="275" y="-338.2" font-family="Times,serif" font-size="16.00" fill="blue">account_process_tick</text>
</g>
<!-- update_process_times&#45;&gt;account_process_tick -->
<g id="edge2" class="edge"><title>update_process_times&#45;&gt;account_process_tick</title>
<path fill="none" stroke="black" d="M94.7404,-225.204C114.862,-248.959 153.126,-290.391 194,-315 196.676,-316.611 199.462,-318.142 202.319,-319.593"/>
<polygon fill="black" stroke="black" points="201.105,-322.889 211.646,-323.963 204.075,-316.551 201.105,-322.889"/>
</g>
<!-- run_local_timers  -->
<g id="node4" class="node"><title>run_local_timers </title>
<polygon fill="Wheat" stroke="black" points="339.5,-306 210.5,-306 210.5,-270 339.5,-270 339.5,-306"/>
<text text-anchor="middle" x="275" y="-284.2" font-family="Times,serif" font-size="16.00" fill="blue">run_local_timers </text>
</g>
<!-- update_process_times&#45;&gt;run_local_timers  -->
<g id="edge3" class="edge"><title>update_process_times&#45;&gt;run_local_timers </title>
<path fill="none" stroke="black" d="M115.463,-225.113C137.725,-236.153 167.197,-250.172 194,-261 198.638,-262.874 203.461,-264.728 208.337,-266.534"/>
<polygon fill="black" stroke="black" points="207.152,-269.827 217.746,-269.941 209.535,-263.245 207.152,-269.827"/>
</g>
<!-- rcu_check_callbacks -->
<g id="node7" class="node"><title>rcu_check_callbacks</title>
<polygon fill="Wheat" stroke="black" points="349.5,-252 200.5,-252 200.5,-216 349.5,-216 349.5,-252"/>
<text text-anchor="middle" x="275" y="-230.2" font-family="Times,serif" font-size="16.00" fill="blue">rcu_check_callbacks</text>
</g>
<!-- update_process_times&#45;&gt;rcu_check_callbacks -->
<g id="edge6" class="edge"><title>update_process_times&#45;&gt;rcu_check_callbacks</title>
<path fill="none" stroke="black" d="M158.069,-217.865C168.681,-219.342 179.607,-220.863 190.313,-222.353"/>
<polygon fill="black" stroke="black" points="190.105,-225.858 200.492,-223.77 191.07,-218.924 190.105,-225.858"/>
</g>
<!-- in_irq -->
<g id="node8" class="node"><title>in_irq</title>
<polygon fill="Wheat" stroke="black" points="303,-198 247,-198 247,-162 303,-162 303,-198"/>
<text text-anchor="middle" x="275" y="-176.2" font-family="Times,serif" font-size="16.00" fill="blue">in_irq</text>
</g>
<!-- update_process_times&#45;&gt;in_irq -->
<g id="edge7" class="edge"><title>update_process_times&#45;&gt;in_irq</title>
<path fill="none" stroke="black" d="M158.069,-196.135C185.155,-192.365 214.29,-188.31 236.577,-185.208"/>
<polygon fill="black" stroke="black" points="237.193,-188.656 246.615,-183.811 236.228,-181.723 237.193,-188.656"/>
</g>
<!-- irq_work_run -->
<g id="node9" class="node"><title>irq_work_run</title>
<polygon fill="Wheat" stroke="black" points="328,-144 222,-144 222,-108 328,-108 328,-144"/>
<text text-anchor="middle" x="275" y="-122.2" font-family="Times,serif" font-size="16.00" fill="blue">irq_work_run</text>
</g>
<!-- update_process_times&#45;&gt;irq_work_run -->
<g id="edge8" class="edge"><title>update_process_times&#45;&gt;irq_work_run</title>
<path fill="none" stroke="black" d="M115.463,-188.887C137.725,-177.847 167.197,-163.828 194,-153 199.798,-150.658 205.884,-148.347 212.003,-146.121"/>
<polygon fill="black" stroke="black" points="213.36,-149.353 221.607,-142.702 211.012,-142.759 213.36,-149.353"/>
</g>
<!-- scheduler_tick -->
<g id="node10" class="node"><title>scheduler_tick</title>
<polygon fill="Wheat" stroke="black" points="330,-90 220,-90 220,-54 330,-54 330,-90"/>
<text text-anchor="middle" x="275" y="-68.2" font-family="Times,serif" font-size="16.00" fill="blue">scheduler_tick</text>
</g>
<!-- update_process_times&#45;&gt;scheduler_tick -->
<g id="edge9" class="edge"><title>update_process_times&#45;&gt;scheduler_tick</title>
<path fill="none" stroke="black" d="M94.7404,-188.796C114.862,-165.041 153.126,-123.609 194,-99 199.068,-95.9485 204.527,-93.1881 210.127,-90.7028"/>
<polygon fill="black" stroke="black" points="211.732,-93.827 219.641,-86.7772 209.062,-87.3562 211.732,-93.827"/>
</g>
<!-- run_posix_cpu_timers -->
<g id="node11" class="node"><title>run_posix_cpu_timers</title>
<polygon fill="Wheat" stroke="black" points="355.5,-36 194.5,-36 194.5,-0 355.5,-0 355.5,-36"/>
<text text-anchor="middle" x="275" y="-14.2" font-family="Times,serif" font-size="16.00" fill="blue">run_posix_cpu_timers</text>
</g>
<!-- update_process_times&#45;&gt;run_posix_cpu_timers -->
<g id="edge10" class="edge"><title>update_process_times&#45;&gt;run_posix_cpu_timers</title>
<path fill="none" stroke="black" d="M88.0152,-188.836C103.62,-155.511 141.236,-84.4117 194,-45 195.813,-43.6458 197.698,-42.3567 199.64,-41.1299"/>
<polygon fill="black" stroke="black" points="201.488,-44.1061 208.473,-36.1401 198.045,-38.0113 201.488,-44.1061"/>
</g>
<!-- hrtimer_run_queues -->
<g id="node5" class="node"><title>hrtimer_run_queues</title>
<polygon fill="Wheat" stroke="black" points="538,-333 392,-333 392,-297 538,-297 538,-333"/>
<text text-anchor="middle" x="465" y="-311.2" font-family="Times,serif" font-size="16.00" fill="blue">hrtimer_run_queues</text>
</g>
<!-- run_local_timers &#45;&gt;hrtimer_run_queues -->
<g id="edge4" class="edge"><title>run_local_timers &#45;&gt;hrtimer_run_queues</title>
<path fill="none" stroke="black" d="M339.648,-297.141C353.106,-299.074 367.494,-301.14 381.533,-303.156"/>
<polygon fill="black" stroke="black" points="381.28,-306.656 391.676,-304.613 382.275,-299.727 381.28,-306.656"/>
</g>
<!-- raise_softirq -->
<g id="node6" class="node"><title>raise_softirq</title>
<polygon fill="Wheat" stroke="black" points="513,-279 417,-279 417,-243 513,-243 513,-279"/>
<text text-anchor="middle" x="465" y="-257.2" font-family="Times,serif" font-size="16.00" fill="blue">raise_softirq</text>
</g>
<!-- run_local_timers &#45;&gt;raise_softirq -->
<g id="edge5" class="edge"><title>run_local_timers &#45;&gt;raise_softirq</title>
<path fill="none" stroke="black" d="M339.648,-278.859C361.344,-275.743 385.457,-272.28 406.63,-269.239"/>
<polygon fill="black" stroke="black" points="407.364,-272.67 416.764,-267.784 406.368,-265.741 407.364,-272.67"/>
</g>
</g>
</svg>
