<?xml version="1.0" encoding="UTF-8" standalone="no"?>
<!DOCTYPE svg PUBLIC "-//W3C//DTD SVG 1.1//EN"
 "http://www.w3.org/Graphics/SVG/1.1/DTD/svg11.dtd">
<!-- Generated by graphviz version 2.36.0 (20140111.2315)
 -->
<!-- Title: G Pages: 1 -->
<svg width="356pt" height="1070pt"
 viewBox="0.00 0.00 356.00 1070.00" xmlns="http://www.w3.org/2000/svg" xmlns:xlink="http://www.w3.org/1999/xlink">
<g id="graph0" class="graph" transform="scale(1 1) rotate(0) translate(4 1066)">
<title>G</title>
<polygon fill="white" stroke="none" points="-4,4 -4,-1066 352,-1066 352,4 -4,4"/>
<!-- kernel -->
<g id="node1" class="node"><title>kernel</title>
<polygon fill="Wheat" stroke="black" points="56,-414 0,-414 0,-378 56,-378 56,-414"/>
<text text-anchor="middle" x="28" y="-392.2" font-family="Times,serif" font-size="16.00" fill="blue">kernel</text>
</g>
<!-- asm.s -->
<g id="node2" class="node"><title>asm.s</title>
<polygon fill="Wheat" stroke="black" points="170,-954 116,-954 116,-918 170,-918 170,-954"/>
<text text-anchor="middle" x="143" y="-932.2" font-family="Times,serif" font-size="16.00" fill="blue">asm.s</text>
</g>
<!-- kernel&#45;&gt;asm.s -->
<g id="edge1" class="edge"><title>kernel&#45;&gt;asm.s</title>
<path fill="none" stroke="black" d="M29.0512,-414.152C29.6013,-495.483 35.3426,-825.994 92,-909 95.7593,-914.508 101.019,-918.989 106.725,-922.602"/>
<polygon fill="black" stroke="black" points="105.449,-925.892 115.907,-927.589 108.79,-919.741 105.449,-925.892"/>
</g>
<!-- blk_drv -->
<g id="node3" class="node"><title>blk_drv</title>
<polygon fill="Wheat" stroke="black" points="177,-900 109,-900 109,-864 177,-864 177,-900"/>
<text text-anchor="middle" x="143" y="-878.2" font-family="Times,serif" font-size="16.00" fill="blue">blk_drv</text>
</g>
<!-- kernel&#45;&gt;blk_drv -->
<g id="edge2" class="edge"><title>kernel&#45;&gt;blk_drv</title>
<path fill="none" stroke="black" d="M32.5239,-414.15C41.6258,-460.667 66.9637,-587.885 92,-693 105.671,-750.398 123.831,-816.995 134.08,-853.83"/>
<polygon fill="black" stroke="black" points="130.812,-855.14 136.872,-863.831 137.554,-853.258 130.812,-855.14"/>
</g>
<!-- chr_drv -->
<g id="node9" class="node"><title>chr_drv</title>
<polygon fill="Wheat" stroke="black" points="176.5,-684 109.5,-684 109.5,-648 176.5,-648 176.5,-684"/>
<text text-anchor="middle" x="143" y="-662.2" font-family="Times,serif" font-size="16.00" fill="blue">chr_drv</text>
</g>
<!-- kernel&#45;&gt;chr_drv -->
<g id="edge8" class="edge"><title>kernel&#45;&gt;chr_drv</title>
<path fill="none" stroke="black" d="M28.9722,-414.301C29.8284,-457.919 37.565,-569.533 92,-639 94.6013,-642.32 97.7281,-645.283 101.132,-647.918"/>
<polygon fill="black" stroke="black" points="99.2023,-650.838 109.463,-653.479 103.089,-645.016 99.2023,-650.838"/>
</g>
<!-- exit.c -->
<g id="node16" class="node"><title>exit.c</title>
<polygon fill="Wheat" stroke="black" points="170,-630 116,-630 116,-594 170,-594 170,-630"/>
<text text-anchor="middle" x="143" y="-608.2" font-family="Times,serif" font-size="16.00" fill="blue">exit.c</text>
</g>
<!-- kernel&#45;&gt;exit.c -->
<g id="edge15" class="edge"><title>kernel&#45;&gt;exit.c</title>
<path fill="none" stroke="black" d="M30.6052,-414.003C34.701,-450.305 48.506,-533.226 92,-585 96.1643,-589.957 101.479,-594.147 107.081,-597.637"/>
<polygon fill="black" stroke="black" points="105.55,-600.79 115.997,-602.556 108.932,-594.661 105.55,-600.79"/>
</g>
<!-- fork.c -->
<g id="node17" class="node"><title>fork.c</title>
<polygon fill="Wheat" stroke="black" points="170,-576 116,-576 116,-540 170,-540 170,-576"/>
<text text-anchor="middle" x="143" y="-554.2" font-family="Times,serif" font-size="16.00" fill="blue">fork.c</text>
</g>
<!-- kernel&#45;&gt;fork.c -->
<g id="edge16" class="edge"><title>kernel&#45;&gt;fork.c</title>
<path fill="none" stroke="black" d="M33.5248,-414.272C41.2861,-442.377 59.5251,-496.567 92,-531 96.3532,-535.616 101.675,-539.616 107.203,-543.019"/>
<polygon fill="black" stroke="black" points="105.511,-546.083 115.952,-547.878 108.909,-539.963 105.511,-546.083"/>
</g>
<!-- math -->
<g id="node18" class="node"><title>math</title>
<polygon fill="Wheat" stroke="black" points="170,-522 116,-522 116,-486 170,-486 170,-522"/>
<text text-anchor="middle" x="143" y="-500.2" font-family="Times,serif" font-size="16.00" fill="blue">math</text>
</g>
<!-- kernel&#45;&gt;math -->
<g id="edge17" class="edge"><title>kernel&#45;&gt;math</title>
<path fill="none" stroke="black" d="M39.9682,-414.192C51.313,-431.885 70.3796,-458.699 92,-477 96.5344,-480.838 101.702,-484.365 106.954,-487.514"/>
<polygon fill="black" stroke="black" points="105.34,-490.621 115.777,-492.445 108.756,-484.511 105.34,-490.621"/>
</g>
<!-- mktime.c -->
<g id="node20" class="node"><title>mktime.c</title>
<polygon fill="Wheat" stroke="black" points="181.5,-468 104.5,-468 104.5,-432 181.5,-432 181.5,-468"/>
<text text-anchor="middle" x="143" y="-446.2" font-family="Times,serif" font-size="16.00" fill="blue">mktime.c</text>
</g>
<!-- kernel&#45;&gt;mktime.c -->
<g id="edge19" class="edge"><title>kernel&#45;&gt;mktime.c</title>
<path fill="none" stroke="black" d="M56.0663,-408.934C67.8436,-414.562 81.988,-421.322 95.3702,-427.717"/>
<polygon fill="black" stroke="black" points="93.9426,-430.914 104.474,-432.067 96.9609,-424.598 93.9426,-430.914"/>
</g>
<!-- panic.c -->
<g id="node21" class="node"><title>panic.c</title>
<polygon fill="Wheat" stroke="black" points="174,-414 112,-414 112,-378 174,-378 174,-414"/>
<text text-anchor="middle" x="143" y="-392.2" font-family="Times,serif" font-size="16.00" fill="blue">panic.c</text>
</g>
<!-- kernel&#45;&gt;panic.c -->
<g id="edge20" class="edge"><title>kernel&#45;&gt;panic.c</title>
<path fill="none" stroke="black" d="M56.0663,-396C69.7534,-396 86.6377,-396 101.807,-396"/>
<polygon fill="black" stroke="black" points="101.974,-399.5 111.974,-396 101.974,-392.5 101.974,-399.5"/>
</g>
<!-- printk.c -->
<g id="node22" class="node"><title>printk.c</title>
<polygon fill="Wheat" stroke="black" points="176,-360 110,-360 110,-324 176,-324 176,-360"/>
<text text-anchor="middle" x="143" y="-338.2" font-family="Times,serif" font-size="16.00" fill="blue">printk.c</text>
</g>
<!-- kernel&#45;&gt;printk.c -->
<g id="edge21" class="edge"><title>kernel&#45;&gt;printk.c</title>
<path fill="none" stroke="black" d="M56.0663,-383.066C69.4759,-376.658 85.9544,-368.783 100.882,-361.649"/>
<polygon fill="black" stroke="black" points="102.422,-364.793 109.935,-357.323 99.4033,-358.477 102.422,-364.793"/>
</g>
<!-- sched.c -->
<g id="node23" class="node"><title>sched.c</title>
<polygon fill="Wheat" stroke="black" points="174.5,-306 111.5,-306 111.5,-270 174.5,-270 174.5,-306"/>
<text text-anchor="middle" x="143" y="-284.2" font-family="Times,serif" font-size="16.00" fill="blue">sched.c</text>
</g>
<!-- kernel&#45;&gt;sched.c -->
<g id="edge22" class="edge"><title>kernel&#45;&gt;sched.c</title>
<path fill="none" stroke="black" d="M39.9682,-377.808C51.313,-360.115 70.3796,-333.301 92,-315 95.2614,-312.239 98.8504,-309.64 102.563,-307.226"/>
<polygon fill="black" stroke="black" points="104.585,-310.094 111.353,-301.943 100.979,-304.095 104.585,-310.094"/>
</g>
<!-- signal.c -->
<g id="node24" class="node"><title>signal.c</title>
<polygon fill="Wheat" stroke="black" points="175.5,-252 110.5,-252 110.5,-216 175.5,-216 175.5,-252"/>
<text text-anchor="middle" x="143" y="-230.2" font-family="Times,serif" font-size="16.00" fill="blue">signal.c</text>
</g>
<!-- kernel&#45;&gt;signal.c -->
<g id="edge23" class="edge"><title>kernel&#45;&gt;signal.c</title>
<path fill="none" stroke="black" d="M33.5248,-377.728C41.2861,-349.623 59.5251,-295.433 92,-261 94.9317,-257.892 98.3027,-255.062 101.88,-252.506"/>
<polygon fill="black" stroke="black" points="103.928,-255.352 110.494,-247.036 100.176,-249.442 103.928,-255.352"/>
</g>
<!-- sys.c -->
<g id="node25" class="node"><title>sys.c</title>
<polygon fill="Wheat" stroke="black" points="170,-198 116,-198 116,-162 170,-162 170,-198"/>
<text text-anchor="middle" x="143" y="-176.2" font-family="Times,serif" font-size="16.00" fill="blue">sys.c</text>
</g>
<!-- kernel&#45;&gt;sys.c -->
<g id="edge24" class="edge"><title>kernel&#45;&gt;sys.c</title>
<path fill="none" stroke="black" d="M30.6052,-377.997C34.701,-341.695 48.506,-258.774 92,-207 96.1643,-202.043 101.479,-197.853 107.081,-194.363"/>
<polygon fill="black" stroke="black" points="108.932,-197.339 115.997,-189.444 105.55,-191.21 108.932,-197.339"/>
</g>
<!-- system_call.s -->
<g id="node26" class="node"><title>system_call.s</title>
<polygon fill="Wheat" stroke="black" points="193.5,-144 92.5,-144 92.5,-108 193.5,-108 193.5,-144"/>
<text text-anchor="middle" x="143" y="-122.2" font-family="Times,serif" font-size="16.00" fill="blue">system_call.s</text>
</g>
<!-- kernel&#45;&gt;system_call.s -->
<g id="edge25" class="edge"><title>kernel&#45;&gt;system_call.s</title>
<path fill="none" stroke="black" d="M28.9722,-377.699C29.8284,-334.081 37.565,-222.467 92,-153 92.4792,-152.388 92.9762,-151.789 93.4895,-151.202"/>
<polygon fill="black" stroke="black" points="96.0404,-153.608 100.954,-144.221 91.2591,-148.495 96.0404,-153.608"/>
</g>
<!-- traps.c -->
<g id="node27" class="node"><title>traps.c</title>
<polygon fill="Wheat" stroke="black" points="172,-90 114,-90 114,-54 172,-54 172,-90"/>
<text text-anchor="middle" x="143" y="-68.2" font-family="Times,serif" font-size="16.00" fill="blue">traps.c</text>
</g>
<!-- kernel&#45;&gt;traps.c -->
<g id="edge26" class="edge"><title>kernel&#45;&gt;traps.c</title>
<path fill="none" stroke="black" d="M30.8454,-377.886C36.9894,-320.531 58.2915,-144.053 92,-99 95.559,-94.2433 100.21,-90.2304 105.243,-86.8746"/>
<polygon fill="black" stroke="black" points="107.049,-89.8734 113.947,-81.8321 103.54,-83.8163 107.049,-89.8734"/>
</g>
<!-- vsprintf.c -->
<g id="node28" class="node"><title>vsprintf.c</title>
<polygon fill="Wheat" stroke="black" points="181.5,-36 104.5,-36 104.5,-0 181.5,-0 181.5,-36"/>
<text text-anchor="middle" x="143" y="-14.2" font-family="Times,serif" font-size="16.00" fill="blue">vsprintf.c</text>
</g>
<!-- kernel&#45;&gt;vsprintf.c -->
<g id="edge27" class="edge"><title>kernel&#45;&gt;vsprintf.c</title>
<path fill="none" stroke="black" d="M30.1982,-377.832C34.731,-313.779 52.6081,-99.4113 92,-45 93.2149,-43.3219 94.5669,-41.7374 96.0254,-40.2425"/>
<polygon fill="black" stroke="black" points="98.6542,-42.6055 104.063,-33.4954 94.1536,-37.2441 98.6542,-42.6055"/>
</g>
<!-- blk.h -->
<g id="node4" class="node"><title>blk.h</title>
<polygon fill="Wheat" stroke="black" points="316,-1062 262,-1062 262,-1026 316,-1026 316,-1062"/>
<text text-anchor="middle" x="289" y="-1040.2" font-family="Times,serif" font-size="16.00" fill="blue">blk.h</text>
</g>
<!-- blk_drv&#45;&gt;blk.h -->
<g id="edge3" class="edge"><title>blk_drv&#45;&gt;blk.h</title>
<path fill="none" stroke="black" d="M177.02,-895.212C183.312,-898.921 189.368,-903.486 194,-909 226.545,-947.74 196.318,-979.244 230,-1017 236.071,-1023.8 244.213,-1029.02 252.474,-1032.97"/>
<polygon fill="black" stroke="black" points="251.174,-1036.22 261.747,-1036.9 253.909,-1029.78 251.174,-1036.22"/>
</g>
<!-- floppy.c -->
<g id="node5" class="node"><title>floppy.c</title>
<polygon fill="Wheat" stroke="black" points="324,-1008 254,-1008 254,-972 324,-972 324,-1008"/>
<text text-anchor="middle" x="289" y="-986.2" font-family="Times,serif" font-size="16.00" fill="blue">floppy.c</text>
</g>
<!-- blk_drv&#45;&gt;floppy.c -->
<g id="edge4" class="edge"><title>blk_drv&#45;&gt;floppy.c</title>
<path fill="none" stroke="black" d="M177.007,-896.834C183.017,-900.341 188.968,-904.415 194,-909 215.321,-928.427 208.111,-944.215 230,-963 234.482,-966.846 239.604,-970.259 244.907,-973.254"/>
<polygon fill="black" stroke="black" points="243.429,-976.43 253.922,-977.9 246.636,-970.207 243.429,-976.43"/>
</g>
<!-- hd.c -->
<g id="node6" class="node"><title>hd.c</title>
<polygon fill="Wheat" stroke="black" points="316,-954 262,-954 262,-918 316,-918 316,-954"/>
<text text-anchor="middle" x="289" y="-932.2" font-family="Times,serif" font-size="16.00" fill="blue">hd.c</text>
</g>
<!-- blk_drv&#45;&gt;hd.c -->
<g id="edge5" class="edge"><title>blk_drv&#45;&gt;hd.c</title>
<path fill="none" stroke="black" d="M177.037,-894.389C199.56,-902.835 229.362,-914.011 252.41,-922.654"/>
<polygon fill="black" stroke="black" points="251.24,-925.953 261.833,-926.187 253.698,-919.399 251.24,-925.953"/>
</g>
<!-- ll_rw_blk.c -->
<g id="node7" class="node"><title>ll_rw_blk.c</title>
<polygon fill="Wheat" stroke="black" points="334,-900 244,-900 244,-864 334,-864 334,-900"/>
<text text-anchor="middle" x="289" y="-878.2" font-family="Times,serif" font-size="16.00" fill="blue">ll_rw_blk.c</text>
</g>
<!-- blk_drv&#45;&gt;ll_rw_blk.c -->
<g id="edge6" class="edge"><title>blk_drv&#45;&gt;ll_rw_blk.c</title>
<path fill="none" stroke="black" d="M177.037,-882C193.858,-882 214.741,-882 233.837,-882"/>
<polygon fill="black" stroke="black" points="233.926,-885.5 243.926,-882 233.926,-878.5 233.926,-885.5"/>
</g>
<!-- ramdisk.c -->
<g id="node8" class="node"><title>ramdisk.c</title>
<polygon fill="Wheat" stroke="black" points="328.5,-846 249.5,-846 249.5,-810 328.5,-810 328.5,-846"/>
<text text-anchor="middle" x="289" y="-824.2" font-family="Times,serif" font-size="16.00" fill="blue">ramdisk.c</text>
</g>
<!-- blk_drv&#45;&gt;ramdisk.c -->
<g id="edge7" class="edge"><title>blk_drv&#45;&gt;ramdisk.c</title>
<path fill="none" stroke="black" d="M177.037,-869.611C195.602,-862.649 219.114,-853.832 239.712,-846.108"/>
<polygon fill="black" stroke="black" points="241.113,-849.321 249.247,-842.532 238.655,-842.766 241.113,-849.321"/>
</g>
<!-- console.c -->
<g id="node10" class="node"><title>console.c</title>
<polygon fill="Wheat" stroke="black" points="327,-792 251,-792 251,-756 327,-756 327,-792"/>
<text text-anchor="middle" x="289" y="-770.2" font-family="Times,serif" font-size="16.00" fill="blue">console.c</text>
</g>
<!-- chr_drv&#45;&gt;console.c -->
<g id="edge9" class="edge"><title>chr_drv&#45;&gt;console.c</title>
<path fill="none" stroke="black" d="M160.057,-684.195C176.366,-701.89 203.003,-728.705 230,-747 233.721,-749.522 237.715,-751.921 241.803,-754.173"/>
<polygon fill="black" stroke="black" points="240.343,-757.359 250.831,-758.86 243.568,-751.146 240.343,-757.359"/>
</g>
<!-- kb.S -->
<g id="node11" class="node"><title>kb.S</title>
<polygon fill="Wheat" stroke="black" points="316,-738 262,-738 262,-702 316,-702 316,-738"/>
<text text-anchor="middle" x="289" y="-716.2" font-family="Times,serif" font-size="16.00" fill="blue">kb.S</text>
</g>
<!-- chr_drv&#45;&gt;kb.S -->
<g id="edge10" class="edge"><title>chr_drv&#45;&gt;kb.S</title>
<path fill="none" stroke="black" d="M176.676,-678.253C199.184,-686.694 229.089,-697.908 252.236,-706.588"/>
<polygon fill="black" stroke="black" points="251.108,-709.904 261.701,-710.138 253.566,-703.349 251.108,-709.904"/>
</g>
<!-- rs_io.s -->
<g id="node12" class="node"><title>rs_io.s</title>
<polygon fill="Wheat" stroke="black" points="318.5,-684 259.5,-684 259.5,-648 318.5,-648 318.5,-684"/>
<text text-anchor="middle" x="289" y="-662.2" font-family="Times,serif" font-size="16.00" fill="blue">rs_io.s</text>
</g>
<!-- chr_drv&#45;&gt;rs_io.s -->
<g id="edge11" class="edge"><title>chr_drv&#45;&gt;rs_io.s</title>
<path fill="none" stroke="black" d="M176.676,-666C198.166,-666 226.4,-666 249.056,-666"/>
<polygon fill="black" stroke="black" points="249.351,-669.5 259.351,-666 249.351,-662.5 249.351,-669.5"/>
</g>
<!-- serial.c -->
<g id="node13" class="node"><title>serial.c</title>
<polygon fill="Wheat" stroke="black" points="319.5,-630 258.5,-630 258.5,-594 319.5,-594 319.5,-630"/>
<text text-anchor="middle" x="289" y="-608.2" font-family="Times,serif" font-size="16.00" fill="blue">serial.c</text>
</g>
<!-- chr_drv&#45;&gt;serial.c -->
<g id="edge12" class="edge"><title>chr_drv&#45;&gt;serial.c</title>
<path fill="none" stroke="black" d="M176.676,-653.747C198.072,-645.723 226.151,-635.193 248.756,-626.717"/>
<polygon fill="black" stroke="black" points="250.258,-629.891 258.392,-623.103 247.8,-623.337 250.258,-629.891"/>
</g>
<!-- tty_io.c -->
<g id="node14" class="node"><title>tty_io.c</title>
<polygon fill="Wheat" stroke="black" points="321.5,-576 256.5,-576 256.5,-540 321.5,-540 321.5,-576"/>
<text text-anchor="middle" x="289" y="-554.2" font-family="Times,serif" font-size="16.00" fill="blue">tty_io.c</text>
</g>
<!-- chr_drv&#45;&gt;tty_io.c -->
<g id="edge13" class="edge"><title>chr_drv&#45;&gt;tty_io.c</title>
<path fill="none" stroke="black" d="M176.745,-651.318C182.844,-647.777 188.896,-643.651 194,-639 215.321,-619.573 208.111,-603.785 230,-585 235.153,-580.577 241.153,-576.727 247.302,-573.428"/>
<polygon fill="black" stroke="black" points="248.905,-576.54 256.335,-568.987 245.817,-570.258 248.905,-576.54"/>
</g>
<!-- tty_ioctl.c -->
<g id="node15" class="node"><title>tty_ioctl.c</title>
<polygon fill="Wheat" stroke="black" points="329.5,-522 248.5,-522 248.5,-486 329.5,-486 329.5,-522"/>
<text text-anchor="middle" x="289" y="-500.2" font-family="Times,serif" font-size="16.00" fill="blue">tty_ioctl.c</text>
</g>
<!-- chr_drv&#45;&gt;tty_ioctl.c -->
<g id="edge14" class="edge"><title>chr_drv&#45;&gt;tty_ioctl.c</title>
<path fill="none" stroke="black" d="M176.503,-653.09C182.979,-649.328 189.241,-644.665 194,-639 226.545,-600.26 196.318,-568.756 230,-531 232.828,-527.83 236.106,-525.004 239.636,-522.491"/>
<polygon fill="black" stroke="black" points="241.569,-525.411 248.238,-517.178 237.89,-519.455 241.569,-525.411"/>
</g>
<!-- math_emulate.c -->
<g id="node19" class="node"><title>math_emulate.c</title>
<polygon fill="Wheat" stroke="black" points="348,-468 230,-468 230,-432 348,-432 348,-468"/>
<text text-anchor="middle" x="289" y="-446.2" font-family="Times,serif" font-size="16.00" fill="blue">math_emulate.c</text>
</g>
<!-- math&#45;&gt;math_emulate.c -->
<g id="edge18" class="edge"><title>math&#45;&gt;math_emulate.c</title>
<path fill="none" stroke="black" d="M170.077,-494.221C186.946,-487.895 209.585,-479.405 230.517,-471.556"/>
<polygon fill="black" stroke="black" points="231.853,-474.793 239.988,-468.005 229.395,-468.239 231.853,-474.793"/>
</g>
</g>
</svg>
